<svg width="24" height="24" viewBox="0 0 24 24" fill="none" xmlns="http://www.w3.org/2000/svg">
<g clip-path="url(#clip0_287_6722)">
<path d="M17.1593 8.2155L10.2498 15.1245C10.2034 15.1711 10.1482 15.2081 10.0874 15.2334C10.0266 15.2587 9.96139 15.2716 9.89557 15.2716C9.82974 15.2716 9.76456 15.2587 9.70377 15.2334C9.64298 15.2081 9.58777 15.1711 9.54132 15.1245L6.86932 12.45C6.82286 12.4034 6.76765 12.3664 6.70686 12.3411C6.64607 12.3159 6.58089 12.3029 6.51507 12.3029C6.44924 12.3029 6.38406 12.3159 6.32327 12.3411C6.26248 12.3664 6.20727 12.4034 6.16082 12.45C6.11418 12.4965 6.07717 12.5517 6.05192 12.6125C6.02667 12.6732 6.01367 12.7384 6.01367 12.8043C6.01367 12.8701 6.02667 12.9353 6.05192 12.9961C6.07717 13.0568 6.11418 13.1121 6.16082 13.1585L8.83382 15.831C9.11579 16.1125 9.49792 16.2705 9.89632 16.2705C10.2947 16.2705 10.6768 16.1125 10.9588 15.831L17.8678 8.9235C17.9144 8.87706 17.9513 8.82188 17.9765 8.76114C18.0017 8.70039 18.0147 8.63527 18.0147 8.5695C18.0147 8.50374 18.0017 8.43862 17.9765 8.37787C17.9513 8.31713 17.9144 8.26195 17.8678 8.2155C17.8214 8.16887 17.7662 8.13186 17.7054 8.10661C17.6446 8.08136 17.5794 8.06836 17.5136 8.06836C17.4477 8.06836 17.3826 8.08136 17.3218 8.10661C17.261 8.13186 17.2058 8.16887 17.1593 8.2155Z" fill="#C8A45D"/>
</g>
<rect x="0.5" y="0.5" width="23" height="23" rx="11.5" stroke="#C8A45D"/>
<defs>
<clipPath id="clip0_287_6722">
<rect width="12" height="12" fill="white" transform="translate(6 6)"/>
</clipPath>
</defs>
</svg>
