<svg width="153" height="51" viewBox="0 0 153 51" fill="none" xmlns="http://www.w3.org/2000/svg">
<path d="M139.9 0.000165657H12.1115C11.6457 0.000165657 11.1855 0.000165657 10.7209 0.00271422C10.3321 0.00526279 9.94626 0.0126664 9.55364 0.0188976C8.70068 0.0289668 7.84972 0.104244 7.00816 0.244076C6.16779 0.386952 5.35374 0.656314 4.59355 1.04305C3.83428 1.43306 3.14053 1.93984 2.53744 2.545C1.93118 3.14846 1.42582 3.84597 1.04079 4.61073C0.654693 5.37396 0.386973 6.19183 0.246875 7.0361C0.105446 7.8793 0.029341 8.73222 0.0192445 9.58721C0.00745644 9.97791 0.00621158 10.3699 0 10.7606V40.2148C0.00621158 40.6104 0.00745644 40.9937 0.0192445 41.3895C0.0293441 42.2445 0.105449 43.0974 0.246875 43.9405C0.386586 44.7853 0.654322 45.6036 1.04079 46.3671C1.42565 47.1294 1.93108 47.8241 2.53744 48.4242C3.13824 49.0321 3.83245 49.5392 4.59355 49.9262C5.35373 50.314 6.16769 50.585 7.00816 50.73C7.84986 50.8687 8.70073 50.9441 9.55364 50.9553C9.94626 50.964 10.3321 50.969 10.7209 50.969C11.1855 50.9715 11.6458 50.9715 12.1115 50.9715H139.9C140.357 50.9715 140.82 50.9715 141.277 50.969C141.664 50.969 142.061 50.964 142.448 50.9553C143.299 50.9447 144.149 50.8693 144.989 50.73C145.832 50.5839 146.649 50.313 147.412 49.9262C148.173 49.539 148.866 49.0319 149.467 48.4242C150.072 47.8218 150.578 47.1276 150.968 46.3671C151.351 45.6031 151.616 44.7848 151.754 43.9405C151.896 43.0972 151.975 42.2446 151.99 41.3895C151.995 40.9937 151.995 40.6104 151.995 40.2148C152.005 39.7518 152.005 39.2914 152.005 38.821V12.1519C152.005 11.6852 152.005 11.2223 151.995 10.7606C151.995 10.3699 151.995 9.97791 151.99 9.58716C151.975 8.7321 151.896 7.87936 151.754 7.03605C151.616 6.19227 151.351 5.37446 150.968 4.61068C150.184 3.07781 148.94 1.83007 147.412 1.04294C146.649 0.657145 145.832 0.387854 144.989 0.243962C144.149 0.103514 143.299 0.0282098 142.448 0.0187192C142.061 0.0125007 141.664 0.00503342 141.277 0.00254857C140.82 0 140.357 0 139.9 0V0.000165657Z" fill="#212A54"/>
<path d="M31.465 26.1386C31.4787 25.064 31.7603 24.0103 32.2837 23.0756C32.8071 22.1409 33.5552 21.3555 34.4585 20.7927C33.8847 19.962 33.1277 19.2784 32.2476 18.7961C31.3675 18.3139 30.3886 18.0463 29.3887 18.0145C27.2556 17.7876 25.1877 19.3083 24.1007 19.3083C22.9927 19.3083 21.3191 18.0371 19.517 18.0747C18.3513 18.1128 17.2152 18.4564 16.2195 19.0719C15.2238 19.6875 14.4023 20.5539 13.8352 21.5869C11.3785 25.8982 13.211 32.2342 15.5643 35.7191C16.7417 37.4256 18.1177 39.3317 19.9182 39.2641C21.6802 39.1901 22.3382 38.1253 24.465 38.1253C26.5721 38.1253 27.1895 39.2641 29.0265 39.2212C30.9172 39.1901 32.1084 37.5071 33.2444 35.7845C34.0904 34.5686 34.7414 33.2248 35.1732 31.8028C34.0748 31.3319 33.1375 30.5437 32.4781 29.5364C31.8186 28.5292 31.4663 27.3475 31.465 26.1386Z" fill="#E3F0FA"/>
<path d="M27.9948 15.7224C29.0257 14.468 29.5335 12.8558 29.4106 11.228C27.8356 11.3957 26.3809 12.1586 25.3361 13.3649C24.8253 13.9541 24.434 14.6397 24.1847 15.3823C23.9355 16.1249 23.833 16.91 23.8833 17.6928C24.671 17.701 25.4503 17.528 26.1625 17.1866C26.8747 16.8453 27.5012 16.3447 27.9948 15.7224Z" fill="#E3F0FA"/>
<path d="M53.7371 34.943H47.7244L46.2805 39.2646H43.7338L49.4289 23.2759H52.0748L57.7699 39.2646H55.1798L53.7371 34.943ZM48.3471 32.9489H53.1132L50.7637 25.9352H50.6979L48.3471 32.9489Z" fill="#E3F0FA"/>
<path d="M70.068 33.4364C70.068 37.0589 68.1551 39.3863 65.2685 39.3863C64.5373 39.4251 63.8101 39.2544 63.1701 38.8937C62.5302 38.533 62.0034 37.9969 61.65 37.3468H61.5954V43.1207H59.2347V27.6073H61.5198V29.5461H61.5632C61.9328 28.8992 62.4685 28.3659 63.1133 28.003C63.7581 27.6401 64.4879 27.4612 65.2251 27.4853C68.1439 27.4853 70.068 29.824 70.068 33.4364ZM67.6416 33.4364C67.6416 31.0764 66.4383 29.5248 64.6024 29.5248C62.7987 29.5248 61.5855 31.1091 61.5855 33.4364C61.5855 35.7852 62.7987 37.3582 64.6024 37.3582C66.4383 37.3582 67.6416 35.8179 67.6416 33.4364Z" fill="#E3F0FA"/>
<path d="M82.7263 33.4364C82.7263 37.0589 80.8135 39.3863 77.9268 39.3863C77.1956 39.4251 76.4684 39.2543 75.8284 38.8937C75.1885 38.533 74.6617 37.9969 74.3083 37.3468H74.2537V43.1207H71.8931V27.6073H74.178V29.5461H74.2215C74.591 28.8992 75.1268 28.3659 75.7716 28.003C76.4164 27.6401 77.1462 27.4612 77.8834 27.4853C80.8023 27.4853 82.7263 29.824 82.7263 33.4364ZM80.2999 33.4364C80.2999 31.0764 79.0966 29.5248 77.2607 29.5248C75.457 29.5248 74.2438 31.109 74.2438 33.4364C74.2438 35.7852 75.457 37.3582 77.2607 37.3582C79.0966 37.3582 80.2999 35.8179 80.2999 33.4364H80.2999Z" fill="#E3F0FA"/>
<path d="M91.0936 34.8098C91.2686 36.3953 92.7882 37.4364 94.8647 37.4364C96.8545 37.4364 98.286 36.3953 98.286 34.9656C98.286 33.7246 97.4226 32.9815 95.3783 32.4723L93.334 31.9731C90.4374 31.2639 89.0927 29.8909 89.0927 27.6628C89.0927 24.9041 91.4646 23.0093 94.8325 23.0093C98.1656 23.0093 100.451 24.9041 100.528 27.6628H98.1446C98.0019 26.0672 96.7006 25.1041 94.799 25.1041C92.8973 25.1041 91.596 26.0785 91.596 27.4968C91.596 28.6272 92.4271 29.2924 94.4603 29.8015L96.1982 30.2341C99.4347 31.0099 100.779 32.3276 100.779 34.6663C100.779 37.6576 98.4286 39.5311 94.6898 39.5311C91.1916 39.5311 88.8297 37.7016 88.6771 34.8096L91.0936 34.8098Z" fill="#E3F0FA"/>
<path d="M105.872 24.8494V27.608H108.058V29.5029H105.872V35.9293C105.872 36.9277 106.309 37.3929 107.271 37.3929C107.53 37.3883 107.79 37.3698 108.047 37.3375V39.2211C107.615 39.3029 107.176 39.34 106.736 39.3317C104.408 39.3317 103.5 38.4453 103.5 36.1845V29.5029H101.828V27.608H103.5V24.8494H105.872Z" fill="#E3F0FA"/>
<path d="M109.327 33.4373C109.327 29.7696 111.458 27.4648 114.781 27.4648C118.116 27.4648 120.237 29.7696 120.237 33.4373C120.237 37.1152 118.127 39.4099 114.781 39.4099C111.437 39.4099 109.327 37.1151 109.327 33.4373ZM117.832 33.4373C117.832 30.9214 116.694 29.4364 114.781 29.4364C112.868 29.4364 111.732 30.9327 111.732 33.4373C111.732 35.9634 112.868 37.437 114.781 37.437C116.694 37.437 117.832 35.9634 117.832 33.4373H117.832Z" fill="#E3F0FA"/>
<path d="M122.184 27.6072H124.436V29.5913H124.491C124.643 28.9716 125.001 28.424 125.505 28.0404C126.009 27.6569 126.627 27.4608 127.257 27.4852C127.529 27.4842 127.8 27.5142 128.066 27.5745V29.8126C127.722 29.7062 127.364 29.6574 127.005 29.668C126.662 29.6539 126.32 29.7152 126.003 29.8476C125.685 29.9801 125.4 30.1806 125.166 30.4354C124.933 30.6902 124.756 30.9933 124.649 31.3237C124.542 31.6542 124.506 32.0043 124.545 32.3499V39.2642H122.184L122.184 27.6072Z" fill="#E3F0FA"/>
<path d="M138.948 35.8414C138.63 37.9576 136.597 39.4099 133.996 39.4099C130.65 39.4099 128.573 37.1378 128.573 33.4927C128.573 29.8362 130.661 27.4648 133.896 27.4648C137.078 27.4648 139.079 29.6803 139.079 33.2148V34.0346H130.956V34.1792C130.919 34.6082 130.972 35.0404 131.112 35.4471C131.252 35.8537 131.476 36.2255 131.768 36.5378C132.061 36.8501 132.416 37.0957 132.809 37.2584C133.203 37.421 133.626 37.4969 134.05 37.481C134.608 37.534 135.168 37.4031 135.646 37.1076C136.125 36.8122 136.497 36.3681 136.706 35.8414L138.948 35.8414ZM130.968 32.3623H136.717C136.738 31.9766 136.681 31.5905 136.548 31.2285C136.415 30.8664 136.209 30.5361 135.945 30.2583C135.68 29.9805 135.361 29.7612 135.009 29.6141C134.656 29.467 134.277 29.3954 133.896 29.4037C133.512 29.4014 133.131 29.4762 132.775 29.624C132.419 29.7717 132.096 29.9894 131.824 30.2645C131.552 30.5395 131.336 30.8665 131.189 31.2266C131.042 31.5867 130.967 31.9727 130.968 32.3623V32.3623Z" fill="#E3F0FA"/>
<path d="M48.0474 11.2421C48.5424 11.2061 49.039 11.2819 49.5015 11.464C49.964 11.6461 50.3809 11.93 50.7221 12.2952C51.0633 12.6603 51.3202 13.0977 51.4744 13.5758C51.6286 14.0538 51.6763 14.5605 51.6139 15.0595C51.6139 17.5139 50.3051 18.9247 48.0474 18.9247H45.3097V11.2421H48.0474ZM46.4869 17.8382H47.916C48.2696 17.8596 48.6235 17.8009 48.9519 17.6662C49.2803 17.5315 49.575 17.3242 49.8144 17.0596C50.0539 16.7949 50.2321 16.4794 50.336 16.1362C50.44 15.7929 50.4672 15.4304 50.4155 15.0751C50.4634 14.7213 50.4335 14.3611 50.3279 14.0203C50.2224 13.6795 50.0437 13.3667 49.8048 13.1041C49.5659 12.8415 49.2727 12.6358 48.9462 12.5015C48.6196 12.3673 48.2678 12.308 47.916 12.3278H46.4869V17.8382Z" fill="#E3F0FA"/>
<path d="M52.9438 16.0228C52.9078 15.6418 52.9508 15.2574 53.07 14.8942C53.1892 14.5311 53.382 14.1971 53.636 13.9139C53.89 13.6307 54.1995 13.4044 54.5449 13.2495C54.8902 13.0946 55.2636 13.0146 55.6412 13.0146C56.0188 13.0146 56.3923 13.0946 56.7376 13.2495C57.0829 13.4044 57.3925 13.6307 57.6465 13.9139C57.9005 14.1971 58.0932 14.5311 58.2124 14.8942C58.3316 15.2574 58.3746 15.6418 58.3387 16.0228C58.3753 16.4042 58.3328 16.7892 58.2139 17.153C58.0951 17.5167 57.9024 17.8513 57.6484 18.135C57.3943 18.4188 57.0845 18.6456 56.7388 18.8008C56.3932 18.956 56.0193 19.0362 55.6412 19.0362C55.2632 19.0362 54.8893 18.956 54.5436 18.8008C54.198 18.6456 53.8882 18.4188 53.6341 18.135C53.3801 17.8513 53.1874 17.5167 53.0685 17.153C52.9496 16.7892 52.9071 16.4042 52.9438 16.0228ZM57.1776 16.0228C57.1776 14.7661 56.6206 14.0312 55.6431 14.0312C54.6619 14.0312 54.1099 14.7661 54.1099 16.0229C54.1099 17.2897 54.6619 18.0189 55.6431 18.0189C56.6206 18.0189 57.1776 17.2846 57.1776 16.0228H57.1776Z" fill="#E3F0FA"/>
<path d="M65.5097 18.9244H64.3387L63.1565 14.6544H63.0672L61.89 18.9244H60.7301L59.1534 13.1267H60.2984L61.3231 17.5507H61.4074L62.5834 13.1267H63.6664L64.8423 17.5507H64.9317L65.9513 13.1267H67.0802L65.5097 18.9244Z" fill="#E3F0FA"/>
<path d="M68.4077 13.1269H69.4944V14.0479H69.5787C69.7218 13.7171 69.9632 13.4398 70.2692 13.2547C70.5751 13.0695 70.9305 12.9857 71.2857 13.015C71.564 12.9938 71.8434 13.0363 72.1033 13.1394C72.3632 13.2426 72.5969 13.4036 72.787 13.6107C72.9772 13.8178 73.1189 14.0656 73.2017 14.3358C73.2845 14.6059 73.3063 14.8915 73.2655 15.1714V18.9246H72.1366V15.4587C72.1366 14.527 71.7372 14.0636 70.9023 14.0636C70.7134 14.0547 70.5248 14.0873 70.3494 14.1592C70.174 14.2311 70.0161 14.3406 69.8863 14.4801C69.7566 14.6197 69.6582 14.786 69.5978 14.9677C69.5374 15.1494 69.5165 15.3422 69.5366 15.5329V18.9246H68.4077L68.4077 13.1269Z" fill="#E3F0FA"/>
<path d="M75.0612 10.8633H76.19V18.9243H75.0612V10.8633Z" fill="#E3F0FA"/>
<path d="M77.7621 16.023C77.7262 15.6419 77.7692 15.2575 77.8884 14.8943C78.0077 14.5311 78.2005 14.1972 78.4545 13.9139C78.7085 13.6307 79.0181 13.4044 79.3634 13.2495C79.7088 13.0946 80.0822 13.0146 80.4599 13.0146C80.8375 13.0146 81.211 13.0946 81.5563 13.2495C81.9017 13.4044 82.2113 13.6307 82.4653 13.9139C82.7193 14.1972 82.9121 14.5311 83.0313 14.8943C83.1505 15.2575 83.1936 15.6419 83.1576 16.023C83.1942 16.4044 83.1517 16.7893 83.0328 17.1531C82.9139 17.5168 82.7212 17.8514 82.4671 18.1352C82.213 18.4189 81.9032 18.6457 81.5575 18.8009C81.2118 18.9561 80.8379 19.0363 80.4599 19.0363C80.0818 19.0363 79.7079 18.9561 79.3622 18.8009C79.0166 18.6457 78.7067 18.4189 78.4527 18.1352C78.1986 17.8514 78.0059 17.5168 77.887 17.1531C77.7681 16.7893 77.7255 16.4044 77.7621 16.023ZM81.9959 16.023C81.9959 14.7662 81.4389 14.0313 80.4614 14.0313C79.4802 14.0313 78.9282 14.7662 78.9282 16.023C78.9282 17.2898 79.4802 18.019 80.4614 18.019C81.4389 18.019 81.9959 17.2847 81.9959 16.023H81.9959Z" fill="#E3F0FA"/>
<path d="M84.3439 17.2847C84.3439 16.241 85.1105 15.6394 86.4713 15.5539L88.0207 15.4634V14.9629C88.0207 14.3506 87.6212 14.0048 86.8497 14.0048C86.2195 14.0048 85.7828 14.2393 85.6576 14.6492H84.5647C84.68 13.6534 85.6042 13.0146 86.9018 13.0146C88.3358 13.0146 89.1446 13.7383 89.1446 14.9629V18.9243H88.0579V18.1095H87.9686C87.7873 18.4018 87.5327 18.64 87.2309 18.8C86.929 18.9599 86.5907 19.0357 86.2505 19.0198C86.0104 19.0451 85.7677 19.0192 85.5381 18.9436C85.3085 18.868 85.097 18.7445 84.9174 18.581C84.7377 18.4175 84.5939 18.2177 84.4951 17.9944C84.3963 17.7712 84.3448 17.5294 84.3439 17.2847ZM88.0207 16.7893V16.3045L86.6239 16.3951C85.8362 16.4485 85.4789 16.7201 85.4789 17.2312C85.4789 17.753 85.9255 18.0567 86.5396 18.0567C86.7195 18.0751 86.9013 18.0567 87.074 18.0025C87.2468 17.9483 87.407 17.8595 87.5452 17.7412C87.6834 17.623 87.7967 17.4778 87.8784 17.3142C87.9601 17.1507 88.0085 16.9721 88.0207 16.7893Z" fill="#E3F0FA"/>
<path d="M90.6293 16.0229C90.6293 14.1909 91.5584 13.0304 93.0036 13.0304C93.361 13.0137 93.7158 13.1005 94.0264 13.2806C94.337 13.4607 94.5907 13.7267 94.7576 14.0475H94.842V10.8633H95.9708V18.9243H94.8891V18.0083H94.7998C94.6199 18.3269 94.3575 18.5896 94.0409 18.7679C93.7242 18.9462 93.3655 19.0333 93.0036 19.0198C91.5485 19.0199 90.6293 17.8593 90.6293 16.0229ZM91.7954 16.0229C91.7954 17.2526 92.3672 17.9926 93.3237 17.9926C94.2751 17.9926 94.8631 17.242 94.8631 16.028C94.8631 14.8196 94.2689 14.0583 93.3237 14.0583C92.3734 14.0583 91.7953 14.8033 91.7953 16.0229H91.7954Z" fill="#E3F0FA"/>
<path d="M100.641 16.0228C100.605 15.6418 100.648 15.2574 100.767 14.8942C100.886 14.5311 101.079 14.1971 101.333 13.9139C101.587 13.6307 101.896 13.4044 102.242 13.2495C102.587 13.0946 102.96 13.0146 103.338 13.0146C103.716 13.0146 104.089 13.0946 104.434 13.2495C104.78 13.4044 105.089 13.6307 105.343 13.9139C105.597 14.1971 105.79 14.5311 105.909 14.8942C106.028 15.2574 106.071 15.6418 106.035 16.0228C106.072 16.4042 106.03 16.7892 105.911 17.153C105.792 17.5167 105.599 17.8513 105.345 18.135C105.091 18.4188 104.781 18.6456 104.436 18.8008C104.09 18.956 103.716 19.0362 103.338 19.0362C102.96 19.0362 102.586 18.956 102.24 18.8008C101.895 18.6456 101.585 18.4188 101.331 18.135C101.077 17.8513 100.884 17.5167 100.765 17.153C100.646 16.7892 100.604 16.4042 100.641 16.0228ZM104.874 16.0228C104.874 14.7661 104.317 14.0312 103.34 14.0312C102.359 14.0312 101.807 14.7661 101.807 16.0229C101.807 17.2897 102.359 18.0189 103.34 18.0189C104.317 18.0189 104.874 17.2846 104.874 16.0228Z" fill="#E3F0FA"/>
<path d="M107.55 13.1269H108.636V14.0479H108.721C108.864 13.7171 109.105 13.4398 109.411 13.2547C109.717 13.0695 110.072 12.9857 110.428 13.015C110.706 12.9938 110.985 13.0363 111.245 13.1394C111.505 13.2426 111.739 13.4036 111.929 13.6107C112.119 13.8178 112.261 14.0656 112.344 14.3358C112.427 14.6059 112.448 14.8915 112.407 15.1714V18.9246H111.279V15.4587C111.279 14.527 110.879 14.0636 110.044 14.0636C109.855 14.0547 109.667 14.0873 109.491 14.1592C109.316 14.2311 109.158 14.3406 109.028 14.4801C108.899 14.6197 108.8 14.786 108.74 14.9677C108.679 15.1494 108.659 15.3422 108.679 15.5329V18.9246H107.55V13.1269Z" fill="#E3F0FA"/>
<path d="M118.787 11.6831V13.153H120.026V14.1167H118.787V17.098C118.787 17.7053 119.034 17.9712 119.596 17.9712C119.74 17.9707 119.884 17.9619 120.026 17.9448V18.8979C119.824 18.9346 119.618 18.9542 119.412 18.9564C118.157 18.9564 117.657 18.5087 117.657 17.3909V14.1167H116.749V13.1529H117.657V11.6831H118.787Z" fill="#E3F0FA"/>
<path d="M121.566 10.8633H122.685V14.0583H122.775C122.925 13.7244 123.173 13.4455 123.485 13.2597C123.797 13.0738 124.158 12.99 124.519 13.0197C124.795 13.0044 125.072 13.0513 125.329 13.1569C125.586 13.2625 125.817 13.4243 126.005 13.6308C126.193 13.8372 126.334 14.0832 126.418 14.3512C126.501 14.6192 126.525 14.9025 126.488 15.1811V18.9243H125.359V15.4634C125.359 14.5373 124.933 14.0683 124.135 14.0683C123.941 14.0522 123.746 14.0792 123.564 14.1475C123.381 14.2158 123.215 14.3238 123.078 14.4638C122.941 14.6038 122.836 14.7725 122.769 14.9581C122.703 15.1436 122.678 15.3416 122.695 15.5382V18.9243H121.566L121.566 10.8633Z" fill="#E3F0FA"/>
<path d="M133.072 17.359C132.919 17.8888 132.586 18.3472 132.133 18.6538C131.68 18.9604 131.135 19.0958 130.594 19.0363C130.217 19.0464 129.842 18.9732 129.496 18.8219C129.15 18.6706 128.84 18.4447 128.589 18.16C128.338 17.8752 128.15 17.5385 128.04 17.173C127.93 16.8076 127.9 16.4223 127.951 16.0438C127.901 15.6641 127.932 15.2779 128.042 14.9114C128.152 14.5448 128.338 14.2065 128.588 13.9193C128.838 13.6321 129.146 13.4027 129.491 13.2466C129.836 13.0906 130.211 13.0115 130.589 13.0147C132.18 13.0147 133.14 14.1169 133.14 15.9375V16.3367H129.101V16.4009C129.084 16.6136 129.11 16.8278 129.179 17.0296C129.247 17.2314 129.357 17.4164 129.5 17.5728C129.644 17.7292 129.818 17.8535 130.012 17.9377C130.205 18.0219 130.414 18.0642 130.625 18.0618C130.895 18.0946 131.168 18.0454 131.41 17.9202C131.653 17.795 131.853 17.5997 131.985 17.3589L133.072 17.359ZM129.101 15.4905H131.99C132.005 15.2959 131.978 15.1005 131.914 14.9167C131.849 14.733 131.747 14.565 131.614 14.4235C131.482 14.2821 131.322 14.1703 131.144 14.0954C130.966 14.0205 130.775 13.9841 130.582 13.9886C130.387 13.9861 130.193 14.0233 130.012 14.0979C129.832 14.1725 129.667 14.283 129.529 14.423C129.391 14.563 129.282 14.7295 129.209 14.9129C129.135 15.0962 129.099 15.2926 129.101 15.4905H129.101Z" fill="#E3F0FA"/>
</svg>
