<svg width="32" height="32" viewBox="0 0 32 32" fill="none" xmlns="http://www.w3.org/2000/svg">
<g clip-path="url(#clip0_204_8139)">
<path d="M16 10.5205C16.588 10.5205 17.0646 10.0439 17.0646 9.45597C17.0646 8.86802 16.588 8.39139 16 8.39139C15.4121 8.39139 14.9354 8.86802 14.9354 9.45597C14.9354 10.0439 15.4121 10.5205 16 10.5205Z" fill="#C8A45D"/>
<path d="M8.98633 13.4012L7.89038 16.0313H10.0822L8.98633 13.4012ZM7.42078 18.4736C7.42078 19.0606 7.89833 19.5382 8.48536 19.5382H9.48731C10.0743 19.5382 10.5519 19.0606 10.5519 18.4736V17.91H7.42078V18.4736ZM23.0137 13.4012L21.9178 16.0313H24.1096L23.0137 13.4012Z" fill="#C8A45D"/>
<path d="M29.0255 3.00587C21.8595 3.00587 16.5022 0.143154 16.4499 0.114661C16.3119 0.0394063 16.1572 -2.67029e-05 16.0001 -2.67029e-05C15.8429 -2.67029e-05 15.6883 0.0394063 15.5503 0.114661C15.4973 0.143592 10.1666 3.00587 2.97461 3.00587C2.45585 3.00587 2.03528 3.42644 2.03528 3.9452V18.9746C2.03528 23.0151 4.4488 26.5549 9.01497 29.2112C12.3538 31.1535 15.6462 31.9423 15.7847 31.975C15.9264 32.0084 16.0738 32.0084 16.2155 31.975C16.354 31.9424 19.6463 31.1535 22.9851 29.2112C27.5513 26.5549 29.9648 23.0151 29.9648 18.9746V3.9452C29.9648 3.42644 29.5443 3.00587 29.0255 3.00587ZM26.458 18.4736C26.458 20.0965 25.1376 21.4168 23.5147 21.4168H22.5128C20.8899 21.4168 19.5695 20.0965 19.5695 18.4736V16.9706C19.5695 16.8393 19.5967 16.7143 19.6454 16.6008L21.6375 11.8198C21.5294 11.773 21.431 11.7063 21.3476 11.6231L20.1198 10.3953H18.7887C18.4954 11.2636 17.8077 11.9513 16.9394 12.2446V23.045H19.0059C19.5247 23.045 19.9453 23.4656 19.9453 23.9843C19.9453 24.5031 19.5247 24.9237 19.0059 24.9237H12.9942C12.4754 24.9237 12.0548 24.5031 12.0548 23.9843C12.0548 23.4656 12.4754 23.045 12.9942 23.045H15.0607V12.2446C14.1924 11.9513 13.5047 11.2636 13.2114 10.3953H11.8803L10.6525 11.6231C10.5691 11.7063 10.4707 11.773 10.3626 11.8198L12.3547 16.6008C12.4049 16.7176 12.4307 16.8435 12.4306 16.9706V18.4736C12.4306 20.0965 11.1103 21.4168 9.48733 21.4168H8.48538C6.86246 21.4168 5.54213 20.0965 5.54213 18.4736V16.9706C5.54213 16.8393 5.56931 16.7143 5.61796 16.6008L7.57735 11.8982H7.48342C6.96466 11.8982 6.54408 11.4777 6.54408 10.9589C6.54408 10.4401 6.96466 10.0196 7.48342 10.0196H9.59924L10.827 8.79173C10.9142 8.70451 11.0178 8.63532 11.1317 8.58812C11.2457 8.54091 11.3678 8.51662 11.4912 8.51663H13.2114C13.5046 7.64831 14.1923 6.96059 15.0607 6.66733V5.94912C15.0607 5.43036 15.4812 5.00978 16 5.00978C16.5188 5.00978 16.9393 5.43036 16.9393 5.94912V6.66733C17.8076 6.96059 18.4954 7.64831 18.7886 8.51663H20.5089C20.758 8.51663 20.9969 8.61558 21.173 8.79173L22.4009 10.0196H24.5167C25.0354 10.0196 25.456 10.4401 25.456 10.9589C25.456 11.4777 25.0354 11.8982 24.5167 11.8982H24.4228L26.3821 16.6008C26.4323 16.7176 26.4581 16.8435 26.458 16.9706V18.4736Z" fill="#C8A45D"/>
<path d="M21.4482 18.4736C21.4482 19.0606 21.9258 19.5382 22.5128 19.5382H23.5148C24.1018 19.5382 24.5794 19.0606 24.5794 18.4736V17.91H21.4482V18.4736Z" fill="#C8A45D"/>
</g>
<defs>
<clipPath id="clip0_204_8139">
<rect width="32" height="32" fill="white"/>
</clipPath>
</defs>
</svg>
