<svg width="32" height="32" viewBox="0 0 32 32" fill="none" xmlns="http://www.w3.org/2000/svg">
<path d="M6.625 6.3125C8.00571 6.3125 9.125 5.19321 9.125 3.8125C9.125 2.43179 8.00571 1.3125 6.625 1.3125C5.24429 1.3125 4.125 2.43179 4.125 3.8125C4.125 5.19321 5.24429 6.3125 6.625 6.3125Z" fill="#C8A45D"/>
<path d="M21.9375 26.9375H10.0625C8.68181 26.9375 7.5625 28.0568 7.5625 29.4375V29.75C7.5625 30.2678 7.98225 30.6875 8.5 30.6875H23.5C24.0177 30.6875 24.4375 30.2678 24.4375 29.75V29.4375C24.4375 28.0568 23.3182 26.9375 21.9375 26.9375Z" fill="#C8A45D"/>
<path d="M25.375 6.3125C26.7557 6.3125 27.875 5.19321 27.875 3.8125C27.875 2.43179 26.7557 1.3125 25.375 1.3125C23.9943 1.3125 22.875 2.43179 22.875 3.8125C22.875 5.19321 23.9943 6.3125 25.375 6.3125Z" fill="#C8A45D"/>
<path d="M10.375 18.1875H0.9375C0.41975 18.1875 0 18.6072 0 19.125V21C0 21.5177 0.41975 21.9375 0.9375 21.9375H10.375V18.1875ZM31.0625 18.1875H21.625V21.9375H31.0625C31.5802 21.9375 32 21.5177 32 21V19.125C32 18.6072 31.5802 18.1875 31.0625 18.1875ZM19.75 18.5C19.75 16.4289 18.0711 14.75 16 14.75C13.9289 14.75 12.25 16.4289 12.25 18.5V25.0625H19.75V18.5ZM16 20.375C15.4823 20.375 15.0625 19.9552 15.0625 19.4375C15.0625 18.9197 15.4823 18.5 16 18.5C16.5177 18.5 16.9375 18.9197 16.9375 19.4375C16.9375 19.9552 16.5177 20.375 16 20.375ZM3.48869 14.4375H4.28125V16.3125H8.96875V14.4375H9.76131C10.3795 14.4375 10.8284 13.8497 10.6657 13.2533L9.44556 8.77937C9.32639 8.34284 9.10699 7.94014 8.80481 7.60331C8.16256 7.97412 7.41844 8.1875 6.625 8.1875C5.83156 8.1875 5.08744 7.97412 4.44519 7.60331C4.14301 7.94014 3.92361 8.34284 3.80444 8.77937L2.58425 13.2533C2.42162 13.8497 2.87056 14.4375 3.48869 14.4375ZM22.7188 13.1875H23.0312V16.3125H27.7188V13.1875H28.0312C28.549 13.1875 28.9688 12.7677 28.9688 12.25V10.2187C28.9688 9.134 28.4851 8.16069 27.7227 7.50137C27.0437 7.93494 26.2386 8.1875 25.375 8.1875C24.5114 8.1875 23.7063 7.93494 23.0273 7.50137C22.2649 8.16069 21.7812 9.134 21.7812 10.2187V12.25C21.7812 12.7677 22.201 13.1875 22.7188 13.1875Z" fill="#C8A45D"/>
</svg>
