<svg width="32" height="32" viewBox="0 0 32 32" fill="none" xmlns="http://www.w3.org/2000/svg">
<g clip-path="url(#clip0_204_8147)">
<path d="M24.1248 0H6.00024C5.48249 0 5.06274 0.41975 5.06274 0.9375V23.437C5.06274 23.9548 5.48249 24.3745 6.00024 24.3745H24.1248C24.4507 24.3745 24.7764 24.3152 25.0623 24.2139V25.312C25.0623 25.8289 24.6417 26.2495 24.1248 26.2495H5.06274V31.0619C5.06274 31.724 5.73262 32.1785 6.34843 31.9323L9.12518 30.8216L11.9019 31.9323C12.5168 32.1782 13.1876 31.7248 13.1876 31.0619V28.1244H24.1248C25.6756 28.1244 26.9372 26.8628 26.9372 25.312V2.81244C26.9372 1.26169 25.6756 0 24.1248 0ZM22.3494 11.1082C21.4982 16.3569 16.5702 18.4691 16.3609 18.5565C16.2466 18.6042 16.1239 18.6288 16 18.6288C15.876 18.6288 15.7534 18.6042 15.639 18.5565C15.4296 18.4692 10.5017 16.357 9.65049 11.1082C9.62552 10.9541 9.6394 10.7963 9.69088 10.6489C9.74236 10.5016 9.82982 10.3694 9.94531 10.2644C10.7196 9.5605 11.2052 9.06588 11.4762 8.77487L11.0832 6.87281C10.9632 6.29219 11.4069 5.74563 12.0013 5.74563H19.9986C20.5939 5.74563 21.0365 6.29294 20.9166 6.87281L20.5236 8.77487C20.7947 9.06594 21.2803 9.56056 22.0546 10.2644C22.1701 10.3694 22.2576 10.5016 22.309 10.6489C22.3605 10.7962 22.3744 10.9541 22.3494 11.1082Z" fill="#C8A45D"/>
</g>
<defs>
<clipPath id="clip0_204_8147">
<rect width="32" height="32" fill="white"/>
</clipPath>
</defs>
</svg>
