<svg width="179" height="60" viewBox="0 0 179 60" fill="none" xmlns="http://www.w3.org/2000/svg">
<path d="M11.2582 0.522182L11.2562 0.522214C10.2776 0.533758 9.30121 0.620071 8.33563 0.780397C7.39641 0.94011 6.48657 1.24104 5.63684 1.67305C4.78956 2.10822 4.0153 2.67362 3.34216 3.34881L3.34074 3.35023C2.66489 4.02269 2.10147 4.80002 1.67218 5.65234L1.67175 5.65319C1.24002 6.50629 0.940639 7.42051 0.783969 8.36427L0.783826 8.36513C0.62154 9.33229 0.534213 10.3106 0.522627 11.2913L0.522519 11.3005L0.522435 11.3005C0.51314 11.6084 0.509538 11.9137 0.505877 12.224C0.504137 12.3715 0.502384 12.5201 0.5 12.6706V47.334C0.502352 47.4844 0.504091 47.6314 0.50581 47.7767C0.509495 48.0882 0.513091 48.3921 0.52244 48.7059L0.522708 48.7149H0.522627C0.534216 49.6955 0.621544 50.6738 0.783825 51.6409L0.784014 51.642C0.940233 52.5862 1.2396 53.5009 1.6717 54.3542L1.67193 54.3546C2.10083 55.2038 2.66407 55.9776 3.33972 56.6461L3.34363 56.6499L3.34361 56.65C4.01348 57.3274 4.78743 57.8925 5.6359 58.3238L5.63647 58.3241C6.48634 58.7575 7.39625 59.0604 8.33575 59.2227C9.30169 59.3817 10.2781 59.4681 11.2569 59.481L11.2613 59.4811C11.7207 59.4912 12.1713 59.497 12.6249 59.497H12.6277C13.1731 59.5 13.7138 59.5 14.2625 59.5H164.746C165.283 59.5 165.828 59.5 166.364 59.497L166.367 59.497C166.819 59.497 167.282 59.4912 167.735 59.4811L167.74 59.481C168.716 59.4688 169.691 59.3824 170.654 59.2228C171.597 59.0593 172.511 58.7564 173.365 58.324C174.213 57.8924 174.986 57.3273 175.656 56.65L175.658 56.6472C176.333 55.9757 176.898 55.202 177.333 54.3545C177.761 53.5007 178.058 52.5865 178.211 51.6431L178.212 51.6408C178.374 50.6726 178.465 49.6935 178.483 48.7118C178.488 48.2505 178.488 47.8032 178.488 47.3379V47.3272H178.488C178.5 46.7885 178.5 46.2519 178.5 45.6972V14.3043C178.5 13.7541 178.5 13.2146 178.488 12.6774L178.488 12.6667C178.488 12.2071 178.488 11.7497 178.483 11.2943C178.465 10.3125 178.374 9.33344 178.212 8.36519L178.211 8.36309C178.057 7.42025 177.761 6.50644 177.333 5.65299C176.457 3.94319 175.07 2.55155 173.365 1.67325C172.511 1.2421 171.597 0.941109 170.654 0.78018C169.691 0.619199 168.717 0.532885 167.741 0.522004L167.738 0.521976C167.654 0.520616 167.569 0.519215 167.485 0.517813L11.2582 0.522182ZM11.2582 0.522182C11.355 0.520647 11.4512 0.519056 11.5469 0.517473C11.9106 0.511457 12.2679 0.505546 12.6279 0.503186C13.1733 0.500196 13.7138 0.500195 14.2625 0.500195H164.746L164.838 0.500194C165.346 0.500183 165.859 0.500173 166.364 0.502991L11.2582 0.522182Z" fill="#F5FBFF" stroke="#C8A45D"/>
<g opacity="0.9">
<path d="M34.7965 31.0473C34.8101 29.9727 35.0917 28.919 35.6151 27.9843C36.1385 27.0496 36.8866 26.2642 37.7899 25.7014C37.2161 24.8707 36.4591 24.1871 35.579 23.7048C34.6989 23.2226 33.72 22.9549 32.7201 22.9232C30.587 22.6963 28.5191 24.217 27.4321 24.217C26.3241 24.217 24.6505 22.9458 22.8484 22.9834C21.6827 23.0215 20.5466 23.3651 19.5509 23.9806C18.5552 24.5962 17.7337 25.4626 17.1666 26.4956C14.7099 30.8069 16.5424 37.1429 18.8957 40.6278C20.0731 42.3343 21.4491 44.2404 23.2497 44.1728C25.0116 44.0988 25.6696 43.034 27.7964 43.034C29.9035 43.034 30.5209 44.1728 32.358 44.1299C34.2486 44.0987 35.4398 42.4158 36.5759 40.6932C37.4218 39.4773 38.0728 38.1335 38.5047 36.7115C37.4063 36.2406 36.4689 35.4524 35.8095 34.4451C35.1501 33.4379 34.7977 32.2562 34.7965 31.0473V31.0473Z" fill="#C8A45D"/>
<path d="M31.3262 20.631C32.3571 19.3767 32.865 17.7644 32.742 16.1367C31.1671 16.3043 29.7123 17.0673 28.6675 18.2735C28.1567 18.8627 27.7655 19.5483 27.5162 20.2909C27.2669 21.0335 27.1644 21.8187 27.2147 22.6014C28.0024 22.6097 28.7818 22.4366 29.4939 22.0953C30.2061 21.754 30.8326 21.2533 31.3262 20.631Z" fill="#C8A45D"/>
</g>
<g opacity="0.9">
<path d="M57.0685 39.8519H51.0558L49.6119 44.1734H47.0652L52.7603 28.1847H55.4062L61.1013 44.1734H58.5112L57.0685 39.8519ZM51.6786 37.8577H56.4446L54.0951 30.8441H54.0293L51.6786 37.8577Z" fill="#C8A45D"/>
<path d="M73.3994 38.3452C73.3994 41.9677 71.4866 44.2951 68.5999 44.2951C67.8687 44.3338 67.1415 44.1631 66.5015 43.8024C65.8616 43.4417 65.3348 42.9057 64.9814 42.2556H64.9268V48.0294H62.5662V32.516H64.8512V34.4549H64.8946C65.2642 33.8079 65.7999 33.2747 66.4447 32.9118C67.0895 32.5489 67.8194 32.37 68.5565 32.3941C71.4753 32.3941 73.3994 34.7328 73.3994 38.3452ZM70.973 38.3452C70.973 35.9851 69.7697 34.4335 67.9338 34.4335C66.1301 34.4335 64.9169 36.0178 64.9169 38.3452C64.9169 40.694 66.1301 42.2669 67.9338 42.2669C69.7697 42.2669 70.973 40.7267 70.973 38.3452Z" fill="#C8A45D"/>
<path d="M86.0577 38.3452C86.0577 41.9677 84.1449 44.2951 81.2583 44.2951C80.527 44.3338 79.7998 44.1631 79.1599 43.8024C78.5199 43.4417 77.9931 42.9056 77.6398 42.2556H77.5851V48.0294H75.2245V32.516H77.5095V34.4549H77.5529C77.9225 33.8079 78.4582 33.2746 79.103 32.9118C79.7478 32.5489 80.4777 32.37 81.2148 32.3941C84.1337 32.3941 86.0577 34.7328 86.0577 38.3452ZM83.6313 38.3452C83.6313 35.9851 82.428 34.4335 80.5921 34.4335C78.7884 34.4335 77.5752 36.0178 77.5752 38.3452C77.5752 40.694 78.7884 42.2669 80.5921 42.2669C82.4281 42.2669 83.6313 40.7266 83.6313 38.3452H83.6313Z" fill="#C8A45D"/>
<path d="M94.4251 39.7186C94.6 41.3042 96.1196 42.3452 98.1961 42.3452C100.186 42.3452 101.617 41.3041 101.617 39.8745C101.617 38.6335 100.754 37.8904 98.7097 37.3811L96.6654 36.8819C93.7689 36.1728 92.4241 34.7997 92.4241 32.5717C92.4241 29.813 94.796 27.9182 98.1639 27.9182C101.497 27.9182 103.782 29.813 103.859 32.5717H101.476C101.333 30.9761 100.032 30.0129 98.1304 30.0129C96.2287 30.0129 94.9274 30.9874 94.9274 32.4057C94.9274 33.5361 95.7586 34.2012 97.7917 34.7104L99.5296 35.143C102.766 35.9188 104.111 37.2365 104.111 39.5752C104.111 42.5665 101.76 44.4399 98.0212 44.4399C94.523 44.4399 92.1611 42.6105 92.0085 39.7185L94.4251 39.7186Z" fill="#C8A45D"/>
<path d="M109.203 29.7581V32.5167H111.39V34.4116H109.203V40.838C109.203 41.8363 109.641 42.3016 110.602 42.3016C110.862 42.297 111.121 42.2785 111.379 42.2462V44.1298C110.947 44.2116 110.507 44.2487 110.068 44.2404C107.739 44.2404 106.831 43.354 106.831 41.0932V34.4116H105.159V32.5167H106.831V29.7581H109.203Z" fill="#C8A45D"/>
<path d="M112.658 38.346C112.658 34.6783 114.789 32.3735 118.113 32.3735C121.447 32.3735 123.568 34.6782 123.568 38.346C123.568 42.0239 121.458 44.3185 118.113 44.3185C114.768 44.3185 112.658 42.0238 112.658 38.346ZM121.163 38.346C121.163 35.83 120.026 34.3451 118.113 34.3451C116.2 34.3451 115.064 35.8414 115.064 38.346C115.064 40.8721 116.2 42.3457 118.113 42.3457C120.026 42.3457 121.163 40.8721 121.163 38.346H121.163Z" fill="#C8A45D"/>
<path d="M125.516 32.5159H127.767V34.5H127.822C127.974 33.8803 128.332 33.3327 128.836 32.9492C129.34 32.5656 129.959 32.3696 130.588 32.3939C130.86 32.393 131.132 32.4229 131.397 32.4832V34.7213C131.054 34.615 130.695 34.5661 130.336 34.5767C129.993 34.5626 129.652 34.6239 129.334 34.7564C129.017 34.8889 128.732 35.0894 128.498 35.3442C128.264 35.599 128.088 35.902 127.98 36.2325C127.873 36.563 127.838 36.913 127.877 37.2587V44.173H125.516L125.516 32.5159Z" fill="#C8A45D"/>
<path d="M142.279 40.7501C141.962 42.8663 139.928 44.3185 137.327 44.3185C133.981 44.3185 131.905 42.0465 131.905 38.4014C131.905 34.7449 133.993 32.3735 137.228 32.3735C140.41 32.3735 142.411 34.589 142.411 38.1235V38.9433H134.288V39.0879C134.25 39.5169 134.303 39.9491 134.443 40.3557C134.583 40.7624 134.807 41.1342 135.1 41.4465C135.392 41.7588 135.747 42.0044 136.141 42.167C136.534 42.3297 136.957 42.4056 137.382 42.3897C137.94 42.4427 138.499 42.3118 138.978 42.0163C139.456 41.7209 139.828 41.2768 140.038 40.7501L142.279 40.7501ZM134.299 37.271H140.049C140.07 36.8852 140.012 36.4992 139.879 36.1372C139.746 35.7751 139.541 35.4448 139.276 35.167C139.011 34.8892 138.692 34.6698 138.34 34.5228C137.988 34.3757 137.609 34.3041 137.228 34.3124C136.843 34.3101 136.462 34.3849 136.107 34.5327C135.751 34.6804 135.428 34.8981 135.155 35.1732C134.883 35.4482 134.667 35.7752 134.52 36.1353C134.373 36.4953 134.298 36.8813 134.299 37.271V37.271Z" fill="#C8A45D"/>
</g>
<g opacity="0.9">
<path d="M48.7048 17.2358C49.0129 17.2134 49.3222 17.2606 49.6102 17.374C49.8982 17.4874 50.1577 17.6642 50.3702 17.8915C50.5826 18.1189 50.7426 18.3913 50.8387 18.6889C50.9347 18.9866 50.9643 19.3022 50.9255 19.6128C50.9255 21.1411 50.1106 22.0196 48.7048 22.0196H47V17.2358H48.7048ZM47.733 21.3431H48.6229C48.8431 21.3564 49.0635 21.3198 49.2679 21.236C49.4724 21.1521 49.6559 21.0231 49.805 20.8583C49.9541 20.6935 50.0651 20.497 50.1298 20.2833C50.1946 20.0695 50.2115 19.8438 50.1793 19.6226C50.2091 19.4022 50.1905 19.1779 50.1248 18.9658C50.059 18.7536 49.9478 18.5587 49.799 18.3952C49.6503 18.2317 49.4677 18.1036 49.2644 18.0201C49.061 17.9365 48.842 17.8995 48.6229 17.9119H47.733V21.3431Z" fill="#C8A45D"/>
<path d="M51.7536 20.2127C51.7312 19.9754 51.7579 19.7361 51.8322 19.5099C51.9064 19.2838 52.0264 19.0759 52.1846 18.8995C52.3427 18.7231 52.5355 18.5822 52.7505 18.4858C52.9655 18.3894 53.1981 18.3395 53.4332 18.3395C53.6683 18.3395 53.9009 18.3894 54.1159 18.4858C54.3309 18.5822 54.5237 18.7231 54.6818 18.8995C54.84 19.0759 54.96 19.2838 55.0342 19.5099C55.1085 19.7361 55.1352 19.9754 55.1128 20.2127C55.1357 20.4502 55.1092 20.6899 55.0352 20.9164C54.9612 21.1429 54.8412 21.3512 54.683 21.5279C54.5248 21.7046 54.3319 21.8458 54.1167 21.9425C53.9014 22.0391 53.6686 22.089 53.4332 22.089C53.1978 22.089 52.965 22.0391 52.7497 21.9425C52.5345 21.8458 52.3416 21.7046 52.1834 21.5279C52.0252 21.3512 51.9052 21.1429 51.8312 20.9164C51.7572 20.6899 51.7307 20.4502 51.7536 20.2127V20.2127ZM54.3898 20.2127C54.3898 19.4301 54.043 18.9725 53.4344 18.9725C52.8234 18.9725 52.4797 19.4301 52.4797 20.2127C52.4797 21.0015 52.8234 21.4556 53.4344 21.4556C54.043 21.4556 54.3899 20.9984 54.3899 20.2127H54.3898Z" fill="#C8A45D"/>
<path d="M59.5782 22.0196H58.849L58.1129 19.3607H58.0573L57.3242 22.0196H56.602L55.6202 18.4094H56.3332L56.9712 21.1642H57.0238L57.756 18.4094H58.4303L59.1626 21.1642H59.2182L59.8532 18.4094H60.5561L59.5782 22.0196Z" fill="#C8A45D"/>
<path d="M61.3827 18.4094H62.0593V18.9829H62.1119C62.201 18.7769 62.3513 18.6043 62.5418 18.489C62.7323 18.3737 62.9536 18.3215 63.1747 18.3397C63.348 18.3265 63.522 18.353 63.6839 18.4172C63.8457 18.4814 63.9912 18.5817 64.1096 18.7107C64.228 18.8397 64.3162 18.994 64.3678 19.1622C64.4194 19.3304 64.433 19.5082 64.4075 19.6825V22.0195H63.7046V19.8614C63.7046 19.2812 63.4559 18.9927 62.9361 18.9927C62.8184 18.9872 62.7009 19.0075 62.5917 19.0522C62.4825 19.097 62.3842 19.1651 62.3034 19.252C62.2226 19.3389 62.1613 19.4425 62.1237 19.5557C62.0861 19.6688 62.0731 19.7889 62.0856 19.9076V22.0196H61.3827L61.3827 18.4094Z" fill="#C8A45D"/>
<path d="M65.5256 17H66.2285V22.0194H65.5256V17Z" fill="#C8A45D"/>
<path d="M67.2075 20.2128C67.1851 19.9755 67.2119 19.7361 67.2862 19.51C67.3604 19.2838 67.4805 19.0759 67.6386 18.8995C67.7968 18.7231 67.9896 18.5822 68.2046 18.4858C68.4197 18.3894 68.6522 18.3395 68.8874 18.3395C69.1225 18.3395 69.3551 18.3894 69.5701 18.4858C69.7851 18.5822 69.9779 18.7231 70.1361 18.8995C70.2942 19.0759 70.4143 19.2838 70.4885 19.51C70.5628 19.7361 70.5896 19.9755 70.5672 20.2128C70.59 20.4503 70.5635 20.69 70.4895 20.9165C70.4154 21.143 70.2954 21.3513 70.1372 21.528C69.979 21.7047 69.7861 21.8459 69.5708 21.9425C69.3556 22.0392 69.1228 22.0891 68.8874 22.0891C68.6519 22.0891 68.4191 22.0392 68.2039 21.9425C67.9886 21.8459 67.7957 21.7047 67.6375 21.528C67.4793 21.3513 67.3593 21.143 67.2853 20.9165C67.2112 20.69 67.1847 20.4503 67.2075 20.2128V20.2128ZM69.8438 20.2128C69.8438 19.4302 69.497 18.9726 68.8883 18.9726C68.2773 18.9726 67.9336 19.4302 67.9336 20.2128C67.9336 21.0016 68.2774 21.4557 68.8883 21.4557C69.497 21.4557 69.8438 20.9984 69.8438 20.2128H69.8438Z" fill="#C8A45D"/>
<path d="M71.3059 20.9984C71.3059 20.3486 71.7833 19.9739 72.6306 19.9207L73.5954 19.8643V19.5527C73.5954 19.1714 73.3467 18.9561 72.8662 18.9561C72.4738 18.9561 72.2019 19.1021 72.1239 19.3574H71.4434C71.5152 18.7373 72.0907 18.3395 72.8987 18.3395C73.7916 18.3395 74.2952 18.7901 74.2952 19.5527V22.0194H73.6186V21.512H73.5629C73.4501 21.694 73.2916 21.8424 73.1036 21.9419C72.9156 22.0415 72.705 22.0888 72.4931 22.0788C72.3436 22.0946 72.1925 22.0784 72.0495 22.0314C71.9065 21.9843 71.7749 21.9074 71.663 21.8056C71.5512 21.7038 71.4616 21.5794 71.4001 21.4404C71.3386 21.3013 71.3065 21.1508 71.3059 20.9984V20.9984ZM73.5954 20.6899V20.3881L72.7256 20.4445C72.2351 20.4777 72.0127 20.6469 72.0127 20.9651C72.0127 21.29 72.2907 21.4791 72.6731 21.4791C72.7852 21.4906 72.8983 21.4791 73.0059 21.4454C73.1135 21.4117 73.2133 21.3563 73.2993 21.2827C73.3854 21.2091 73.4559 21.1186 73.5068 21.0168C73.5576 20.915 73.5878 20.8038 73.5954 20.6899V20.6899Z" fill="#C8A45D"/>
<path d="M75.2196 20.2128C75.2196 19.0721 75.7982 18.3494 76.698 18.3494C76.9206 18.339 77.1415 18.3931 77.335 18.5052C77.5284 18.6174 77.6863 18.783 77.7903 18.9828H77.8428V17H78.5457V22.0194H77.8721V21.4491H77.8165C77.7045 21.6475 77.5411 21.8111 77.3439 21.9221C77.1468 22.0331 76.9234 22.0873 76.698 22.0789C75.792 22.079 75.2196 21.3563 75.2196 20.2128ZM75.9457 20.2128C75.9457 20.9785 76.3018 21.4393 76.8974 21.4393C77.4898 21.4393 77.8559 20.9719 77.8559 20.2159C77.8559 19.4635 77.4859 18.9895 76.8974 18.9895C76.3056 18.9895 75.9457 19.4534 75.9457 20.2128H75.9457Z" fill="#C8A45D"/>
<path d="M81.4535 20.2127C81.4311 19.9754 81.4579 19.7361 81.5321 19.5099C81.6063 19.2838 81.7264 19.0759 81.8845 18.8995C82.0427 18.7231 82.2354 18.5822 82.4505 18.4858C82.6655 18.3894 82.898 18.3395 83.1332 18.3395C83.3683 18.3395 83.6008 18.3894 83.8158 18.4858C84.0309 18.5822 84.2236 18.7231 84.3818 18.8995C84.5399 19.0759 84.66 19.2838 84.7342 19.5099C84.8084 19.7361 84.8352 19.9754 84.8128 20.2127C84.8356 20.4502 84.8092 20.6899 84.7351 20.9164C84.6611 21.1429 84.5411 21.3512 84.3829 21.5279C84.2248 21.7046 84.0318 21.8458 83.8166 21.9425C83.6014 22.0391 83.3686 22.089 83.1332 22.089C82.8977 22.089 82.6649 22.0391 82.4497 21.9425C82.2344 21.8458 82.0415 21.7046 81.8833 21.5279C81.7252 21.3512 81.6052 21.1429 81.5312 20.9164C81.4571 20.6899 81.4307 20.4502 81.4535 20.2127V20.2127ZM84.0898 20.2127C84.0898 19.4301 83.743 18.9725 83.1343 18.9725C82.5233 18.9725 82.1796 19.4301 82.1796 20.2127C82.1796 21.0015 82.5233 21.4556 83.1343 21.4556C83.743 21.4556 84.0898 20.9984 84.0898 20.2127Z" fill="#C8A45D"/>
<path d="M85.7556 18.4094H86.4323V18.9829H86.4848C86.5739 18.7769 86.7242 18.6043 86.9147 18.489C87.1052 18.3737 87.3265 18.3215 87.5477 18.3397C87.721 18.3265 87.895 18.353 88.0568 18.4172C88.2186 18.4814 88.3641 18.5817 88.4825 18.7107C88.6009 18.8397 88.6892 18.994 88.7407 19.1622C88.7923 19.3304 88.8059 19.5082 88.7805 19.6825V22.0195H88.0775V19.8614C88.0775 19.2812 87.8288 18.9927 87.309 18.9927C87.1913 18.9872 87.0739 19.0075 86.9647 19.0522C86.8555 19.097 86.7571 19.1651 86.6763 19.252C86.5955 19.3389 86.5343 19.4425 86.4967 19.5557C86.4591 19.6688 86.4461 19.7889 86.4585 19.9076V22.0196H85.7556V18.4094Z" fill="#C8A45D"/>
<path d="M92.753 17.5105V18.4258H93.5247V19.0259H92.753V20.8822C92.753 21.2604 92.9067 21.426 93.2566 21.426C93.3462 21.4257 93.4357 21.4202 93.5247 21.4095V22.003C93.3984 22.0259 93.2705 22.0381 93.1423 22.0394C92.3606 22.0394 92.0493 21.7607 92.0493 21.0647V19.0259H91.4839V18.4257H92.0493V17.5105H92.753Z" fill="#C8A45D"/>
<path d="M94.4835 17H95.1803V18.9895H95.2359C95.3293 18.7816 95.4837 18.6079 95.6781 18.4922C95.8724 18.3764 96.0972 18.3243 96.3219 18.3427C96.4943 18.3332 96.6666 18.3624 96.8266 18.4282C96.9866 18.494 97.1303 18.5947 97.2475 18.7233C97.3646 18.8518 97.4523 19.005 97.5044 19.1719C97.5564 19.3387 97.5715 19.5152 97.5485 19.6886V22.0194H96.8449V19.8644C96.8449 19.2877 96.5799 18.9957 96.0833 18.9957C95.9624 18.9857 95.8409 19.0025 95.7272 19.045C95.6135 19.0876 95.5103 19.1548 95.4249 19.242C95.3395 19.3291 95.2739 19.4342 95.2327 19.5497C95.1915 19.6653 95.1757 19.7886 95.1865 19.911V22.0194H94.4836L94.4835 17Z" fill="#C8A45D"/>
<path d="M101.648 21.0447C101.552 21.3746 101.346 21.66 101.063 21.8509C100.781 22.0419 100.442 22.1262 100.105 22.0891C99.87 22.0954 99.6368 22.0498 99.4213 21.9556C99.2058 21.8614 99.013 21.7207 98.8565 21.5434C98.6999 21.3661 98.5833 21.1564 98.5148 20.9289C98.4462 20.7013 98.4273 20.4614 98.4594 20.2257C98.4282 19.9893 98.4474 19.7488 98.5158 19.5206C98.5842 19.2924 98.7002 19.0817 98.8559 18.9028C99.0116 18.724 99.2034 18.5812 99.4183 18.484C99.6333 18.3868 99.8663 18.3376 100.102 18.3396C101.093 18.3396 101.69 19.0259 101.69 20.1595V20.4081H99.1754V20.4481C99.1644 20.5805 99.1809 20.7139 99.2237 20.8396C99.2665 20.9652 99.3347 21.0805 99.424 21.1778C99.5133 21.2752 99.6217 21.3526 99.7423 21.405C99.8628 21.4575 99.9928 21.4838 100.124 21.4823C100.292 21.5028 100.462 21.4721 100.613 21.3941C100.764 21.3162 100.889 21.1945 100.971 21.0446L101.648 21.0447ZM99.1754 19.8812H100.974C100.983 19.76 100.967 19.6383 100.927 19.5239C100.886 19.4095 100.823 19.3049 100.74 19.2168C100.658 19.1287 100.558 19.0591 100.447 19.0125C100.337 18.9659 100.218 18.9432 100.098 18.946C99.9761 18.9444 99.8555 18.9676 99.7429 19.014C99.6303 19.0605 99.528 19.1293 99.442 19.2165C99.3561 19.3036 99.2882 19.4074 99.2424 19.5215C99.1966 19.6357 99.1739 19.758 99.1754 19.8812H99.1754Z" fill="#C8A45D"/>
</g>
</svg>
