<svg width="182" height="60" viewBox="0 0 182 60" fill="none" xmlns="http://www.w3.org/2000/svg">
<path d="M181.5 51.891C181.5 56.1043 178.17 59.5 174.089 59.5H10.9126C6.83091 59.5003 3.49988 56.1045 3.49988 51.891V8.10825C3.49988 3.89553 6.83085 0.5 10.9126 0.5H174.089C178.17 0.5 181.5 3.8954 181.5 8.10825L181.5 51.891Z" fill="#F5FBFF" stroke="#C8A45D"/>
<g clip-path="url(#clip0_436_10807)">
<path d="M24.1595 20.2458C23.2347 19.7347 22.1488 19.7465 21.2299 20.2532L31.9998 30.1884L35.6178 26.5704L24.1595 20.2458ZM20.1529 21.2697C19.8899 21.6996 19.7393 22.1915 19.7393 22.713V40.6569C19.7393 41.1622 19.8767 41.6438 20.1248 42.0649L30.9553 31.2344L20.1529 21.2697ZM40.4148 29.2178L36.9637 27.3135L33.0857 31.1901L37.8383 35.5734L40.4163 34.1507C41.344 33.6366 41.8995 32.7147 41.8995 31.6835C41.8981 30.6523 41.344 29.7304 40.4148 29.2178ZM32.0412 32.236L21.1812 43.096C21.6524 43.3649 22.1695 43.5067 22.6895 43.5067C23.1918 43.5067 23.6971 43.3797 24.1595 43.1241L36.4762 36.3268L32.0412 32.236Z" fill="#C8A45D"/>
</g>
<path d="M55.5515 21.307H54.5298C54.5298 21.1646 54.433 20.7616 54.2392 20.0975H52.7643C52.5643 20.7507 52.4642 21.1538 52.4642 21.307H51.5034C51.5034 21.223 51.7519 20.5331 52.2487 19.2374C52.7456 17.9418 52.994 17.228 52.994 17.0968H54.2009C54.2009 17.2196 54.4258 17.9228 54.876 19.2067C55.3263 20.4906 55.5515 21.1905 55.5515 21.307ZM54.0766 19.4798C53.7126 18.3674 53.5307 17.766 53.5307 17.6753H53.4796C53.4796 17.7594 53.2912 18.3608 52.9147 19.4798H54.0766ZM59.668 21.307H58.8796C58.8796 21.2185 58.5869 20.7519 58.0017 19.9069C57.389 19.0165 57.0398 18.4078 56.9548 18.08H56.9037C56.9569 18.552 56.9837 18.9788 56.9837 19.3606C56.9837 19.8931 56.9985 20.5421 57.0282 21.3074H56.2428C56.2746 20.6391 56.2907 19.9051 56.2907 19.1053C56.2907 18.3184 56.2746 17.6489 56.2428 17.0971H57.1908C57.1908 17.2115 57.4535 17.6676 57.9792 18.465C58.5388 19.3121 58.8603 19.8868 58.9432 20.1887H58.9911C58.94 19.708 58.9144 19.2769 58.9144 18.8952C58.9144 18.3112 58.8995 17.7115 58.8698 17.0971H59.668C59.638 17.6317 59.6234 18.3012 59.6234 19.1053C59.6231 19.9154 59.638 20.6493 59.668 21.307ZM64.2947 19.0562C64.2947 19.6685 64.101 20.2032 63.7137 20.6601C63.3262 21.1174 62.7835 21.3456 62.0855 21.3456C61.7705 21.3456 61.3363 21.3326 60.783 21.3067C60.8106 20.6556 60.8246 19.9214 60.8246 19.1047C60.8246 18.3202 60.8106 17.6507 60.783 17.0965H61.3417C61.4332 17.0965 61.5693 17.0932 61.7503 17.0868C61.931 17.0805 62.0492 17.0772 62.1045 17.0772C62.8727 17.0772 63.4296 17.2714 63.7758 17.6594C64.1217 18.0474 64.2947 18.5128 64.2947 19.0562ZM63.4234 19.1953C63.4234 18.7813 63.3042 18.4327 63.0659 18.1489C62.8275 17.8656 62.4635 17.7238 61.974 17.7238C61.8825 17.7238 61.7571 17.7335 61.5972 17.753C61.6183 18.1844 61.629 18.6347 61.629 19.1047C61.629 19.62 61.6397 20.1309 61.6608 20.6375C61.7974 20.6654 61.9363 20.6795 62.0756 20.6797C62.5333 20.6797 62.8721 20.5355 63.0923 20.2477C63.3125 19.9599 63.4234 19.6092 63.4234 19.1953ZM68.5612 21.307H67.6162C67.3693 20.5439 67.18 20.0728 67.048 19.894C66.9161 19.7149 66.7033 19.6255 66.4097 19.6255C66.2861 19.6255 66.1681 19.6267 66.0555 19.6288C66.0555 20.183 66.065 20.7423 66.0843 21.307H65.1969C65.2246 20.6559 65.2385 19.9217 65.2385 19.105C65.2385 18.3205 65.2246 17.651 65.1969 17.0968H65.7491C65.813 17.0968 65.9464 17.0935 66.1497 17.0871C66.3529 17.0808 66.5408 17.0775 66.7131 17.0775C67.6899 17.0775 68.1785 17.4158 68.1785 18.0929C68.1785 18.6296 67.8997 19.0035 67.3422 19.2151V19.2636C67.5571 19.3238 67.7455 19.4939 67.9072 19.7727C68.0685 20.0517 68.2866 20.5632 68.5612 21.307ZM67.3642 18.3319C67.3642 17.9029 67.0917 17.6883 66.547 17.6883C66.347 17.6883 66.1701 17.7034 66.0171 17.7335C66.0406 18.0676 66.0522 18.5032 66.0522 19.0399C66.1693 19.0445 66.2683 19.0463 66.3491 19.0463C67.0257 19.0466 67.3642 18.8085 67.3642 18.3319ZM73.1371 19.1242C73.1371 19.7859 72.9371 20.3347 72.5368 20.7703C72.1365 21.2056 71.6417 21.4235 71.0524 21.4235C70.4905 21.4235 70.0201 21.2236 69.6415 20.8235C69.2626 20.4238 69.0733 19.9154 69.0733 19.2991C69.0733 18.6374 69.2733 18.0887 69.6736 17.6531C70.0736 17.2178 70.5683 16.9998 71.1579 16.9998C71.7199 16.9998 72.19 17.1991 72.5689 17.598C72.9478 17.9969 73.1371 18.5053 73.1371 19.1242ZM72.2563 19.2179C72.2563 18.7672 72.1425 18.4018 71.9148 18.1215C71.6869 17.8412 71.4061 17.7013 71.0721 17.7013C70.7612 17.7013 70.4973 17.8424 70.2804 18.1248C70.0634 18.4072 69.9544 18.7639 69.9544 19.1953C69.9544 19.6435 70.0688 20.0084 70.2976 20.2899C70.5264 20.5713 70.8067 20.7119 71.1389 20.7119C71.4495 20.7119 71.7137 20.5701 71.9306 20.2865C72.1475 20.0033 72.2563 19.6468 72.2563 19.2179ZM74.9422 21.307H74.0387C74.0664 20.6387 74.0804 19.9048 74.0804 19.105C74.0804 18.3181 74.0664 17.6486 74.0387 17.0968H74.9422C74.9145 17.6401 74.9006 18.3093 74.9006 19.105C74.9006 19.9175 74.9145 20.6517 74.9422 21.307ZM79.5692 19.0562C79.5692 19.6685 79.3754 20.2032 78.9882 20.6601C78.6007 21.1174 78.058 21.3456 77.36 21.3456C77.045 21.3456 76.6108 21.3326 76.0574 21.3067C76.0851 20.6556 76.0991 19.9214 76.0991 19.1047C76.0991 18.3202 76.0851 17.6507 76.0574 17.0965H76.6161C76.7077 17.0965 76.8438 17.0932 77.0248 17.0868C77.2055 17.0805 77.3237 17.0772 77.379 17.0772C78.1472 17.0772 78.7041 17.2714 79.0503 17.6594C79.3962 18.0474 79.5692 18.5128 79.5692 19.0562ZM78.6979 19.1953C78.6979 18.7813 78.5787 18.4327 78.3403 18.1489C78.102 17.8656 77.738 17.7238 77.2485 17.7238C77.157 17.7238 77.0316 17.7335 76.8717 17.753C76.8928 18.1844 76.9035 18.6347 76.9035 19.1047C76.9035 19.62 76.9142 20.1309 76.9353 20.6375C77.0718 20.6654 77.2108 20.6795 77.3501 20.6797C77.8077 20.6797 78.1465 20.5355 78.3667 20.2477C78.587 19.9599 78.6979 19.6092 78.6979 19.1953ZM85.7076 21.307H84.6859C84.6859 21.1646 84.589 20.7616 84.395 20.0975H82.9201C82.7201 20.7507 82.6199 21.1538 82.6199 21.307H81.6595C81.6595 21.223 81.9079 20.5331 82.4048 19.2374C82.9017 17.9418 83.1501 17.228 83.1501 17.0968H84.3569C84.3569 17.2196 84.5822 17.9228 85.0321 19.2067C85.482 20.4906 85.7076 21.1905 85.7076 21.307ZM84.2327 19.4798C83.8687 18.3674 83.6865 17.766 83.6865 17.6753H83.6354C83.6354 17.7594 83.4473 18.3608 83.0708 19.4798H84.2327ZM89.4312 18.1992C89.4312 18.7145 89.2422 19.095 88.8645 19.3407C88.4868 19.5863 88.0235 19.7094 87.4742 19.7094C87.3741 19.7094 87.3031 19.7073 87.2603 19.7031C87.2603 20.1086 87.2719 20.643 87.2954 21.307H86.3982C86.4258 20.6842 86.4398 19.9499 86.4398 19.105C86.4398 18.3289 86.4258 17.6594 86.3982 17.0968H86.9536C87.0324 17.0968 87.1833 17.0935 87.4068 17.0871C87.6303 17.0808 87.8238 17.0775 87.9878 17.0775C88.3919 17.0775 88.7337 17.1702 89.0124 17.3556C89.2912 17.5411 89.4312 17.822 89.4312 18.1992ZM88.6077 18.3771C88.6077 17.9159 88.3055 17.685 87.701 17.685C87.5498 17.685 87.3902 17.7012 87.2223 17.7335C87.2458 18.1411 87.2574 18.6022 87.2574 19.1176C87.3105 19.1221 87.3724 19.1239 87.4425 19.1239C88.2193 19.1242 88.6077 18.8753 88.6077 18.3771ZM93.26 18.1992C93.26 18.7145 93.071 19.095 92.6936 19.3407C92.3159 19.5863 91.8523 19.7094 91.3031 19.7094C91.2029 19.7094 91.1319 19.7073 91.0891 19.7031C91.0891 20.1086 91.1007 20.643 91.1242 21.307H90.227C90.2547 20.6842 90.2687 19.9499 90.2687 19.105C90.2687 18.3289 90.2547 17.6594 90.227 17.0968H90.7824C90.8612 17.0968 91.0122 17.0935 91.2356 17.0871C91.4591 17.0808 91.6526 17.0775 91.8166 17.0775C92.2207 17.0775 92.5625 17.1702 92.8413 17.3556C93.12 17.5411 93.26 17.822 93.26 18.1992ZM92.4365 18.3771C92.4365 17.9159 92.1343 17.685 91.5299 17.685C91.3786 17.685 91.219 17.7012 91.0511 17.7335C91.0746 18.1411 91.0862 18.6022 91.0862 19.1176C91.1394 19.1221 91.2012 19.1239 91.2713 19.1239C92.0481 19.1242 92.4365 18.8753 92.4365 18.3771ZM99.52 19.1242C99.52 19.7859 99.32 20.3347 98.9197 20.7703C98.5194 21.2059 98.0246 21.4235 97.4353 21.4235C96.8734 21.4235 96.4029 21.2236 96.0243 20.8235C95.6457 20.4238 95.4561 19.9154 95.4561 19.2991C95.4561 18.6374 95.6561 18.0887 96.0564 17.6531C96.4567 17.2175 96.9515 16.9998 97.5408 16.9998C98.1027 16.9998 98.5732 17.1991 98.9518 17.598C99.3304 17.9969 99.52 18.5053 99.52 19.1242ZM98.6388 19.2179C98.6388 18.7672 98.525 18.4018 98.2974 18.1215C98.0698 17.8412 97.7886 17.7013 97.4546 17.7013C97.1438 17.7013 96.8799 17.8424 96.6629 18.1248C96.446 18.4072 96.3372 18.7639 96.3372 19.1953C96.3372 19.6435 96.4517 20.0084 96.6805 20.2899C96.9093 20.5713 97.1895 20.7119 97.5215 20.7119C97.8323 20.7119 98.0962 20.5701 98.3131 20.2866C98.5304 20.0033 98.6388 19.6468 98.6388 19.2179ZM103.847 21.307H103.058C103.058 21.2185 102.766 20.7519 102.181 19.9069C101.568 19.0165 101.219 18.4078 101.134 18.08H101.083C101.136 18.552 101.162 18.9788 101.162 19.3606C101.162 19.8931 101.177 20.5421 101.207 21.3074H100.422C100.453 20.6391 100.469 19.9051 100.469 19.1053C100.469 18.3184 100.453 17.6489 100.422 17.0971H101.37C101.37 17.2115 101.633 17.6676 102.158 18.465C102.718 19.3121 103.039 19.8868 103.122 20.1887H103.17C103.119 19.708 103.093 19.2769 103.093 18.8952C103.093 18.3112 103.078 17.7115 103.049 17.0971H103.847C103.817 17.6317 103.802 18.3012 103.802 19.1053C103.802 19.9154 103.817 20.6493 103.847 21.307Z" fill="#C8A45D"/>
<mask id="path-4-outside-1_436_10807" maskUnits="userSpaceOnUse" x="50.5034" y="24.5815" width="101" height="22" fill="black">
<rect fill="white" x="50.5034" y="24.5815" width="101" height="22"/>
<path d="M123.67 40.4905C123.033 40.4905 122.451 40.3713 121.924 40.1332C121.397 39.8948 120.954 39.5281 120.597 39.0338H120.49C120.561 39.613 120.597 40.1621 120.597 40.6808V44.7625H119.114V30.3903H120.32L120.525 31.7479H120.597C120.978 31.2046 121.422 30.8129 121.928 30.5715C122.434 30.3301 123.015 30.2093 123.67 30.2093C124.969 30.2093 125.971 30.6591 126.677 31.558C127.382 32.4569 127.735 33.7182 127.735 35.3408C127.735 36.97 127.376 38.2352 126.659 39.138C125.942 40.0399 124.946 40.4905 123.67 40.4905ZM123.456 31.4854C122.455 31.4854 121.732 31.7663 121.285 32.3271C120.838 32.8882 120.609 33.7814 120.597 35.0063V35.3408C120.597 36.7348 120.826 37.7319 121.285 38.3325C121.744 38.933 122.48 39.2325 123.492 39.2325C124.338 39.2325 125.001 38.8861 125.48 38.1922C125.959 37.4986 126.199 36.5422 126.199 35.3227C126.199 34.0864 125.959 33.1369 125.48 32.4764C125.001 31.8154 124.326 31.4854 123.456 31.4854ZM131.17 40.3093H129.687V26.227H131.17V40.3093ZM139.696 40.3093L139.401 38.8975H139.33C138.841 39.5194 138.355 39.9406 137.869 40.16C137.384 40.3807 136.778 40.4906 136.051 40.4906C135.08 40.4906 134.32 40.2371 133.768 39.7304C133.217 39.2238 132.942 38.5031 132.942 37.5675C132.942 35.5647 134.524 34.5147 137.686 34.4178L139.348 34.3633V33.748C139.348 32.9695 139.183 32.3945 138.852 32.024C138.522 31.6525 137.992 31.4671 137.266 31.4671C136.45 31.4671 135.527 31.7205 134.497 32.2272L134.041 31.0778C134.524 30.8123 135.052 30.6043 135.627 30.4535C136.202 30.3027 136.778 30.2271 137.356 30.2271C138.523 30.2271 139.388 30.4893 139.951 31.0143C140.514 31.5393 140.795 32.381 140.795 33.5397V40.309H139.696V40.3093H139.696ZM136.346 39.2509C137.269 39.2509 137.994 38.9944 138.521 38.4817C139.048 37.9691 139.312 37.2508 139.312 36.3272V35.4314L137.828 35.4943C136.649 35.5373 135.8 35.7222 135.278 36.0518C134.757 36.3805 134.496 36.892 134.496 37.5859C134.496 38.1286 134.658 38.5423 134.983 38.8252C135.308 39.1091 135.762 39.2509 136.346 39.2509ZM141.656 30.3903H143.246L145.391 36.047C145.861 37.3384 146.153 38.2704 146.267 38.8439H146.338C146.416 38.5356 146.578 38.0097 146.825 37.2638C147.072 36.5184 147.881 34.2278 149.25 30.3903H150.841L146.633 41.6853C146.216 42.8016 145.729 43.5936 145.172 44.062C144.615 44.5292 143.931 44.7625 143.122 44.7625C142.669 44.7625 142.222 44.7113 141.781 44.609V43.4054C142.109 43.4777 142.475 43.5141 142.88 43.5141C143.899 43.5141 144.625 42.9349 145.06 41.7763L145.605 40.3647L141.656 30.3903ZM96.1969 31.312C96.6677 31.7067 97.6507 32.5357 97.6507 34.1134C97.6507 35.6478 96.7904 36.3754 95.9301 37.0591C95.6638 37.3285 95.3566 37.6199 95.3566 38.0768C95.3566 38.5323 95.6635 38.7816 95.8897 38.9685L96.6273 39.5483C97.5283 40.3162 98.3467 41.0221 98.3467 42.4542C98.3467 44.4043 96.4828 46.3745 92.9607 46.3745C89.9905 46.3745 88.5575 44.9434 88.5575 43.4072C88.5575 42.6607 88.9245 41.6031 90.1346 40.8761C91.4036 40.0877 93.1251 39.9851 94.0463 39.9213C93.7587 39.5483 93.4318 39.154 93.4318 38.5118C93.4318 38.1596 93.5346 37.9519 93.6366 37.7018C93.4104 37.7228 93.1854 37.7436 92.9804 37.7436C90.8101 37.7436 89.5813 36.1045 89.5813 34.487C89.5813 33.5324 90.0119 32.4737 90.8916 31.707C92.0594 30.732 93.452 30.5655 94.559 30.5655H98.7771L97.4662 31.3123H96.197V31.312H96.1969ZM94.7423 40.5243C94.5786 40.5026 94.4757 40.5026 94.2718 40.5026C94.0876 40.5026 92.98 40.545 92.1209 40.8361C91.6704 41.0008 90.3592 41.4987 90.3592 42.9726C90.3592 44.4449 91.7732 45.5046 93.9649 45.5046C95.9298 45.5046 96.9755 44.5482 96.9755 43.2631C96.9756 42.2028 96.2995 41.645 94.7423 40.5243ZM95.3366 36.5816C95.807 36.1039 95.8475 35.4407 95.8475 35.0668C95.8475 33.5734 94.9672 31.2497 93.2677 31.2497C92.7346 31.2497 92.1616 31.5191 91.8338 31.9346C91.4861 32.3702 91.3827 32.9298 91.3827 33.4698C91.3827 34.8597 92.1815 37.1629 93.9438 37.1629C94.4558 37.1629 95.0077 36.914 95.3366 36.5816ZM83.3029 40.1922C80.0521 40.1922 78.3139 37.6235 78.3139 35.3031C78.3139 32.5893 80.5014 30.2704 83.6108 30.2704C86.6152 30.2704 88.4966 32.6516 88.4966 35.1586C88.4969 37.6018 86.6369 40.1922 83.3029 40.1922ZM85.8586 38.5146C86.3501 37.8511 86.4728 37.0229 86.4728 36.2144C86.4728 34.391 85.614 30.9117 83.0782 30.9117C82.4036 30.9117 81.7291 31.1814 81.2384 31.6173C80.4408 32.3413 80.297 33.2531 80.297 34.1448C80.297 36.1939 81.299 39.5694 83.7739 39.5694C84.5712 39.5694 85.3893 39.1765 85.8586 38.5146ZM72.2197 40.1922C68.9683 40.1922 67.2299 37.6235 67.2299 35.3031C67.2299 32.5893 69.4183 30.2704 72.5267 30.2704C75.532 30.2704 77.4131 32.6516 77.4131 35.1586C77.4135 37.6018 75.5531 40.1922 72.2197 40.1922ZM74.776 38.5146C75.2667 37.8511 75.3897 37.0229 75.3897 36.2144C75.3897 34.391 74.5303 30.9117 71.9945 30.9117C71.3202 30.9117 70.645 31.1814 70.1547 31.6173C69.357 32.3413 69.2141 33.2531 69.2141 34.1448C69.2141 36.1939 70.2156 39.5694 72.6908 39.5694C73.4884 39.5694 74.3059 39.1765 74.776 38.5146ZM65.6679 39.8674L62.7277 40.5547C61.5348 40.7425 60.4662 40.9078 59.336 40.9078C53.6612 40.9078 51.5034 36.6801 51.5034 33.3687C51.5034 29.3291 54.5661 25.5815 59.8091 25.5815C60.9197 25.5815 61.9878 25.7477 62.9538 26.0186C64.4956 26.4561 65.2151 26.997 65.6676 27.3098L63.9607 28.9549L63.2415 29.1208L63.7553 28.2875C63.0567 27.6009 61.7809 26.3308 59.356 26.3308C56.1075 26.3308 53.6606 28.8309 53.6606 32.4749C53.6606 36.389 56.457 40.0751 60.9378 40.0751C62.2549 40.0751 62.9319 39.8048 63.5491 39.5543V36.2023L60.4454 36.3688L62.0894 35.4723H66.448L65.914 35.9928C65.769 36.1184 65.7491 36.1605 65.7081 36.3255C65.6867 36.5133 65.6674 37.1178 65.6674 37.3258V39.8674H65.6679V39.8674Z"/>
</mask>
<path d="M123.67 40.4905C123.033 40.4905 122.451 40.3713 121.924 40.1332C121.397 39.8948 120.954 39.5281 120.597 39.0338H120.49C120.561 39.613 120.597 40.1621 120.597 40.6808V44.7625H119.114V30.3903H120.32L120.525 31.7479H120.597C120.978 31.2046 121.422 30.8129 121.928 30.5715C122.434 30.3301 123.015 30.2093 123.67 30.2093C124.969 30.2093 125.971 30.6591 126.677 31.558C127.382 32.4569 127.735 33.7182 127.735 35.3408C127.735 36.97 127.376 38.2352 126.659 39.138C125.942 40.0399 124.946 40.4905 123.67 40.4905ZM123.456 31.4854C122.455 31.4854 121.732 31.7663 121.285 32.3271C120.838 32.8882 120.609 33.7814 120.597 35.0063V35.3408C120.597 36.7348 120.826 37.7319 121.285 38.3325C121.744 38.933 122.48 39.2325 123.492 39.2325C124.338 39.2325 125.001 38.8861 125.48 38.1922C125.959 37.4986 126.199 36.5422 126.199 35.3227C126.199 34.0864 125.959 33.1369 125.48 32.4764C125.001 31.8154 124.326 31.4854 123.456 31.4854ZM131.17 40.3093H129.687V26.227H131.17V40.3093ZM139.696 40.3093L139.401 38.8975H139.33C138.841 39.5194 138.355 39.9406 137.869 40.16C137.384 40.3807 136.778 40.4906 136.051 40.4906C135.08 40.4906 134.32 40.2371 133.768 39.7304C133.217 39.2238 132.942 38.5031 132.942 37.5675C132.942 35.5647 134.524 34.5147 137.686 34.4178L139.348 34.3633V33.748C139.348 32.9695 139.183 32.3945 138.852 32.024C138.522 31.6525 137.992 31.4671 137.266 31.4671C136.45 31.4671 135.527 31.7205 134.497 32.2272L134.041 31.0778C134.524 30.8123 135.052 30.6043 135.627 30.4535C136.202 30.3027 136.778 30.2271 137.356 30.2271C138.523 30.2271 139.388 30.4893 139.951 31.0143C140.514 31.5393 140.795 32.381 140.795 33.5397V40.309H139.696V40.3093H139.696ZM136.346 39.2509C137.269 39.2509 137.994 38.9944 138.521 38.4817C139.048 37.9691 139.312 37.2508 139.312 36.3272V35.4314L137.828 35.4943C136.649 35.5373 135.8 35.7222 135.278 36.0518C134.757 36.3805 134.496 36.892 134.496 37.5859C134.496 38.1286 134.658 38.5423 134.983 38.8252C135.308 39.1091 135.762 39.2509 136.346 39.2509ZM141.656 30.3903H143.246L145.391 36.047C145.861 37.3384 146.153 38.2704 146.267 38.8439H146.338C146.416 38.5356 146.578 38.0097 146.825 37.2638C147.072 36.5184 147.881 34.2278 149.25 30.3903H150.841L146.633 41.6853C146.216 42.8016 145.729 43.5936 145.172 44.062C144.615 44.5292 143.931 44.7625 143.122 44.7625C142.669 44.7625 142.222 44.7113 141.781 44.609V43.4054C142.109 43.4777 142.475 43.5141 142.88 43.5141C143.899 43.5141 144.625 42.9349 145.06 41.7763L145.605 40.3647L141.656 30.3903ZM96.1969 31.312C96.6677 31.7067 97.6507 32.5357 97.6507 34.1134C97.6507 35.6478 96.7904 36.3754 95.9301 37.0591C95.6638 37.3285 95.3566 37.6199 95.3566 38.0768C95.3566 38.5323 95.6635 38.7816 95.8897 38.9685L96.6273 39.5483C97.5283 40.3162 98.3467 41.0221 98.3467 42.4542C98.3467 44.4043 96.4828 46.3745 92.9607 46.3745C89.9905 46.3745 88.5575 44.9434 88.5575 43.4072C88.5575 42.6607 88.9245 41.6031 90.1346 40.8761C91.4036 40.0877 93.1251 39.9851 94.0463 39.9213C93.7587 39.5483 93.4318 39.154 93.4318 38.5118C93.4318 38.1596 93.5346 37.9519 93.6366 37.7018C93.4104 37.7228 93.1854 37.7436 92.9804 37.7436C90.8101 37.7436 89.5813 36.1045 89.5813 34.487C89.5813 33.5324 90.0119 32.4737 90.8916 31.707C92.0594 30.732 93.452 30.5655 94.559 30.5655H98.7771L97.4662 31.3123H96.197V31.312H96.1969ZM94.7423 40.5243C94.5786 40.5026 94.4757 40.5026 94.2718 40.5026C94.0876 40.5026 92.98 40.545 92.1209 40.8361C91.6704 41.0008 90.3592 41.4987 90.3592 42.9726C90.3592 44.4449 91.7732 45.5046 93.9649 45.5046C95.9298 45.5046 96.9755 44.5482 96.9755 43.2631C96.9756 42.2028 96.2995 41.645 94.7423 40.5243ZM95.3366 36.5816C95.807 36.1039 95.8475 35.4407 95.8475 35.0668C95.8475 33.5734 94.9672 31.2497 93.2677 31.2497C92.7346 31.2497 92.1616 31.5191 91.8338 31.9346C91.4861 32.3702 91.3827 32.9298 91.3827 33.4698C91.3827 34.8597 92.1815 37.1629 93.9438 37.1629C94.4558 37.1629 95.0077 36.914 95.3366 36.5816ZM83.3029 40.1922C80.0521 40.1922 78.3139 37.6235 78.3139 35.3031C78.3139 32.5893 80.5014 30.2704 83.6108 30.2704C86.6152 30.2704 88.4966 32.6516 88.4966 35.1586C88.4969 37.6018 86.6369 40.1922 83.3029 40.1922ZM85.8586 38.5146C86.3501 37.8511 86.4728 37.0229 86.4728 36.2144C86.4728 34.391 85.614 30.9117 83.0782 30.9117C82.4036 30.9117 81.7291 31.1814 81.2384 31.6173C80.4408 32.3413 80.297 33.2531 80.297 34.1448C80.297 36.1939 81.299 39.5694 83.7739 39.5694C84.5712 39.5694 85.3893 39.1765 85.8586 38.5146ZM72.2197 40.1922C68.9683 40.1922 67.2299 37.6235 67.2299 35.3031C67.2299 32.5893 69.4183 30.2704 72.5267 30.2704C75.532 30.2704 77.4131 32.6516 77.4131 35.1586C77.4135 37.6018 75.5531 40.1922 72.2197 40.1922ZM74.776 38.5146C75.2667 37.8511 75.3897 37.0229 75.3897 36.2144C75.3897 34.391 74.5303 30.9117 71.9945 30.9117C71.3202 30.9117 70.645 31.1814 70.1547 31.6173C69.357 32.3413 69.2141 33.2531 69.2141 34.1448C69.2141 36.1939 70.2156 39.5694 72.6908 39.5694C73.4884 39.5694 74.3059 39.1765 74.776 38.5146ZM65.6679 39.8674L62.7277 40.5547C61.5348 40.7425 60.4662 40.9078 59.336 40.9078C53.6612 40.9078 51.5034 36.6801 51.5034 33.3687C51.5034 29.3291 54.5661 25.5815 59.8091 25.5815C60.9197 25.5815 61.9878 25.7477 62.9538 26.0186C64.4956 26.4561 65.2151 26.997 65.6676 27.3098L63.9607 28.9549L63.2415 29.1208L63.7553 28.2875C63.0567 27.6009 61.7809 26.3308 59.356 26.3308C56.1075 26.3308 53.6606 28.8309 53.6606 32.4749C53.6606 36.389 56.457 40.0751 60.9378 40.0751C62.2549 40.0751 62.9319 39.8048 63.5491 39.5543V36.2023L60.4454 36.3688L62.0894 35.4723H66.448L65.914 35.9928C65.769 36.1184 65.7491 36.1605 65.7081 36.3255C65.6867 36.5133 65.6674 37.1178 65.6674 37.3258V39.8674H65.6679V39.8674Z" fill="#C8A45D"/>
<path d="M123.67 40.4905C123.033 40.4905 122.451 40.3713 121.924 40.1332C121.397 39.8948 120.954 39.5281 120.597 39.0338H120.49C120.561 39.613 120.597 40.1621 120.597 40.6808V44.7625H119.114V30.3903H120.32L120.525 31.7479H120.597C120.978 31.2046 121.422 30.8129 121.928 30.5715C122.434 30.3301 123.015 30.2093 123.67 30.2093C124.969 30.2093 125.971 30.6591 126.677 31.558C127.382 32.4569 127.735 33.7182 127.735 35.3408C127.735 36.97 127.376 38.2352 126.659 39.138C125.942 40.0399 124.946 40.4905 123.67 40.4905ZM123.456 31.4854C122.455 31.4854 121.732 31.7663 121.285 32.3271C120.838 32.8882 120.609 33.7814 120.597 35.0063V35.3408C120.597 36.7348 120.826 37.7319 121.285 38.3325C121.744 38.933 122.48 39.2325 123.492 39.2325C124.338 39.2325 125.001 38.8861 125.48 38.1922C125.959 37.4986 126.199 36.5422 126.199 35.3227C126.199 34.0864 125.959 33.1369 125.48 32.4764C125.001 31.8154 124.326 31.4854 123.456 31.4854ZM131.17 40.3093H129.687V26.227H131.17V40.3093ZM139.696 40.3093L139.401 38.8975H139.33C138.841 39.5194 138.355 39.9406 137.869 40.16C137.384 40.3807 136.778 40.4906 136.051 40.4906C135.08 40.4906 134.32 40.2371 133.768 39.7304C133.217 39.2238 132.942 38.5031 132.942 37.5675C132.942 35.5647 134.524 34.5147 137.686 34.4178L139.348 34.3633V33.748C139.348 32.9695 139.183 32.3945 138.852 32.024C138.522 31.6525 137.992 31.4671 137.266 31.4671C136.45 31.4671 135.527 31.7205 134.497 32.2272L134.041 31.0778C134.524 30.8123 135.052 30.6043 135.627 30.4535C136.202 30.3027 136.778 30.2271 137.356 30.2271C138.523 30.2271 139.388 30.4893 139.951 31.0143C140.514 31.5393 140.795 32.381 140.795 33.5397V40.309H139.696V40.3093H139.696ZM136.346 39.2509C137.269 39.2509 137.994 38.9944 138.521 38.4817C139.048 37.9691 139.312 37.2508 139.312 36.3272V35.4314L137.828 35.4943C136.649 35.5373 135.8 35.7222 135.278 36.0518C134.757 36.3805 134.496 36.892 134.496 37.5859C134.496 38.1286 134.658 38.5423 134.983 38.8252C135.308 39.1091 135.762 39.2509 136.346 39.2509ZM141.656 30.3903H143.246L145.391 36.047C145.861 37.3384 146.153 38.2704 146.267 38.8439H146.338C146.416 38.5356 146.578 38.0097 146.825 37.2638C147.072 36.5184 147.881 34.2278 149.25 30.3903H150.841L146.633 41.6853C146.216 42.8016 145.729 43.5936 145.172 44.062C144.615 44.5292 143.931 44.7625 143.122 44.7625C142.669 44.7625 142.222 44.7113 141.781 44.609V43.4054C142.109 43.4777 142.475 43.5141 142.88 43.5141C143.899 43.5141 144.625 42.9349 145.06 41.7763L145.605 40.3647L141.656 30.3903ZM96.1969 31.312C96.6677 31.7067 97.6507 32.5357 97.6507 34.1134C97.6507 35.6478 96.7904 36.3754 95.9301 37.0591C95.6638 37.3285 95.3566 37.6199 95.3566 38.0768C95.3566 38.5323 95.6635 38.7816 95.8897 38.9685L96.6273 39.5483C97.5283 40.3162 98.3467 41.0221 98.3467 42.4542C98.3467 44.4043 96.4828 46.3745 92.9607 46.3745C89.9905 46.3745 88.5575 44.9434 88.5575 43.4072C88.5575 42.6607 88.9245 41.6031 90.1346 40.8761C91.4036 40.0877 93.1251 39.9851 94.0463 39.9213C93.7587 39.5483 93.4318 39.154 93.4318 38.5118C93.4318 38.1596 93.5346 37.9519 93.6366 37.7018C93.4104 37.7228 93.1854 37.7436 92.9804 37.7436C90.8101 37.7436 89.5813 36.1045 89.5813 34.487C89.5813 33.5324 90.0119 32.4737 90.8916 31.707C92.0594 30.732 93.452 30.5655 94.559 30.5655H98.7771L97.4662 31.3123H96.197V31.312H96.1969ZM94.7423 40.5243C94.5786 40.5026 94.4757 40.5026 94.2718 40.5026C94.0876 40.5026 92.98 40.545 92.1209 40.8361C91.6704 41.0008 90.3592 41.4987 90.3592 42.9726C90.3592 44.4449 91.7732 45.5046 93.9649 45.5046C95.9298 45.5046 96.9755 44.5482 96.9755 43.2631C96.9756 42.2028 96.2995 41.645 94.7423 40.5243ZM95.3366 36.5816C95.807 36.1039 95.8475 35.4407 95.8475 35.0668C95.8475 33.5734 94.9672 31.2497 93.2677 31.2497C92.7346 31.2497 92.1616 31.5191 91.8338 31.9346C91.4861 32.3702 91.3827 32.9298 91.3827 33.4698C91.3827 34.8597 92.1815 37.1629 93.9438 37.1629C94.4558 37.1629 95.0077 36.914 95.3366 36.5816ZM83.3029 40.1922C80.0521 40.1922 78.3139 37.6235 78.3139 35.3031C78.3139 32.5893 80.5014 30.2704 83.6108 30.2704C86.6152 30.2704 88.4966 32.6516 88.4966 35.1586C88.4969 37.6018 86.6369 40.1922 83.3029 40.1922ZM85.8586 38.5146C86.3501 37.8511 86.4728 37.0229 86.4728 36.2144C86.4728 34.391 85.614 30.9117 83.0782 30.9117C82.4036 30.9117 81.7291 31.1814 81.2384 31.6173C80.4408 32.3413 80.297 33.2531 80.297 34.1448C80.297 36.1939 81.299 39.5694 83.7739 39.5694C84.5712 39.5694 85.3893 39.1765 85.8586 38.5146ZM72.2197 40.1922C68.9683 40.1922 67.2299 37.6235 67.2299 35.3031C67.2299 32.5893 69.4183 30.2704 72.5267 30.2704C75.532 30.2704 77.4131 32.6516 77.4131 35.1586C77.4135 37.6018 75.5531 40.1922 72.2197 40.1922ZM74.776 38.5146C75.2667 37.8511 75.3897 37.0229 75.3897 36.2144C75.3897 34.391 74.5303 30.9117 71.9945 30.9117C71.3202 30.9117 70.645 31.1814 70.1547 31.6173C69.357 32.3413 69.2141 33.2531 69.2141 34.1448C69.2141 36.1939 70.2156 39.5694 72.6908 39.5694C73.4884 39.5694 74.3059 39.1765 74.776 38.5146ZM65.6679 39.8674L62.7277 40.5547C61.5348 40.7425 60.4662 40.9078 59.336 40.9078C53.6612 40.9078 51.5034 36.6801 51.5034 33.3687C51.5034 29.3291 54.5661 25.5815 59.8091 25.5815C60.9197 25.5815 61.9878 25.7477 62.9538 26.0186C64.4956 26.4561 65.2151 26.997 65.6676 27.3098L63.9607 28.9549L63.2415 29.1208L63.7553 28.2875C63.0567 27.6009 61.7809 26.3308 59.356 26.3308C56.1075 26.3308 53.6606 28.8309 53.6606 32.4749C53.6606 36.389 56.457 40.0751 60.9378 40.0751C62.2549 40.0751 62.9319 39.8048 63.5491 39.5543V36.2023L60.4454 36.3688L62.0894 35.4723H66.448L65.914 35.9928C65.769 36.1184 65.7491 36.1605 65.7081 36.3255C65.6867 36.5133 65.6674 37.1178 65.6674 37.3258V39.8674H65.6679V39.8674Z" stroke="#C8A45D" stroke-width="0.295487" mask="url(#path-4-outside-1_436_10807)"/>
<path d="M102.705 39.1934L102.705 39.1934L102.703 39.1932C102.36 39.1615 102.186 39.1148 102.088 39.0001C102.039 38.9431 102.004 38.8631 101.981 38.7435C101.958 38.6234 101.95 38.4687 101.95 38.2667V26.4834C101.951 26.4621 101.953 26.4406 101.955 26.4199L101.955 26.4179C101.957 26.3955 101.958 26.3741 101.96 26.3534C102.001 25.9952 102.071 25.7991 102.198 25.6463C102.33 25.489 102.528 25.3706 102.85 25.1806L103.084 25.0431H102.813H99.8721H99.8551L99.8398 25.0505L98.2975 25.8004L98.3298 25.9407H99.8265V38.7255C99.8265 38.9265 99.8072 39.0326 99.7358 39.1635C99.6742 39.2765 99.5751 39.4063 99.4118 39.62C99.3738 39.6698 99.3323 39.7241 99.287 39.7838L99.1971 39.9023H99.3459H102.985H103.006L103.023 39.8918L103.784 39.4348L103.968 39.3244L103.755 39.2982C103.579 39.2765 103.403 39.2606 103.228 39.245L103.21 39.2433C103.041 39.2282 102.873 39.2133 102.705 39.1934ZM111.098 39.5228L111.106 39.5182L111.113 39.5116L112.195 38.4779L112.111 38.3585C111.417 38.7092 110.675 39.0731 109.653 39.0731C107.777 39.0731 106.061 37.6094 105.536 35.0583L107.026 34.9408L107.037 34.9399L107.048 34.9355L111.845 32.97L111.907 32.9447L111.888 32.8805L111.887 32.8797C111.744 32.4001 111.472 31.4897 110.43 30.7938L110.43 30.7938L110.429 30.7931C109.803 30.3904 109.032 30.2019 108.285 30.2019C106.151 30.2019 103.536 31.7978 103.536 35.0526C103.536 36.62 104.176 38.424 105.648 39.4765C106.71 40.2547 107.751 40.2976 108.407 40.2976C109.027 40.2976 109.733 40.2137 110.421 39.8977C110.574 39.8271 110.731 39.7354 110.884 39.646C110.956 39.6035 111.028 39.5616 111.098 39.5228ZM109.114 33.2266L105.495 34.8191C105.489 34.7266 105.482 34.635 105.475 34.5443C105.457 34.3003 105.439 34.0629 105.439 33.8322C105.439 32.7341 105.815 32.0362 106.282 31.6122C106.752 31.1861 107.321 31.0315 107.713 31.0315C108.243 31.0315 108.731 31.2604 109.087 31.591C109.444 31.9226 109.661 32.3488 109.661 32.7361C109.661 32.8591 109.619 32.9421 109.536 33.0135C109.448 33.0894 109.311 33.1529 109.118 33.225L109.118 33.2249L109.114 33.2266ZM113.032 31.8557H113.106V31.7818V30.4911H113.478H113.552V30.4172V30.2757V30.2019H113.478H112.423H112.349V30.2757V30.4172V30.4911H112.423H112.795V31.7818V31.8557H112.869H113.032ZM114.795 31.7818V31.8557H114.869H115.016H115.09V31.7818V30.2758V30.2019H115.016H114.758H114.703L114.687 30.2541L114.382 31.2513L114.072 30.2538L114.055 30.2019H114.001H113.746H113.672V30.2758V31.7818V31.8557H113.746H113.895H113.969V31.7818V30.8842L114.248 31.8033L114.264 31.8557H114.319H114.447H114.502L114.517 31.8031L114.795 30.8813V31.7818Z" fill="#C8A45D" stroke="#C8A45D" stroke-width="0.147744"/>
<defs>
<clipPath id="clip0_436_10807">
<rect width="23.639" height="23.639" fill="white" transform="translate(18.9999 19.8677)"/>
</clipPath>
</defs>
</svg>
