<svg width="11" height="13" viewBox="0 0 11 13" fill="none" xmlns="http://www.w3.org/2000/svg">
<path d="M7.95228 1.89311V0.990891C7.95228 0.753768 7.75565 0.557129 7.51852 0.557129C7.2814 0.557129 7.08476 0.753768 7.08476 0.990891V1.85841H3.32551V0.990891C3.32551 0.753768 3.12887 0.557129 2.89175 0.557129C2.65462 0.557129 2.45798 0.753768 2.45798 0.990891V1.89311C0.896443 2.0377 0.138806 2.96884 0.0231357 4.3511C0.0115687 4.51882 0.150372 4.65762 0.31231 4.65762H10.098C10.2657 4.65762 10.4045 4.51304 10.3871 4.3511C10.2715 2.96884 9.51383 2.0377 7.95228 1.89311Z" fill="#B1B8C0"/>
<path d="M9.83193 5.52441H0.578349C0.260257 5.52441 0 5.78465 0 6.10274V9.66537C0 11.4004 0.867523 12.5571 2.89175 12.5571H7.51854C9.54276 12.5571 10.4103 11.4004 10.4103 9.66537V6.10274C10.4103 5.78465 10.15 5.52441 9.83193 5.52441ZM3.59155 10.3652C3.56263 10.3883 3.53371 10.4172 3.5048 10.4346C3.47009 10.4577 3.43539 10.4751 3.40069 10.4866C3.36599 10.504 3.33129 10.5155 3.29659 10.5213C3.2561 10.5271 3.2214 10.5329 3.18092 10.5329C3.10573 10.5329 3.03055 10.5155 2.96115 10.4866C2.88596 10.4577 2.82813 10.4172 2.77029 10.3652C2.66619 10.2553 2.60257 10.1049 2.60257 9.95454C2.60257 9.80417 2.66619 9.6538 2.77029 9.54392C2.82813 9.49187 2.88596 9.45138 2.96115 9.42246C3.06525 9.37619 3.18092 9.36463 3.29659 9.38776C3.33129 9.39355 3.36599 9.40511 3.40069 9.42246C3.43539 9.43403 3.47009 9.45138 3.5048 9.47451C3.53371 9.49765 3.56263 9.52078 3.59155 9.54392C3.69565 9.6538 3.75927 9.80417 3.75927 9.95454C3.75927 10.1049 3.69565 10.2553 3.59155 10.3652ZM3.59155 8.34095C3.48166 8.44505 3.33129 8.50867 3.18092 8.50867C3.03055 8.50867 2.88018 8.44505 2.77029 8.34095C2.66619 8.23106 2.60257 8.08069 2.60257 7.93032C2.60257 7.77995 2.66619 7.62958 2.77029 7.51969C2.93223 7.35776 3.1867 7.30571 3.40069 7.39824C3.47588 7.42716 3.5395 7.46764 3.59155 7.51969C3.69565 7.62958 3.75927 7.77995 3.75927 7.93032C3.75927 8.08069 3.69565 8.23106 3.59155 8.34095ZM5.61577 10.3652C5.50588 10.4693 5.35551 10.5329 5.20514 10.5329C5.05477 10.5329 4.9044 10.4693 4.79451 10.3652C4.69041 10.2553 4.62679 10.1049 4.62679 9.95454C4.62679 9.80417 4.69041 9.6538 4.79451 9.54392C5.0085 9.32993 5.40178 9.32993 5.61577 9.54392C5.71987 9.6538 5.78349 9.80417 5.78349 9.95454C5.78349 10.1049 5.71987 10.2553 5.61577 10.3652ZM5.61577 8.34095C5.58685 8.36408 5.55793 8.38722 5.52902 8.41035C5.49432 8.43349 5.45961 8.45084 5.42491 8.4624C5.39021 8.47975 5.35551 8.49132 5.32081 8.4971C5.28033 8.50289 5.24563 8.50867 5.20514 8.50867C5.05477 8.50867 4.9044 8.44505 4.79451 8.34095C4.69041 8.23106 4.62679 8.08069 4.62679 7.93032C4.62679 7.77995 4.69041 7.62958 4.79451 7.51969C4.84656 7.46764 4.91018 7.42716 4.98537 7.39824C5.19936 7.30571 5.45383 7.35776 5.61577 7.51969C5.71987 7.62958 5.78349 7.77995 5.78349 7.93032C5.78349 8.08069 5.71987 8.23106 5.61577 8.34095ZM7.63999 10.3652C7.5301 10.4693 7.37973 10.5329 7.22936 10.5329C7.07899 10.5329 6.92862 10.4693 6.81873 10.3652C6.71463 10.2553 6.65101 10.1049 6.65101 9.95454C6.65101 9.80417 6.71463 9.6538 6.81873 9.54392C7.03272 9.32993 7.426 9.32993 7.63999 9.54392C7.74409 9.6538 7.80771 9.80417 7.80771 9.95454C7.80771 10.1049 7.74409 10.2553 7.63999 10.3652ZM7.63999 8.34095C7.61107 8.36408 7.58216 8.38722 7.55324 8.41035C7.51854 8.43349 7.48384 8.45084 7.44914 8.4624C7.41443 8.47975 7.37973 8.49132 7.34503 8.4971C7.30455 8.50289 7.26406 8.50867 7.22936 8.50867C7.07899 8.50867 6.92862 8.44505 6.81873 8.34095C6.71463 8.23106 6.65101 8.08069 6.65101 7.93032C6.65101 7.77995 6.71463 7.62958 6.81873 7.51969C6.87657 7.46764 6.9344 7.42716 7.00959 7.39824C7.11369 7.35197 7.22936 7.34041 7.34503 7.36354C7.37973 7.36932 7.41443 7.38089 7.44914 7.39824C7.48384 7.40981 7.51854 7.42716 7.55324 7.45029L7.63999 7.51969C7.74409 7.62958 7.80771 7.77995 7.80771 7.93032C7.80771 8.08069 7.74409 8.23106 7.63999 8.34095Z" fill="#B1B8C0"/>
</svg>
