<svg width="15" height="12" viewBox="0 0 15 12" fill="none" xmlns="http://www.w3.org/2000/svg">
<path d="M10.745 0.212646H3.93648C1.89393 0.212646 0.532227 1.23392 0.532227 3.6169V8.38286C0.532227 10.7658 1.89393 11.7871 3.93648 11.7871H10.745C12.7875 11.7871 14.1492 10.7658 14.1492 8.38286V3.6169C14.1492 1.23392 12.7875 0.212646 10.745 0.212646ZM11.065 4.35903L8.93393 6.06116C8.48457 6.42201 7.91265 6.59903 7.34074 6.59903C6.76882 6.59903 6.1901 6.42201 5.74755 6.06116L3.61648 4.35903C3.39861 4.18201 3.36457 3.8552 3.53478 3.63733C3.7118 3.41945 4.0318 3.3786 4.24967 3.55562L6.38074 5.25775C6.89818 5.67307 7.77648 5.67307 8.29393 5.25775L10.425 3.55562C10.6429 3.3786 10.9697 3.41265 11.1399 3.63733C11.3169 3.8552 11.2829 4.18201 11.065 4.35903Z" fill="#C8A45D"/>
</svg>
