<svg width="32" height="30" viewBox="0 0 32 30" fill="none" xmlns="http://www.w3.org/2000/svg">
<path d="M16 8.875C18.4508 8.875 20.4375 6.88826 20.4375 4.4375C20.4375 1.98674 18.4508 0 16 0C13.5492 0 11.5625 1.98674 11.5625 4.4375C11.5625 6.88826 13.5492 8.875 16 8.875Z" fill="#C8A45D"/>
<path d="M31.9992 18.4375C31.9996 18.3005 31.9699 18.1652 31.9121 18.041L28.5 10.7295V8.5625C28.5 8.04475 28.0802 7.625 27.5625 7.625H21.4466C20.3491 9.49306 18.3188 10.75 16 10.75C13.6812 10.75 11.6509 9.49306 10.5534 7.625H4.4375C3.91975 7.625 3.5 8.04475 3.5 8.5625V10.7296L0.0879375 18.041C0.0301496 18.1652 0.000404064 18.3005 0.0008125 18.4375H0C0 20.8843 1.99069 22.875 4.4375 22.875C6.88431 22.875 8.875 20.8843 8.875 18.4375H8.87419C8.8746 18.3005 8.84485 18.1652 8.78706 18.041L5.70606 11.4389L10.6075 12.1329L11.564 28.9906C11.5921 29.4869 12.0028 29.8749 12.5 29.8749H15.0625V23.6874C15.0625 23.1697 15.4823 22.7499 16 22.7499C16.5177 22.7499 16.9375 23.1697 16.9375 23.6874V29.8749H19.5C19.9971 29.8749 20.4078 29.4869 20.436 28.9906L21.3925 12.1329L26.2939 11.4389L23.213 18.041C23.1552 18.1652 23.1254 18.3005 23.1259 18.4375H23.125C23.125 20.8843 25.1157 22.875 27.5625 22.875C30.0093 22.875 32 20.8843 32 18.4375H31.9992ZM6.90294 18.4375H1.97206L4.4375 13.1544L6.90294 18.4375ZM25.0971 18.4375L27.5625 13.1544L30.0279 18.4375H25.0971Z" fill="#C8A45D"/>
</svg>
