<svg width="14" height="14" viewBox="0 0 14 14" fill="none" xmlns="http://www.w3.org/2000/svg">
<path d="M13.1301 14.0001H0.525205C0.238093 14.0001 0 13.762 0 13.4749C0 13.1878 0.238093 12.9497 0.525205 12.9497H13.1301C13.4172 12.9497 13.6553 13.1878 13.6553 13.4749C13.6553 13.762 13.4172 14.0001 13.1301 14.0001Z" fill="#C8A45D"/>
<path d="M11.7451 1.03207C10.3865 -0.326461 9.05601 -0.361474 7.66247 1.03207L6.81514 1.8794C6.74511 1.94943 6.7171 2.06147 6.74511 2.15951C7.27732 4.01523 8.7619 5.49981 10.6176 6.03201C10.6456 6.03901 10.6736 6.04601 10.7017 6.04601C10.7787 6.04601 10.8487 6.018 10.9047 5.96198L11.7451 5.11466C12.4383 4.4284 12.7745 3.76314 12.7745 3.09087C12.7815 2.3976 12.4453 1.72534 11.7451 1.03207Z" fill="#C8A45D"/>
<path d="M9.35572 6.66868C9.15264 6.57064 8.95656 6.47261 8.76749 6.36056C8.61343 6.26953 8.46637 6.17149 8.31931 6.06645C8.20026 5.98942 8.06021 5.87737 7.92716 5.76533C7.91315 5.75833 7.86413 5.71631 7.80811 5.66029C7.57702 5.4642 7.31792 5.2121 7.08683 4.93199C7.06582 4.91798 7.03081 4.86897 6.98179 4.80594C6.91176 4.72191 6.79272 4.58185 6.68767 4.42079C6.60364 4.31575 6.5056 4.16169 6.41457 4.00763C6.30252 3.81856 6.20449 3.62948 6.10645 3.4334C6.0916 3.40162 6.07725 3.36999 6.06338 3.33855C5.96002 3.10513 5.65561 3.03689 5.47515 3.21739L1.46365 7.2289C1.37261 7.31994 1.28858 7.495 1.26757 7.61405L0.889426 10.2961C0.819398 10.7723 0.95245 11.2205 1.24657 11.5216C1.49866 11.7667 1.8488 11.8997 2.22695 11.8997C2.31098 11.8997 2.39501 11.8927 2.47905 11.8787L5.1681 11.5006C5.29414 11.4796 5.4692 11.3955 5.55323 11.3045L9.55971 7.29802C9.7415 7.11623 9.67294 6.80433 9.43653 6.70342C9.40992 6.69207 9.38296 6.68045 9.35572 6.66868Z" fill="#C8A45D"/>
</svg>
