<svg width="41" height="40" viewBox="0 0 41 40" fill="none" xmlns="http://www.w3.org/2000/svg">
<g clip-path="url(#clip0_441_20564)">
<path d="M20.5062 8.12372C18.3775 8.12372 16.64 6.3134 16.6309 4.07551C16.6309 1.83762 18.3502 0.00909711 20.488 0C22.635 0 24.3725 1.81032 24.3816 4.04821C24.3816 6.2861 22.6622 8.11462 20.5244 8.12372H20.5062ZM20.5062 1.30089C19.078 1.30089 17.9317 2.54719 17.9317 4.06641C17.9317 5.58563 19.0871 6.81374 20.5062 6.81374C21.9345 6.81374 23.0807 5.56743 23.0807 4.04821C23.0807 2.529 21.9254 1.30089 20.5062 1.30089Z" fill="#C8A45D"/>
<path d="M20.6243 34.8601C20.2695 34.8601 19.9693 34.569 19.9693 34.2142L19.9238 24.2438C19.9238 23.8799 20.2149 23.5888 20.5697 23.5888C20.9336 23.5888 21.2247 23.8799 21.2247 24.2347L21.2702 34.2051C21.2702 34.569 20.9791 34.8601 20.6243 34.8601Z" fill="#C8A45D"/>
<path d="M17.0204 34.8692C16.6656 34.8692 16.3745 34.5781 16.3654 34.2233L16.2835 14.6373C10.6069 13.6912 7.2592 12.0901 5.75818 9.61565C5.0668 8.46942 5.39429 6.99568 6.50414 6.24972C7.47753 5.59473 8.82391 5.74938 9.69723 6.61361C12.5901 9.44281 15.4193 9.61565 16.5019 9.55197C16.8839 9.53378 17.2751 9.51558 17.6572 9.51558L23.3702 9.49739C23.7523 9.49739 24.1434 9.50649 24.5255 9.52468C25.6081 9.57017 28.4373 9.37913 31.312 6.53173C32.1853 5.66751 33.5317 5.50376 34.5051 6.14965C35.624 6.88652 35.9606 8.36025 35.2783 9.51558C33.7955 12.0082 30.4568 13.6275 24.7893 14.6191L24.8712 34.2051C24.8712 34.378 24.8075 34.5417 24.6802 34.6691C24.5619 34.7874 24.3891 34.8601 24.2162 34.8601L17.0113 34.8874L17.0204 34.8692ZM7.85051 7.15034C7.63218 7.15034 7.41385 7.21402 7.23191 7.33228C6.70428 7.68707 6.54053 8.39664 6.87712 8.94247C8.1962 11.1167 11.5167 12.5904 17.0386 13.4455C17.357 13.491 17.5935 13.7639 17.5935 14.0914L17.6754 33.5774L23.5794 33.5592L23.4975 14.0732C23.4975 13.7548 23.725 13.4819 24.0434 13.4273C29.5562 12.5358 32.8676 11.0348 34.1685 8.85149C34.496 8.30567 34.3322 7.59609 33.7955 7.24131C33.3315 6.932 32.6765 7.03207 32.2399 7.46873C29.0013 10.68 25.7354 10.8983 24.48 10.8347C24.1161 10.8165 23.7523 10.8074 23.3884 10.8074L17.6754 10.8256C17.3115 10.8256 16.9476 10.8438 16.5837 10.862C15.3283 10.9347 12.0625 10.7346 8.79661 7.55061C8.5328 7.28679 8.18711 7.15943 7.85961 7.15943L7.85051 7.15034Z" fill="#C8A45D"/>
<path d="M34.487 13.8731C34.1231 13.8731 33.832 13.582 33.832 13.2181V9.63381C33.832 9.26993 34.1231 8.97882 34.487 8.97882C34.8509 8.97882 35.142 9.26993 35.142 9.63381V13.2181C35.142 13.582 34.8509 13.8731 34.487 13.8731Z" fill="#C8A45D"/>
<path d="M37.262 21.8513H31.7036C31.4944 21.8513 31.2942 21.7512 31.176 21.5784C31.0577 21.4055 31.0213 21.1872 31.0941 20.987L33.8687 12.9725C33.9597 12.7087 34.2053 12.5358 34.4873 12.5358C34.7693 12.5358 35.015 12.7087 35.1059 12.9725L37.8806 20.987C37.9533 21.1872 37.9169 21.4055 37.7987 21.5784C37.6804 21.7512 37.4803 21.8513 37.271 21.8513H37.262ZM32.6224 20.5504H36.3522L34.4873 15.174L32.6224 20.5504Z" fill="#C8A45D"/>
<path d="M38.3179 25.0807H30.6581C29.6938 25.0807 28.9023 24.2984 28.9023 23.325V22.2879C28.9023 21.3236 29.6847 20.5322 30.6581 20.5322H38.3179C39.2821 20.5322 40.0736 21.3145 40.0736 22.2879V23.325C40.0736 24.2893 39.2912 25.0807 38.3179 25.0807ZM30.6581 21.8512C30.4125 21.8512 30.2123 22.0514 30.2123 22.297V23.3341C30.2123 23.5797 30.4125 23.7798 30.6581 23.7798H38.3179C38.5635 23.7798 38.7636 23.5797 38.7636 23.3341V22.297C38.7636 22.0514 38.5635 21.8512 38.3179 21.8512H30.6581Z" fill="#C8A45D"/>
<path d="M36.0613 27.3368H32.9137C31.3126 27.3368 30.0117 26.0359 30.0117 24.4257C30.0117 24.0619 30.3028 23.7708 30.6667 23.7708H38.3265C38.6904 23.7708 38.9815 24.0619 38.9815 24.4257C38.9815 26.0268 37.6806 27.3368 36.0704 27.3368H36.0613ZM31.4491 25.0807C31.7038 25.6448 32.2587 26.0359 32.9137 26.0359H36.0613C36.7163 26.0359 37.2712 25.6448 37.5259 25.0807H31.4491Z" fill="#C8A45D"/>
<path d="M6.52218 13.8731C6.15829 13.8731 5.86719 13.582 5.86719 13.2181V9.63381C5.86719 9.26993 6.15829 8.97882 6.52218 8.97882C6.88606 8.97882 7.17717 9.26993 7.17717 9.63381V13.2181C7.17717 13.582 6.88606 13.8731 6.52218 13.8731Z" fill="#C8A45D"/>
<path d="M9.29711 21.8513H3.73877C3.52954 21.8513 3.3294 21.7512 3.21114 21.5784C3.09288 21.4055 3.05649 21.1872 3.12927 20.987L5.90388 12.9725C5.99486 12.7087 6.24048 12.5358 6.52249 12.5358C6.8045 12.5358 7.05012 12.7087 7.14109 12.9725L9.91571 20.987C9.98849 21.1872 9.9521 21.4055 9.83384 21.5784C9.71557 21.7512 9.51544 21.8513 9.3062 21.8513H9.29711ZM4.65758 20.5504H8.3783L6.51339 15.174L4.64848 20.5504H4.65758Z" fill="#C8A45D"/>
<path d="M10.353 25.0807H2.69324C1.72895 25.0807 0.9375 24.2984 0.9375 23.325V22.2879C0.9375 21.3236 1.71985 20.5322 2.69324 20.5322H10.353C11.3173 20.5322 12.1088 21.3145 12.1088 22.2879V23.325C12.1088 24.2893 11.3264 25.0807 10.353 25.0807ZM2.69324 21.8512C2.44762 21.8512 2.24748 22.0514 2.24748 22.297V23.3341C2.24748 23.5797 2.44762 23.7798 2.69324 23.7798H10.353C10.5986 23.7798 10.7988 23.5797 10.7988 23.3341V22.297C10.7988 22.0514 10.5986 21.8512 10.353 21.8512H2.69324Z" fill="#C8A45D"/>
<path d="M8.09645 27.3368H4.94885C3.34776 27.3368 2.04688 26.0359 2.04688 24.4257C2.04688 24.0619 2.33798 23.7708 2.70187 23.7708H10.3525C10.7164 23.7708 11.0075 24.0619 11.0075 24.4257C11.0075 26.0268 9.70664 27.3368 8.10555 27.3368H8.09645ZM3.48422 25.0807C3.73894 25.6448 4.29386 26.0359 4.94885 26.0359H8.09645C8.75145 26.0359 9.30637 25.6448 9.56109 25.0807H3.48422Z" fill="#C8A45D"/>
<path d="M33.8696 40H7.2878C6.92392 40 6.63281 39.7089 6.63281 39.345V38.8538C6.63281 37.4528 7.76995 36.3157 9.17091 36.3157H12.9735C13.11 34.7692 14.4199 33.5502 16.0119 33.5502H25.1636C26.7465 33.5502 28.0565 34.7692 28.2021 36.3157H32.0047C33.4056 36.3157 34.5427 37.4528 34.5427 38.8538V39.345C34.5427 39.7089 34.2516 40 33.8878 40H33.8696ZM7.9428 38.6991H33.2055C33.1236 38.0987 32.6142 37.6257 31.9865 37.6257H27.5471C27.1832 37.6257 26.8921 37.3346 26.8921 36.9707V36.5977C26.8921 35.6334 26.1097 34.8511 25.1454 34.8511H15.9937C15.0294 34.8511 14.2471 35.6334 14.2471 36.5977V36.9707C14.2471 37.3346 13.956 37.6257 13.5921 37.6257H9.15271C8.52501 37.6257 8.00648 38.0896 7.9337 38.6991H7.9428Z" fill="#C8A45D"/>
<path d="M38.7732 40H2.3757C2.01181 40 1.7207 39.7089 1.7207 39.345C1.7207 38.9811 2.01181 38.69 2.3757 38.69H38.7732C39.1371 38.69 39.4282 38.9811 39.4282 39.345C39.4282 39.7089 39.1371 40 38.7732 40Z" fill="#C8A45D"/>
<path d="M24.6813 37.6257H13.6101C13.2462 37.6257 12.9551 37.3346 12.9551 36.9707C12.9551 36.6068 13.2462 36.3157 13.6101 36.3157H24.6813C25.0451 36.3157 25.3362 36.6068 25.3362 36.9707C25.3362 37.3346 25.0451 37.6257 24.6813 37.6257Z" fill="#C8A45D"/>
<path d="M34.2685 10.4708C34.2685 10.4708 34.2321 10.4708 34.2048 10.4708C31.5666 10.2343 30.8297 7.59611 30.7934 7.48695C30.7024 7.14126 30.9025 6.77737 31.2573 6.6864C31.603 6.59543 31.9578 6.79557 32.0579 7.14126C32.0851 7.22313 32.6037 9.01526 34.323 9.16991C34.6778 9.2063 34.9416 9.5156 34.9143 9.87949C34.8871 10.2161 34.5959 10.4708 34.2685 10.4708Z" fill="#C8A45D"/>
<path d="M6.76048 10.4708C6.42389 10.4708 6.14188 10.2161 6.11459 9.87947C6.0782 9.52468 6.35111 9.20628 6.7059 9.16989C8.42525 9.01524 8.95289 7.22311 8.97108 7.14124C9.07115 6.79555 9.42594 6.58632 9.77163 6.68638C10.1173 6.77735 10.3265 7.14124 10.2265 7.48693C10.1992 7.59609 9.45323 10.2343 6.82416 10.4708C6.80597 10.4708 6.78777 10.4708 6.76048 10.4708Z" fill="#C8A45D"/>
</g>
<defs>
<clipPath id="clip0_441_20564">
<rect width="39.1267" height="40" fill="white" transform="translate(0.9375)"/>
</clipPath>
</defs>
</svg>
