<svg width="48" height="48" viewBox="0 0 48 48" fill="none" xmlns="http://www.w3.org/2000/svg">
<circle cx="24" cy="24" r="23.5714" stroke="#C8A45D" stroke-width="0.857143"/>
<g clip-path="url(#clip0_1364_1717)">
<path d="M31.8261 23.2539H16.174C15.7623 23.2539 15.4286 23.5876 15.4286 23.9992C15.4286 24.4109 15.7623 24.7446 16.174 24.7446H31.8261C32.2378 24.7446 32.5715 24.4109 32.5715 23.9992C32.5715 23.5876 32.2378 23.2539 31.8261 23.2539Z" fill="#C8A45D"/>
<path d="M16.1739 19.5278H31.8261C32.2377 19.5278 32.5714 19.1941 32.5714 18.7824C32.5714 18.3708 32.2377 18.0371 31.8261 18.0371H16.1739C15.7623 18.0371 15.4286 18.3708 15.4286 18.7824C15.4286 19.1941 15.7623 19.5278 16.1739 19.5278Z" fill="#C8A45D"/>
<path d="M31.8261 28.4727H16.174C15.7623 28.4727 15.4286 28.8064 15.4286 29.218C15.4286 29.6297 15.7623 29.9633 16.174 29.9633H31.8261C32.2378 29.9633 32.5715 29.6297 32.5715 29.218C32.5715 28.8064 32.2378 28.4727 31.8261 28.4727Z" fill="#C8A45D"/>
</g>
<defs>
<clipPath id="clip0_1364_1717">
<rect width="17.1429" height="17.1429" fill="white" transform="translate(15.4285 15.4277)"/>
</clipPath>
</defs>
</svg>
