<svg width="48" height="48" viewBox="0 0 48 48" fill="none" xmlns="http://www.w3.org/2000/svg">
<circle cx="24" cy="24" r="23.5" stroke="#C8A45D"/>
<path d="M31.6714 25.8365L30.6816 24.1402C30.4626 23.7703 30.2699 23.0575 30.2699 22.6244V20.9371C30.2699 17.6618 27.686 15 24.5152 15C21.3356 15.009 18.7516 17.6618 18.7516 20.9371V22.6154C18.7516 23.0485 18.5589 23.7613 18.3487 24.1312L17.3589 25.8275C16.9823 26.4862 16.8947 27.2351 17.1312 27.8847C17.3677 28.5434 17.902 29.0667 18.6027 29.3013C19.5487 29.6262 20.5035 29.8608 21.4757 30.0322C21.5721 30.0502 21.6684 30.0593 21.7648 30.0773C21.8874 30.0953 22.0188 30.1134 22.1502 30.1314C22.3779 30.1675 22.6057 30.1946 22.8421 30.2126C23.394 30.2668 23.9546 30.2938 24.5152 30.2938C25.067 30.2938 25.6188 30.2668 26.1619 30.2126C26.3633 30.1946 26.5648 30.1766 26.7575 30.1495C26.9152 30.1314 27.0728 30.1134 27.2305 30.0863C27.3269 30.0773 27.4232 30.0593 27.5196 30.0412C28.5006 29.8788 29.4728 29.6262 30.4188 29.3013C31.0933 29.0667 31.6101 28.5434 31.8553 27.8757C32.1006 27.199 32.0305 26.4591 31.6714 25.8365ZM25.1546 22.1732C25.1546 22.5522 24.8568 22.859 24.4889 22.859C24.121 22.859 23.8232 22.5522 23.8232 22.1732V19.3761C23.8232 18.9971 24.121 18.6904 24.4889 18.6904C24.8568 18.6904 25.1546 18.9971 25.1546 19.3761V22.1732Z" fill="#C8A45D"/>
<path d="M26.9763 31.2043C26.6084 32.251 25.6361 32.9999 24.4974 32.9999C23.8055 32.9999 23.1223 32.7112 22.6405 32.1969C22.3602 31.9262 22.15 31.5653 22.0273 31.1953C22.1412 31.2134 22.2551 31.2224 22.3777 31.2404C22.5792 31.2675 22.7894 31.2946 22.9996 31.3126C23.4989 31.3577 24.0069 31.3848 24.515 31.3848C25.0142 31.3848 25.5135 31.3577 26.004 31.3126C26.188 31.2946 26.3719 31.2855 26.5471 31.2585C26.6872 31.2404 26.8274 31.2224 26.9763 31.2043Z" fill="#C8A45D"/>
</svg>
