<svg width="15" height="15" viewBox="0 0 15 15" fill="none" xmlns="http://www.w3.org/2000/svg">
<g clip-path="url(#clip0_1375_5120)">
<path d="M11.3124 2.80124H10.6883C10.5566 2.16091 10.2082 1.58555 9.70173 1.17215C9.19531 0.75874 8.56185 0.532564 7.90811 0.531738L6.77336 0.531738C6.11963 0.532564 5.48617 0.75874 4.97974 1.17215C4.47332 1.58555 4.12491 2.16091 3.99322 2.80124H3.36911C2.617 2.80214 1.89595 3.10132 1.36412 3.63314C0.832301 4.16496 0.533127 4.88601 0.532227 5.63812L0.532227 7.34025H14.1492V5.63812C14.1483 4.88601 13.8492 4.16496 13.3173 3.63314C12.7855 3.10132 12.0645 2.80214 11.3124 2.80124ZM5.17563 2.80124C5.29256 2.47051 5.50881 2.18399 5.79481 1.98087C6.0808 1.77774 6.42257 1.66794 6.77336 1.66649H7.90811C8.2589 1.66794 8.60067 1.77774 8.88667 1.98087C9.17266 2.18399 9.38892 2.47051 9.50584 2.80124H5.17563Z" fill="#C8A45D"/>
<path d="M7.90811 9.04247C7.90811 9.19295 7.84834 9.33727 7.74193 9.44367C7.63553 9.55007 7.49121 9.60985 7.34074 9.60985C7.19026 9.60985 7.04595 9.55007 6.93954 9.44367C6.83314 9.33727 6.77336 9.19295 6.77336 9.04247V8.4751H0.532227V11.312C0.533127 12.0641 0.832301 12.7851 1.36412 13.317C1.89595 13.8488 2.617 14.148 3.36911 14.1489H11.3124C12.0645 14.148 12.7855 13.8488 13.3173 13.317C13.8492 12.7851 14.1483 12.0641 14.1492 11.312V8.4751H7.90811V9.04247Z" fill="#C8A45D"/>
</g>
<defs>
<clipPath id="clip0_1375_5120">
<rect width="13.617" height="13.617" fill="white" transform="translate(0.532227 0.531738)"/>
</clipPath>
</defs>
</svg>
