<svg width="58" height="58" viewBox="0 0 58 58" fill="none" xmlns="http://www.w3.org/2000/svg">
<g clip-path="url(#clip0_1364_1709)">
<path fill-rule="evenodd" clip-rule="evenodd" d="M43.4789 16.3243V34.9307C41.5847 36.2809 39.6563 37.5673 37.6875 38.7841V13.0963C40.368 13.8728 42.4228 15.0034 43.4789 16.3243ZM20.3192 13.0968V47.5462C18.4193 48.3054 16.4852 49.0119 14.5278 49.6729V16.3248C15.584 15.0039 17.6387 13.8734 20.3192 13.0968ZM31.9019 12.0766V42.1455C30.002 43.1709 28.0736 44.1388 26.1105 45.0544V12.0829C27.046 12.0076 28.0161 11.9668 29.0034 11.9668C29.9906 11.9668 30.9607 12.0071 31.8962 12.0829L31.9019 12.0766Z" fill="#C8A45D"/>
<path fill-rule="evenodd" clip-rule="evenodd" d="M29.0029 6.0625C39.5699 6.0625 48.1334 9.48134 48.1334 13.694C48.1334 15.1252 47.1405 16.4639 45.4188 17.6112C45.4359 17.4836 45.4416 17.3617 45.4416 17.2346C45.4416 13.4278 38.0777 10.3447 28.9972 10.3447C19.9168 10.3447 12.5529 13.4273 12.5529 17.2346C12.5529 17.3622 12.5643 17.4898 12.5757 17.6112C10.854 16.4639 9.86108 15.1252 9.86108 13.694C9.86108 9.48134 18.4246 6.0625 28.9915 6.0625H29.0029Z" fill="#C8A45D"/>
<path fill-rule="evenodd" clip-rule="evenodd" d="M29.0029 0C41.2916 0 51.2561 4.47357 51.2561 9.99035C51.2561 11.5957 50.4124 13.108 48.9144 14.4524C49.1496 13.9311 49.2703 13.3919 49.2703 12.8418C49.2703 8.08432 40.1955 4.23093 29.0034 4.23093C17.8112 4.23093 8.73599 8.08379 8.73599 12.8413C8.73599 13.3919 8.86238 13.9305 9.09183 14.4519C7.59388 13.1075 6.75012 11.5952 6.75012 9.98983C6.75012 4.47357 16.7142 0 29.0029 0Z" fill="#C8A45D"/>
<path fill-rule="evenodd" clip-rule="evenodd" d="M58 27.6641C44.6381 48.0207 25.3067 58.1261 0 57.9991C21.9891 52.5926 41.3205 42.481 58 27.6641Z" fill="#C8A45D"/>
</g>
<defs>
<clipPath id="clip0_1364_1709">
<rect width="58" height="58" fill="white"/>
</clipPath>
</defs>
</svg>
