<svg width="122" height="122" viewBox="0 0 122 122" fill="none" xmlns="http://www.w3.org/2000/svg">
<g clip-path="url(#clip0_1364_5081)">
<path fill-rule="evenodd" clip-rule="evenodd" d="M91.4556 34.3357V73.4734C87.4713 76.3134 83.4151 79.0193 79.2738 81.5788V27.5458C84.912 29.1792 89.2341 31.5572 91.4556 34.3357ZM42.7404 27.5469V100.009C38.7441 101.606 34.6759 103.092 30.5586 104.483V34.3368C32.7801 31.5583 37.1022 29.1803 42.7404 27.5469ZM67.104 25.4009V88.6492C63.1077 90.8061 59.0514 92.8421 54.9222 94.7681V25.4141C56.8899 25.2557 58.9305 25.1699 61.0071 25.1699C63.0837 25.1699 65.1244 25.2546 67.092 25.4141L67.104 25.4009Z" fill="#C8A45D"/>
<path fill-rule="evenodd" clip-rule="evenodd" d="M61.0059 12.7495C83.2329 12.7495 101.246 19.9409 101.246 28.8019C101.246 31.8124 99.1572 34.6283 95.5357 37.0415C95.5716 36.7731 95.5836 36.5168 95.5836 36.2495C95.5836 28.242 80.0941 21.7569 60.9939 21.7569C41.8937 21.7569 26.4041 28.2409 26.4041 36.2495C26.4041 36.5179 26.4281 36.7863 26.4521 37.0415C22.8305 34.6283 20.7419 31.8124 20.7419 28.8019C20.7419 19.9409 38.7548 12.7495 60.9819 12.7495H61.0059Z" fill="#C8A45D"/>
<path fill-rule="evenodd" clip-rule="evenodd" d="M61.006 0C86.8546 0 107.815 9.40991 107.815 21.0142C107.815 24.391 106.04 27.572 102.889 30.3999C103.384 29.3033 103.637 28.1692 103.637 27.0121C103.637 17.0049 84.5492 8.89955 61.0071 8.89955C37.465 8.89955 18.3757 17.0038 18.3757 27.011C18.3757 28.1692 18.6415 29.3022 19.1242 30.3988C15.9733 27.5709 14.1985 24.3899 14.1985 21.0131C14.1985 9.40991 35.1574 0 61.006 0Z" fill="#C8A45D"/>
<path fill-rule="evenodd" clip-rule="evenodd" d="M122 58.1897C93.8939 101.009 53.2313 122.265 0 121.998C46.2529 110.626 86.9156 89.3563 122 58.1897Z" fill="#C8A45D"/>
</g>
<defs>
<clipPath id="clip0_1364_5081">
<rect width="122" height="122" fill="white"/>
</clipPath>
</defs>
</svg>
