<svg width="1363" height="575" viewBox="0 0 1363 575" fill="none" xmlns="http://www.w3.org/2000/svg">
<g opacity="0.01">
<path d="M38.9016 664.689C38.8975 664.701 38.882 664.705 38.8722 664.697C31.8392 658.52 23.9175 652.169 15.4555 645.661C-8.22632 627.446 -36.0473 608.025 -59.9387 587.836C-66.0163 582.702 -71.8495 577.515 -77.2809 572.293C-80.5136 569.191 -84.62 572.115 -81.9263 575.696C-80.4432 577.667 -78.892 579.636 -77.2809 581.601C-72.0416 588.011 -66.1735 594.403 -59.9387 600.69C-34.2659 626.642 -2.58528 651.162 15.4555 670.67C16.9356 672.272 18.3255 673.838 19.6126 675.371C21.9642 678.171 25.3728 679.944 29.0293 679.944H41.5073C46.5657 679.944 49.1115 674.077 45.4361 670.602C43.3683 668.646 41.1955 666.673 38.9311 664.681C38.9213 664.672 38.9058 664.676 38.9016 664.689Z" fill="white"/>
<path d="M190.817 618.521C166.244 598.035 140.397 580.309 118.077 565.778C103.163 556.068 89.8371 547.79 79.5156 541.066C74.2588 537.643 69.7704 534.604 66.2601 532.002C55.991 524.388 46.9618 517.07 38.9107 510.364C36.1862 508.093 33.584 505.893 31.0866 503.762C26.6157 499.291 22.3194 494.803 18.2327 490.245L15.4733 487.153C-12.4873 455.752 -36.4137 423.46 -59.9209 387.833C-65.7017 379.048 -71.4824 370.071 -77.2631 360.85C-86.205 346.599 -95.2341 331.789 -104.49 316.246C-104.598 316.065 -104.875 316.141 -104.875 316.351V372.217C-104.875 372.911 -104.744 373.599 -104.49 374.245C-96.7361 394.068 -87.6371 413.54 -77.2631 432.21C-71.8317 441.99 -66.0509 451.543 -59.9209 460.817C-49.7566 476.203 -38.6317 490.803 -26.6161 504.373C-11.5093 523.095 1.9558 537.189 15.4733 548.995C23.1752 555.736 30.877 561.727 38.9107 567.42C51.3105 576.205 64.4612 584.238 79.5331 593.163C87.5144 597.896 96.0196 602.873 105.241 608.322C109.607 610.907 113.886 613.858 118.095 617.002C129.848 625.821 141.026 636.3 152.203 645.609C160.392 654.232 168.481 662.865 176.471 671.516C181.451 676.907 188.448 679.996 195.787 679.996H206.198C226.316 679.996 235.366 655.871 219.19 643.911C218.339 643.282 217.561 642.616 216.803 641.876C208.465 633.74 199.737 625.955 190.817 618.521Z" fill="white"/>
<path d="M79.5156 622.145C79.5156 622.149 79.5114 622.151 79.5083 622.149C76.9958 620.457 74.4659 618.799 71.9185 617.159C61.2652 610.313 50.2276 603.938 38.8932 597.948C31.2088 593.879 23.3847 590.002 15.4558 586.282C-9.01194 574.808 -34.4577 564.94 -59.9384 556.103C-62.8512 555.093 -65.0615 558.413 -62.9173 560.629C-61.9518 561.626 -60.9581 562.633 -59.9384 563.648C-40.2385 583.26 -10.5663 605.772 15.4558 626.503C23.7864 633.139 31.7502 639.601 38.8932 645.713C40.7269 647.268 42.4908 648.805 44.2024 650.342C52.5651 657.746 60.6219 665.18 68.3877 672.614C73.2878 677.305 79.7877 679.979 86.5711 679.979H106.91C122.498 679.979 129.983 661.433 118.077 651.372C105.662 640.895 92.8107 631.117 79.5228 622.141C79.5197 622.139 79.5156 622.141 79.5156 622.145Z" fill="white"/>
<path d="M322.045 603.859C322.049 603.861 322.053 603.856 322.05 603.853C294.18 569.61 264.32 536.433 235.281 503.15C218.777 484.219 204.055 466.981 190.817 451.123C158.839 412.824 135.716 382.82 118.077 357.461C115.343 353.522 109.842 356.291 111.793 360.671C113.784 365.14 115.883 369.571 118.077 373.965C137.428 412.754 164.288 448.766 190.817 482.263C195.864 488.637 200.911 494.942 205.871 501.142C232.539 534.377 277.563 593.616 322.045 650.9C328.197 658.816 334.327 666.687 340.397 674.457C343.121 677.943 347.298 679.978 351.722 679.978C363.116 679.978 369.913 667.404 363.36 658.083C359.39 652.435 355.33 646.829 351.193 641.259C341.819 628.62 332.06 616.173 322.04 603.866C322.037 603.862 322.041 603.857 322.045 603.859Z" fill="white"/>
<path d="M-78.6081 -21.3957L-77.2983 -19.8239C-71.6922 -13.135 -65.8765 -6.53339 -59.9561 -0.00166321C-35.139 27.2779 -8.15636 53.1777 15.4382 78.9553L15.9097 79.4792C23.8211 88.1242 31.4531 96.7516 38.8755 105.414C53.1615 122.093 66.6266 138.893 79.4979 156.148C85.628 164.374 91.6358 172.722 97.5388 181.175C103.843 193.592 110.742 206.586 118.077 219.702C140.065 259.084 165.842 299.305 190.817 326.497C191.582 327.336 192.835 326.342 192.233 325.378C191.758 324.617 191.285 323.855 190.817 323.091C159.485 272.148 143.47 216.349 118.077 163.553C114.567 156.271 110.882 149.023 106.952 141.88C104.21 136.903 98.0278 122.197 90.8673 104.96C87.4093 94.0446 83.6196 82.7102 79.5154 71.1312C68.373 39.8872 54.8381 6.79202 38.893 -25.2903C31.5753 -40.0128 23.7687 -54.5258 15.4556 -68.5498L14.8968 -69.5104C8.34569 -80.4948 1.24972 -91.1869 -6.24044 -101.436C-8.30754 -104.264 -11.6146 -105.906 -15.1179 -105.906C-23.9969 -105.906 -29.3366 -96.0079 -24.7187 -88.4243C-23.1814 -85.8998 -21.6635 -83.3546 -20.1719 -80.7924C2.70655 -41.4798 9.72728 -21.7624 15.4731 0.889023C16.8276 6.24883 18.1119 11.7648 19.5243 17.7501C20.0728 20.0745 17.0573 21.625 15.4731 19.838C-3.82517 -1.81797 -31.0872 -28.4164 -59.9211 -58.2807C-65.6669 -64.2186 -71.4477 -70.2788 -77.2634 -76.4612C-86.2214 -85.9922 -95.1795 -95.7475 -103.983 -105.744C-104.084 -105.858 -104.228 -105.924 -104.38 -105.924C-104.673 -105.924 -104.91 -105.687 -104.91 -105.395V-54.3618C-104.91 -53.9589 -104.774 -53.5677 -104.525 -53.2509C-96.2298 -42.7897 -87.55 -32.1713 -78.6081 -21.3957Z" fill="white"/>
<path d="M79.5241 -7.92169C79.5188 -7.91643 79.5174 -7.90845 79.5204 -7.90166C95.5328 28.0015 107.442 63.7475 118.077 98.4982C137.567 162.139 152.796 222.444 181.368 274.226C184.232 279.448 187.411 285.106 190.817 291.132C221.921 346.302 273.563 432.821 322.062 501.02C332 514.974 341.78 528.142 351.228 540.14C361.165 552.732 370.718 564.014 379.695 573.48C380.065 573.873 380.702 573.448 380.48 572.956L379.695 571.21C371.068 552.104 361.567 529.889 351.228 505.77C342.146 484.516 332.401 461.812 322.062 438.48C305.943 402.084 288.356 364.168 269.459 327.894C243.262 277.649 220.349 207.389 190.834 133.235C170.697 82.7103 147.505 30.3517 118.094 -18.706C106.306 -38.371 93.5044 -57.4947 79.5328 -75.78C72.7956 -84.5845 65.7797 -93.1991 58.4636 -101.581C56.0288 -104.37 52.4947 -105.941 48.7923 -105.941C38.1565 -105.941 31.9336 -93.8096 37.7612 -84.9125C38.1459 -84.3251 38.529 -83.7376 38.9104 -83.15C55.115 -58.197 68.3341 -33.0344 79.5278 -7.94169C79.5308 -7.9349 79.5294 -7.92695 79.5241 -7.92169Z" fill="white"/>
<path d="M-77.2983 63.1935C-77.2983 63.1991 -77.2959 63.2044 -77.2918 63.2081C-71.5132 68.3931 -65.7346 73.5781 -59.9561 78.7282C-34.2483 101.694 -8.68031 124.45 15.4382 146.979C23.4194 154.437 31.261 161.877 38.8755 169.299C53.2488 183.306 66.906 197.207 79.4979 211.057C82.3152 214.153 87.3083 210.843 85.3516 207.143C83.4309 203.51 81.4795 199.914 79.4979 196.352C67.1505 174.207 53.6155 153.389 38.8755 133.252C31.3658 122.966 23.5417 112.854 15.4382 102.847C-7.37047 74.6764 -32.5368 47.1873 -59.9561 18.4058C-65.6495 12.433 -71.4302 6.40772 -77.2983 0.295151C-86.1528 -8.89117 -95.2343 -18.2521 -104.525 -27.8227C-104.664 -27.968 -104.91 -27.8696 -104.91 -27.6685V37.6738C-104.91 38.0046 -104.77 38.3199 -104.525 38.5424C-95.5159 46.7837 -86.4191 55.0075 -77.3048 63.179C-77.3007 63.1827 -77.2983 63.188 -77.2983 63.1935Z" fill="white"/>
<path d="M-77.2895 326.637C-77.2933 326.637 -77.2956 326.641 -77.2936 326.644C-72.3351 334.571 -67.2719 342.55 -62.0517 350.598L-59.9385 353.829C-37.6538 388.042 -14.426 420.142 15.4557 451.229C22.8258 458.895 30.6149 466.51 38.8931 474.072C51.2405 485.354 64.6881 496.531 79.5155 507.656C91.4263 516.616 104.245 525.523 118.077 534.429C121.374 536.56 125.361 532.122 123.063 528.939C121.433 526.682 119.771 524.337 118.077 521.907C106.638 505.508 93.7665 485.284 79.5155 462.441C67.0109 442.444 53.4759 420.421 38.8931 397.211C31.3484 385.195 23.5418 372.865 15.4557 360.326C-7.54501 324.663 -32.7113 287.324 -59.9385 250.893C-65.6319 243.279 -71.4301 235.699 -77.2807 228.19C-86.1527 216.838 -95.2517 205.608 -104.508 194.623C-104.639 194.468 -104.892 194.561 -104.892 194.764V281.174C-104.892 281.655 -104.759 282.128 -104.508 282.539C-95.6025 297.05 -86.6272 311.735 -77.2854 326.629C-77.2834 326.633 -77.2857 326.637 -77.2895 326.637Z" fill="white"/>
<path d="M379.713 -55.0322C379.705 -55.0322 379.701 -55.0239 379.705 -55.0177C382.06 -51.5297 384.449 -48.0765 386.926 -44.6233C402.085 -23.4913 418.222 -3.04038 435.093 16.8342C449.326 33.5827 464.87 47.2923 481.077 59.8143C510.033 82.1863 541.102 100.838 570.635 126.616C572.608 128.817 574.547 131.017 576.468 133.218C584.012 141.845 591.173 150.473 598.036 159.117C622.644 190.134 643.322 221.396 663.336 253.373C669.257 262.822 675.107 272.322 680.993 281.91L681.377 282.539C690.284 297.052 699.261 311.74 708.604 326.637C713.564 334.566 718.629 342.547 723.851 350.598L725.964 353.829C748.249 388.042 771.476 420.142 801.358 451.229C808.728 458.895 816.517 466.51 824.796 474.072C837.143 485.354 850.59 496.531 865.418 507.656C877.329 516.616 890.148 525.523 903.979 534.429C907.276 536.56 911.264 532.122 908.965 528.939C907.335 526.682 905.674 524.337 903.979 521.907C892.54 505.508 879.669 485.284 865.418 462.441C852.913 442.444 839.378 420.421 824.796 397.211C817.251 385.195 809.444 372.865 801.358 360.326C778.357 324.663 753.191 287.324 725.964 250.893C720.27 243.279 714.472 235.699 708.622 228.19C699.75 216.838 690.651 205.608 681.395 194.623L681.01 194.169C675.212 187.305 669.327 180.529 663.354 173.857C658.289 168.182 653.154 162.593 647.985 157.092C632.826 135.872 615.903 116.923 598.054 99.5461C590.981 92.665 583.785 86.046 576.485 79.6191C544.927 51.8331 511.675 27.8543 481.094 4.25978C447.877 -21.3781 417.803 -46.6143 396.409 -75.8673C391.117 -85.2283 385.528 -94.467 379.713 -103.566C378.765 -105.026 377.143 -105.906 375.403 -105.906H355.553C351.175 -105.906 348.684 -100.834 351.263 -97.2963C361.267 -83.5564 370.154 -69.1533 379.72 -55.0466C379.725 -55.0405 379.72 -55.0322 379.713 -55.0322Z" fill="white"/>
<path d="M663.336 488.009C667.056 492.305 670.951 496.409 675.09 500.304C676.854 501.963 678.827 503.675 681.01 505.438L681.395 505.753C688.45 511.411 697.637 517.594 708.622 524.143C713.983 527.321 719.781 530.605 725.964 533.958C741.028 542.118 753.834 524.043 741.812 511.838C736.522 506.468 731.216 501.093 725.964 495.781C720.078 489.843 714.263 483.975 708.622 478.281C698.894 468.484 689.638 459.21 681.395 450.932L681.01 450.548L673.186 442.689C669.746 439.248 666.48 435.668 663.354 432.018C635.777 399.534 620.286 359.208 598.054 324.035C596.285 321.231 592.317 323.098 593.209 326.291C594.799 331.976 596.406 337.743 598.054 343.56C612.41 394.312 629.735 449.063 663.354 488.026L663.336 488.009Z" fill="white"/>
<path d="M598.036 -42.8335C598.036 -42.8166 598.043 -42.8004 598.054 -42.7881C618.378 -21.0164 640.464 0.528419 663.336 21.8812C669.187 27.3302 675.072 32.7616 680.993 38.1756L681.377 38.5249C690.389 46.7681 699.488 54.9939 708.604 63.1673C714.385 68.3542 720.166 73.5412 725.946 78.6932C751.654 101.659 777.222 124.415 801.341 146.944C809.322 154.402 817.164 161.842 824.778 169.264C839.151 183.271 852.809 197.172 865.4 211.022C868.218 214.118 873.211 210.808 871.254 207.108C869.333 203.475 867.382 199.879 865.4 196.317C853.053 174.172 839.518 153.354 824.778 133.217C817.268 122.931 809.444 112.819 801.341 102.812C778.532 74.6415 753.366 47.1524 725.946 18.3709C720.253 12.398 714.472 6.37276 708.604 0.260193C699.75 -8.92613 690.651 -18.2871 681.377 -27.8751L680.993 -28.2768C676.155 -33.2716 671.283 -38.3014 666.323 -43.436L663.336 -46.5272C646.743 -63.734 630.624 -80.7613 615.133 -97.5653C610.203 -102.913 603.157 -105.976 595.884 -105.976C575.049 -105.976 562.874 -82.6798 576.468 -66.8908C583.378 -58.8635 590.585 -50.8537 598.019 -42.8788C598.03 -42.8665 598.036 -42.8503 598.036 -42.8335Z" fill="white"/>
<path d="M681.001 -53.7222C681 -53.7243 681.003 -53.7262 681.005 -53.7243L681.377 -53.2508C689.673 -42.7896 698.352 -32.1712 707.294 -21.3956L708.604 -19.8238C714.21 -13.1348 720.026 -6.53327 725.946 -0.00154877C750.763 27.278 777.746 53.1778 801.34 78.9554L801.812 79.4794C809.723 88.1243 817.355 96.7517 824.778 105.414C839.064 122.093 852.529 138.894 865.4 156.148C871.53 164.374 877.538 172.722 883.441 181.175C889.746 193.592 896.644 206.586 903.979 219.702C925.967 259.084 951.745 299.305 976.719 326.497C977.485 327.336 978.738 326.342 978.136 325.378C977.66 324.617 977.188 323.855 976.719 323.092C945.405 272.148 929.373 216.349 903.979 163.553C900.469 156.271 896.784 149.023 892.854 141.88C890.113 136.903 883.93 122.198 876.77 104.96C873.312 94.0447 869.522 82.7103 865.418 71.1313C854.275 39.8873 840.74 6.79214 824.795 -25.2901C817.478 -40.0127 809.671 -54.5257 801.358 -68.5497L800.799 -69.5102C794.248 -80.4947 787.152 -91.1868 779.662 -101.436C777.595 -104.264 774.288 -105.906 770.784 -105.906C761.905 -105.906 756.566 -96.0078 761.184 -88.4241C762.721 -85.8997 764.239 -83.3545 765.73 -80.7923C788.609 -41.4797 795.63 -21.7623 801.375 0.889137C802.73 6.24894 804.014 11.7649 805.427 17.7502C805.975 20.0745 802.96 21.6252 801.375 19.8381C782.077 -1.81786 754.815 -28.4163 725.981 -58.2806C720.235 -64.2185 714.455 -70.2787 708.639 -76.4611C701.366 -84.2015 694.058 -92.1253 686.836 -100.195C683.608 -103.803 679.005 -105.889 674.163 -105.889C660.63 -105.889 652.73 -90.8354 660.805 -79.976C661.649 -78.8407 662.499 -77.704 663.354 -76.5659C669.026 -69.0262 674.907 -61.4167 680.998 -53.7201C681 -53.7182 681.003 -53.72 681.001 -53.7222Z" fill="white"/>
<path d="M663.354 650.769C663.344 650.774 663.333 650.77 663.328 650.76C648.086 614.598 638.309 581.161 632.983 559.247C620.74 508.844 625.054 454.058 607.781 404.895C604.69 396.111 601.442 387.536 598.036 379.153C591.382 362.788 584.169 347.158 576.468 332.103C548.769 277.911 515.132 231.281 481.077 184.703C458.46 153.773 435.651 122.861 414.292 89.7485C403.255 71.568 391.693 53.4573 379.713 35.6435C370.474 21.9339 360.973 8.41635 351.246 -4.8392C346.251 -11.6504 341.169 -18.4091 336.051 -25.0631C331.406 -31.1058 326.76 -36.9739 322.08 -42.6848C305.379 -63.087 288.432 -81.4542 271.138 -98.0655C265.809 -103.184 258.668 -105.941 251.279 -105.941H194.009C190.285 -105.941 188.324 -101.497 190.834 -98.7458C238.006 -46.8762 281.615 5.27274 322.08 58.1028C331.982 71.044 341.71 84.0027 351.246 97.0137C360.921 110.217 370.404 123.455 379.713 136.745C416.161 188.877 449.85 241.812 481.094 295.934C490.228 311.757 499.152 327.65 507.885 343.665C517.333 364.413 526.03 385.335 533.784 406.45C552.105 456.363 550.166 491.973 569.36 544.506C571.543 550.497 573.935 556.54 576.485 562.582C582.79 577.532 590.107 592.551 598.054 607.361C609.451 628.605 622.123 649.394 634.919 668.838C639.526 675.837 647.38 679.979 655.76 679.979H680.394C680.744 679.979 681.028 679.695 681.028 679.344C681.028 679.19 680.971 679.042 680.87 678.926C677.799 675.431 674.741 671.898 671.719 668.349C670.86 667.341 670.145 666.218 669.597 665.012C667.426 660.235 665.361 655.486 663.379 650.778C663.375 650.769 663.363 650.764 663.354 650.769Z" fill="white"/>
<path d="M470.668 605.457C462.459 587.19 454.496 568.974 447.807 551.475C429.399 503.412 412.441 452.329 396.024 400.634C391.257 380.27 385.825 358.859 379.678 336.749C371.487 307.339 362.039 276.671 351.211 245.514C342.408 220.138 332.698 194.431 322.045 168.793C288.356 87.7225 245.149 7.35088 190.799 -59.6255C179.846 -73.1102 168.45 -86.0676 156.581 -98.3684C151.867 -103.253 145.335 -105.924 138.546 -105.924H80.9418C79.1126 -105.924 78.1871 -103.689 79.4805 -102.396C93.26 -88.6514 106.114 -74.872 118.042 -61.075C146.893 -27.7178 170.628 5.83147 190.782 39.503C254.614 146.176 282.418 254.229 322.027 362.247C330.969 386.61 340.505 410.973 351.193 435.301C355.192 444.4 359.349 453.499 363.698 462.598C369.164 477.897 374.508 493.423 379.66 509.28L381.215 514.118C390.506 543.092 403.028 573.445 417.209 602.768C428.945 627.009 444.995 649.87 453.937 675.088C454.98 678.03 457.785 679.961 460.906 679.961H469.264C485.005 679.961 495.141 661.748 488.642 647.41C486.009 641.6 483.507 635.707 481.042 629.82C477.601 621.595 474.213 613.369 470.65 605.422L470.668 605.457Z" fill="white"/>
<path d="M588.553 659.038C584.17 654.131 580.17 649.223 576.45 644.316C542.552 599.432 534.011 553.693 521.193 495.221C512.862 457.236 503.257 416.491 486.77 374.507C484.919 369.826 483.015 365.128 481.059 360.378C454.95 297.436 417.96 229.813 379.678 170.574C370.229 155.956 360.694 141.827 351.211 128.432C341.378 114.495 331.598 101.345 322.045 89.1544C314.464 79.482 303.276 88.0084 309.188 98.7826C313.471 106.59 317.761 114.602 322.045 122.791C331.842 141.496 341.605 161.126 351.211 181.332C360.938 201.765 370.456 222.775 379.678 244.012C398.854 288.232 416.598 333.36 431.565 376.131C435.372 387.029 443.214 414.553 453.326 448.417C462.267 478.316 470.93 510.852 481.059 542.987C493.424 582.229 507.989 620.913 527.951 653.642C531.411 659.315 535.074 664.974 538.92 670.618C542.967 676.557 549.747 679.996 556.934 679.996H593.425C598.791 679.996 601.605 673.631 598.019 669.639C594.823 666.094 591.662 662.566 588.553 659.038Z" fill="white"/>
<path d="M351.237 567.664C351.231 567.664 351.226 567.662 351.223 567.657C341.724 554.491 331.946 541.378 322.062 528.439C272.935 464.17 221.397 404.319 190.817 363.033C189.629 361.444 188.459 359.854 187.341 358.3C166.541 329.658 144.483 300.702 118.077 270.087C107.232 257.512 95.6527 244.659 83.1306 231.42C81.9605 230.18 80.7555 228.923 79.5155 227.648C68.4779 216.296 54.4016 203.076 38.8931 189.052C31.3484 182.223 23.4719 175.202 15.4557 168.112C-10.2695 145.39 -37.4791 122.005 -59.9385 102.078C-64.4793 98.0616 -68.8279 94.167 -72.9146 90.4645L-77.2807 86.535C-87.0783 77.7678 -96.1074 69.9961 -104.508 62.9579C-104.661 62.8322 -104.892 62.9415 -104.892 63.14V140.835C-104.892 141.192 -104.754 141.535 -104.508 141.793C-95.0072 151.782 -85.8907 161.789 -77.2807 171.727C-71.238 178.695 -65.4398 185.646 -59.9385 192.527C-49.7741 205.259 -40.5878 217.798 -32.6764 230.041C-17.5696 253.373 -1.83412 281.805 15.4557 312.019C22.948 325.117 30.7372 338.565 38.8931 352.083C51.4675 372.935 64.9152 393.928 79.5155 414.134L81.716 417.155C93.295 432.996 105.538 448.364 118.095 463.297C122.027 467.976 125.991 472.615 129.977 477.205C132.441 480.042 134.654 483.079 136.65 486.263C149.868 507.352 168.982 533.278 190.834 559.264C206.171 577.504 223.242 561.286 209.746 541.645C203.314 532.285 197.015 523.112 190.834 514.258C180.216 499.046 169.947 484.76 159.974 472.099C146.177 452.329 131.909 431.319 118.095 409.069C112.646 400.285 107.267 391.308 102.01 382.122C95.0764 370.001 87.2523 356.833 79.533 343.473C63.1163 315.11 47.2062 285.927 41.4429 264.358C35.4875 236.171 55.3097 253.286 79.533 281.491C92.2122 296.266 106.079 314.08 118.095 330.042C133.551 350.581 145.933 368.045 148.657 371.94C160.097 388.304 174.487 406.083 190.834 424.84C228.261 467.802 275.956 515.952 322.08 564.294C331.912 574.598 341.675 584.902 351.246 595.171C360.973 605.597 370.491 615.971 379.713 626.258C383.959 630.999 390.884 626.083 387.459 620.718C384.926 616.75 382.342 612.774 379.713 608.793C370.668 595.103 361.116 581.344 351.251 567.671C351.247 567.667 351.242 567.664 351.237 567.664Z" fill="white"/>
<path d="M824.804 664.689C824.8 664.701 824.785 664.705 824.775 664.697C817.742 658.52 809.82 652.169 801.358 645.661C777.676 627.446 749.855 608.025 725.964 587.836C719.886 582.702 714.053 577.515 708.622 572.293C705.389 569.191 701.282 572.115 703.976 575.696C705.459 577.667 707.01 579.636 708.622 581.601C713.861 588.011 719.729 594.403 725.964 600.69C751.637 626.642 783.317 651.162 801.358 670.67C802.838 672.272 804.228 673.838 805.515 675.371C807.867 678.171 811.275 679.944 814.932 679.944H827.419C832.474 679.944 835.018 674.081 831.345 670.608C829.275 668.651 827.1 666.675 824.834 664.681C824.824 664.672 824.808 664.676 824.804 664.689Z" fill="white"/>
<path d="M708.595 645.923C708.599 645.923 708.601 645.919 708.599 645.916C707.186 644.085 705.791 642.218 704.378 640.317C696.344 629.402 688.607 617.438 681.36 604.916L680.975 604.253C674.688 593.372 668.785 582.073 663.319 570.756C659.537 562.886 643.935 566.891 646.178 575.329C650.556 591.799 656.122 608.118 663.319 624.809C668.349 636.475 674.182 648.351 680.975 660.576L681.36 661.274L681.447 661.449C683.24 664.646 686.723 669.135 691.466 674.656C694.411 678.084 698.736 679.996 703.255 679.996H719.957C726.505 679.996 730.098 672.471 725.929 667.422C720.272 660.578 714.441 653.577 708.592 645.93C708.59 645.927 708.592 645.923 708.595 645.923Z" fill="white"/>
<path d="M725.964 619.735C725.964 619.729 725.962 619.724 725.958 619.72C720.022 612.614 714.208 605.438 708.621 598.07C703.4 591.189 698.37 584.134 693.654 576.834C689.445 570.337 685.376 563.665 681.394 556.959L681.01 556.313C674.985 546.131 669.169 535.809 663.353 525.593C660.706 520.923 654.649 523.62 656.436 528.681C658.717 535.139 661.015 541.253 663.353 547.074C668.925 560.923 674.705 573.114 681.01 584.396L681.394 585.059C683.525 588.849 685.708 592.534 687.961 596.132C694.231 606.156 701.321 615.57 708.621 624.826C714.35 632.091 720.235 639.252 725.964 646.517C730.749 652.577 735.429 658.707 739.865 665.029C742.23 668.405 744.603 671.858 746.978 675.381C748.917 678.256 752.149 679.996 755.617 679.996H757.159C765.057 679.996 769.499 671.017 764.473 664.924C751.865 649.645 738.647 634.907 725.969 619.751C725.966 619.746 725.964 619.741 725.964 619.735Z" fill="white"/>
<path d="M976.728 618.521C976.722 618.521 976.717 618.519 976.712 618.515C952.142 598.032 926.297 580.307 903.979 565.778C889.065 556.068 875.739 547.79 865.418 541.066C860.161 537.643 855.673 534.604 852.162 532.002C841.893 524.387 832.864 517.07 824.813 510.363C822.088 508.093 819.486 505.893 816.989 503.762C812.518 499.291 808.222 494.802 804.135 490.244L801.375 487.153C773.415 455.752 749.488 423.46 725.981 387.833C720.2 379.048 714.42 370.071 708.639 360.85C699.697 346.599 690.668 331.789 681.412 316.246L681.028 315.599C675.264 305.924 669.396 295.987 663.371 285.735L656.42 273.877C643.793 244.606 622.818 218.933 598.071 194.588C591.138 187.777 583.925 181.07 576.503 174.416C545.695 146.805 511.517 120.154 481.112 90.971C463.298 73.8733 446.776 55.9023 433.014 36.377C417.069 13.7605 399.622 -11.4233 379.748 -33.9525C370.771 -44.1168 361.323 -53.7223 351.28 -62.3148C345.231 -67.4982 338.599 -60.8485 343.093 -54.2702L351.28 -42.2831L379.748 -0.612778L481.129 147.888L492.481 164.497C517.333 200.91 546.464 237.096 576.52 267.38C583.681 274.575 590.876 281.439 598.089 287.901L600.429 289.996C621.753 308.806 643.13 318.778 663.388 338.862C663.462 338.935 663.536 339.008 663.609 339.081C669.468 344.894 673.357 352.309 676.131 360.082C677.705 364.493 679.346 368.89 681.045 373.267L681.429 374.245C689.184 394.067 698.283 413.54 708.656 432.21C714.088 441.99 719.869 451.543 725.999 460.817C736.163 476.203 747.288 490.803 759.303 504.373C774.41 523.095 787.875 537.189 801.393 548.995C809.095 555.736 816.797 561.726 824.83 567.42C837.23 576.205 850.381 584.238 865.453 593.163C873.434 597.895 881.939 602.873 891.16 608.322C895.527 610.906 899.805 613.858 904.014 617.002C915.768 625.821 926.945 636.3 938.122 645.608C946.311 654.232 954.401 662.865 962.391 671.515C967.371 676.907 974.367 679.996 981.707 679.996H992.118C1012.24 679.996 1021.29 655.871 1005.11 643.911C1004.26 643.281 1003.48 642.615 1002.72 641.876C994.387 633.741 985.661 625.958 976.743 618.527C976.739 618.523 976.733 618.521 976.728 618.521Z" fill="white"/>
<path d="M865.426 622.145C865.421 622.15 865.413 622.151 865.407 622.147C862.896 620.455 860.367 618.798 857.821 617.159C847.167 610.313 836.13 603.938 824.795 597.948C817.111 593.879 809.287 590.002 801.358 586.282C776.89 574.808 751.444 564.94 725.964 556.103C723.051 555.093 720.841 558.413 722.985 560.629C723.95 561.626 724.944 562.633 725.964 563.648C745.664 583.26 775.336 605.772 801.358 626.503C809.688 633.139 817.652 639.601 824.795 645.713C826.629 647.268 828.393 648.805 830.104 650.342C838.467 657.746 846.524 665.18 854.29 672.614C859.19 677.305 865.69 679.979 872.473 679.979H892.825C908.408 679.979 915.891 661.439 903.997 651.372C891.583 640.896 878.732 631.118 865.445 622.143C865.439 622.139 865.431 622.14 865.426 622.145Z" fill="white"/>
<path d="M1107.95 603.859C1107.95 603.861 1107.95 603.856 1107.95 603.853C1080.08 569.61 1050.22 536.433 1021.18 503.15C1004.68 484.219 989.957 466.981 976.719 451.123C944.741 412.824 921.618 382.82 903.979 357.461C901.245 353.522 895.744 356.291 897.695 360.671C899.686 365.14 901.785 369.571 903.979 373.965C923.33 412.754 950.19 448.766 976.719 482.263C981.766 488.637 986.813 494.942 991.773 501.142C1018.44 534.377 1063.46 593.616 1107.95 650.9C1114.1 658.816 1120.23 666.687 1126.3 674.457C1129.02 677.943 1133.2 679.978 1137.62 679.978C1149.02 679.978 1155.82 667.404 1149.26 658.083C1145.29 652.435 1141.23 646.829 1137.1 641.259C1127.72 628.62 1117.96 616.173 1107.94 603.866C1107.94 603.862 1107.94 603.857 1107.95 603.859Z" fill="white"/>
<path d="M865.427 -7.92169C865.421 -7.91643 865.42 -7.90845 865.423 -7.90166C881.435 28.0015 893.345 63.7475 903.979 98.4982C923.452 162.139 938.699 222.444 967.271 274.226C970.135 279.448 973.314 285.106 976.719 291.132C1007.82 346.302 1059.47 432.821 1107.96 501.02C1117.9 514.974 1127.68 528.142 1137.13 540.14C1147.07 552.732 1156.62 564.014 1165.6 573.48C1165.97 573.873 1166.6 573.448 1166.38 572.956L1165.6 571.21C1156.97 552.104 1147.47 529.889 1137.13 505.77C1128.05 484.516 1118.3 461.812 1107.96 438.48C1091.84 402.084 1074.26 364.168 1055.36 327.894C1029.16 277.649 1006.25 207.389 976.737 133.235C956.6 82.7103 933.407 30.3517 903.997 -18.706C892.208 -38.371 879.407 -57.4947 865.435 -75.78C858.698 -84.5845 851.682 -93.1991 844.366 -101.581C841.931 -104.37 838.397 -105.941 834.695 -105.941C824.059 -105.941 817.836 -93.8096 823.664 -84.9124C824.048 -84.3251 824.431 -83.7376 824.813 -83.15C841.017 -58.197 854.237 -33.0344 865.43 -7.94169C865.433 -7.93489 865.432 -7.92695 865.427 -7.92169Z" fill="white"/>
<path d="M1433.88 157.092C1433.87 157.092 1433.87 157.089 1433.86 157.084C1418.71 135.868 1401.79 116.921 1383.94 99.5461C1376.87 92.6651 1369.67 86.046 1362.37 79.6191C1330.81 51.8331 1297.56 27.8543 1266.98 4.25979C1233.76 -21.3781 1203.69 -46.6143 1182.29 -75.8673C1177 -85.2283 1171.41 -94.467 1165.6 -103.566C1164.65 -105.026 1163.03 -105.906 1161.29 -105.906H1141.44C1137.06 -105.906 1134.57 -100.834 1137.15 -97.2963C1147.15 -83.5517 1156.04 -69.1435 1165.61 -55.0322C1167.97 -51.5393 1170.37 -48.0813 1172.85 -44.6233C1188 -23.4913 1204.14 -3.04037 1221.01 16.8342C1235.25 33.5827 1250.79 47.2923 1267 59.8143C1295.95 82.1864 1327.02 100.838 1356.55 126.616C1358.53 128.817 1360.47 131.017 1362.39 133.218C1369.93 141.845 1377.09 150.473 1383.96 159.117C1408.56 190.134 1429.24 221.396 1449.26 253.373C1454.33 261.476 1466.91 257.915 1466.91 248.353V202.386C1466.91 197.08 1465.04 191.938 1461.58 187.914C1457.52 183.182 1453.41 178.494 1449.26 173.857C1444.19 168.184 1439.06 162.597 1433.89 157.097C1433.89 157.094 1433.88 157.092 1433.88 157.092Z" fill="white"/>
<path d="M1442.3 273.859C1442.29 273.859 1442.29 273.856 1442.28 273.851C1429.66 244.584 1408.68 218.914 1383.94 194.571C1377.01 187.759 1369.79 181.053 1362.37 174.399C1331.56 146.788 1297.38 120.137 1266.98 90.9537C1249.16 73.856 1232.64 55.885 1218.88 36.3597C1202.94 13.7432 1185.49 -11.4406 1165.61 -33.9698C1156.66 -44.1342 1147.19 -53.7396 1137.15 -62.3322C1131.1 -67.5156 1124.47 -60.8658 1128.96 -54.2876L1137.15 -42.3004L1165.61 -0.630112L1267 147.87L1278.35 164.479C1303.2 200.893 1332.33 237.079 1362.39 267.363C1369.55 274.558 1376.74 281.421 1383.96 287.883L1386.3 289.979C1407.62 308.788 1429 318.761 1449.26 338.845C1451.98 341.539 1454.68 344.414 1457.35 347.527C1457.75 347.997 1458.05 348.54 1458.24 349.128C1459.91 354.174 1466.91 352.931 1466.91 347.618V318.409C1466.91 316.559 1466.41 314.743 1465.47 313.153C1460.17 304.245 1454.78 295.113 1449.26 285.718L1442.31 273.866C1442.31 273.862 1442.3 273.859 1442.3 273.859Z" fill="white"/>
<path d="M1383.94 -2.19335C1383.94 -2.18987 1383.93 -2.18797 1383.93 -2.19019C1376.79 -8.10901 1369.69 -14.377 1362.37 -21.3956C1348.12 -35.0877 1333.01 -51.7838 1315.02 -74.8195C1309.83 -81.4571 1304.87 -88.1164 1300.1 -94.7881C1295.16 -101.694 1287.24 -105.906 1278.75 -105.906C1260.8 -105.906 1248.42 -87.9398 1256.95 -72.144C1260 -66.4942 1263.33 -60.8321 1266.98 -55.1544C1282.57 -30.8788 1303.9 -6.30624 1333.99 18.7902C1343.37 26.6143 1352.85 34.6655 1362.37 42.8738C1369.57 49.0911 1376.76 55.3958 1383.94 61.7878C1406.29 81.6973 1428.44 102.375 1449.24 123.28C1455.67 129.747 1466.89 125.221 1466.89 116.102V75.0488C1466.89 67.1992 1463.42 59.7376 1457.33 54.7877C1454.57 52.5425 1451.87 50.3783 1449.24 48.2878C1423.32 27.682 1403.43 13.9732 1383.95 -2.1965C1383.94 -2.19872 1383.94 -2.19682 1383.94 -2.19335Z" fill="white"/>
<path d="M1449.24 -46.4747C1432.64 -63.6815 1416.53 -80.7088 1401.03 -97.5128C1396.11 -102.86 1389.06 -105.924 1381.79 -105.924C1360.95 -105.924 1348.78 -82.6273 1362.37 -66.8383C1369.29 -58.8046 1376.5 -50.7884 1383.94 -42.8072C1404.27 -21.0289 1426.36 0.522255 1449.24 21.8813C1455.97 28.1551 1466.89 23.3547 1466.89 14.1494V-18.1719C1466.89 -24.6193 1464.39 -30.8131 1459.9 -35.4455C1457.36 -38.0697 1454.8 -40.7124 1452.22 -43.3835L1449.24 -46.4747Z" fill="white"/>
<path d="M1449.26 650.769C1449.25 650.774 1449.23 650.77 1449.23 650.76C1433.99 614.598 1424.21 581.161 1418.88 559.247C1406.64 508.844 1410.96 454.058 1393.68 404.895C1390.59 396.111 1387.34 387.536 1383.94 379.153C1377.28 362.788 1370.07 347.158 1362.37 332.103C1334.67 277.911 1301.03 231.281 1266.98 184.703C1244.36 153.773 1221.55 122.861 1200.19 89.7485C1189.16 71.568 1177.6 53.4573 1165.61 35.6435C1156.38 21.9339 1146.88 8.41635 1137.15 -4.8392C1132.15 -11.6504 1127.09 -18.4091 1121.95 -25.0631C1117.31 -31.1058 1112.66 -36.9739 1107.98 -42.6848C1091.28 -63.0899 1074.34 -81.4594 1057.04 -98.0725C1051.71 -103.187 1044.57 -105.941 1037.19 -105.941H979.911C976.187 -105.941 974.226 -101.497 976.736 -98.7458C1023.91 -46.8762 1067.52 5.27274 1107.98 58.1028C1117.88 71.044 1127.61 84.0027 1137.15 97.0137C1146.82 110.217 1156.31 123.455 1165.61 136.745C1202.06 188.877 1235.75 241.812 1267 295.934C1276.13 311.757 1285.05 327.65 1293.79 343.665C1303.23 364.413 1311.93 385.335 1319.69 406.45C1338.01 456.363 1336.07 491.973 1355.26 544.506C1357.44 550.497 1359.84 556.54 1362.39 562.582C1368.69 577.532 1376.01 592.551 1383.96 607.361C1395.35 628.605 1408.02 649.394 1420.82 668.838C1425.43 675.837 1433.28 679.979 1441.66 679.979H1466.3C1466.65 679.979 1466.93 679.695 1466.93 679.344C1466.93 679.19 1466.87 679.042 1466.77 678.926C1463.7 675.431 1460.64 671.897 1457.62 668.347C1456.76 667.34 1456.05 666.219 1455.5 665.014C1453.33 660.236 1451.26 655.487 1449.28 650.778C1449.28 650.769 1449.26 650.764 1449.26 650.769Z" fill="white"/>
<path d="M1256.57 605.457C1248.36 587.19 1240.4 568.974 1233.71 551.475C1215.3 503.412 1198.34 452.329 1181.93 400.634C1177.16 380.27 1171.73 358.859 1165.58 336.749C1157.39 307.339 1147.94 276.671 1137.11 245.514C1128.31 220.138 1118.6 194.431 1107.95 168.793C1074.26 87.7225 1031.05 7.35088 976.702 -59.6255C965.749 -73.1102 954.352 -86.0676 942.483 -98.3684C937.769 -103.253 931.237 -105.924 924.449 -105.924H866.844C865.015 -105.924 864.089 -103.689 865.383 -102.396C879.162 -88.6514 892.016 -74.872 903.944 -61.075C932.796 -27.7178 956.53 5.83147 976.684 39.503C1040.52 146.176 1068.32 254.229 1107.93 362.247C1116.87 386.61 1126.41 410.973 1137.1 435.301C1141.09 444.4 1145.25 453.499 1149.6 462.598C1155.07 477.897 1160.41 493.423 1165.56 509.28L1167.12 514.118C1176.41 543.092 1188.93 573.445 1203.11 602.768C1214.85 627.009 1230.9 649.87 1239.84 675.088C1240.88 678.03 1243.69 679.961 1246.81 679.961H1255.17C1270.91 679.961 1281.04 661.748 1274.54 647.41C1271.91 641.6 1269.41 635.707 1266.94 629.82C1263.5 621.595 1260.12 613.369 1256.55 605.422L1256.57 605.457Z" fill="white"/>
<path d="M1374.46 659.038C1370.07 654.131 1366.07 649.223 1362.35 644.316C1328.45 599.432 1319.91 553.693 1307.09 495.221C1298.76 457.236 1289.16 416.491 1272.67 374.507C1270.82 369.826 1268.92 365.128 1266.96 360.378C1240.85 297.436 1203.86 229.813 1165.58 170.574C1156.13 155.956 1146.6 141.827 1137.11 128.432C1127.28 114.495 1117.5 101.345 1107.95 89.1544C1100.37 79.482 1089.18 88.0084 1095.09 98.7826C1099.37 106.59 1103.66 114.602 1107.95 122.791C1117.74 141.496 1127.51 161.126 1137.11 181.332C1146.84 201.765 1156.36 222.775 1165.58 244.012C1184.76 288.232 1202.5 333.36 1217.47 376.131C1221.27 387.029 1229.12 414.553 1239.23 448.417C1248.17 478.316 1256.83 510.852 1266.96 542.987C1279.33 582.229 1293.89 620.913 1313.85 653.642C1317.31 659.315 1320.98 664.974 1324.82 670.618C1328.87 676.557 1335.65 679.996 1342.84 679.996H1379.33C1384.69 679.996 1387.51 673.631 1383.92 669.639C1380.73 666.094 1377.56 662.566 1374.46 659.038Z" fill="white"/>
<path d="M1137.14 567.656C1137.13 567.66 1137.13 567.66 1137.12 567.654C1127.62 554.49 1117.85 541.377 1107.96 528.439C1058.84 464.17 1007.3 404.319 976.719 363.033C975.531 361.444 974.361 359.854 973.243 358.3C952.443 329.658 930.386 300.702 903.979 270.087C893.134 257.512 881.555 244.659 869.033 231.42C867.863 230.18 866.658 228.923 865.418 227.648C854.38 216.296 840.304 203.076 824.795 189.052C817.251 182.223 809.374 175.202 801.358 168.112C775.633 145.39 748.423 122.005 725.964 102.078C721.423 98.0616 717.092 94.167 712.988 90.4645L708.621 86.535C698.824 77.7678 689.795 69.9961 681.394 62.9579L681.01 62.6436C674.81 57.4741 668.942 52.7063 663.353 48.2703C637.436 27.6622 617.544 13.9526 598.054 -2.21954C590.911 -8.14 583.803 -14.4098 576.485 -21.4305C562.234 -35.1226 547.127 -51.8187 529.139 -74.8544C523.95 -81.492 518.985 -88.1513 514.212 -94.823C509.271 -101.729 501.358 -105.941 492.867 -105.941C474.914 -105.941 462.536 -87.9747 471.068 -72.1789C474.12 -66.5291 477.449 -60.867 481.094 -55.1893C496.69 -30.9137 518.014 -6.34116 548.105 18.7553C557.484 26.5794 566.967 34.6306 576.485 42.8389C583.68 49.0562 590.876 55.3609 598.054 61.7529C620.408 81.6624 642.553 102.34 663.353 123.245C669.361 129.288 675.264 135.313 681.01 141.374L681.394 141.775C690.895 151.765 700.011 161.772 708.621 171.709C714.664 178.678 720.462 185.629 725.964 192.51C736.128 205.241 745.314 217.781 753.226 230.023C768.333 253.356 784.068 281.788 801.358 312.002C808.85 325.1 816.639 338.548 824.795 352.065C837.37 372.918 850.817 393.91 865.418 414.117L867.618 417.138C879.197 432.978 891.44 448.347 903.997 463.279C907.93 467.959 911.893 472.597 915.879 477.188C918.343 480.025 920.556 483.062 922.552 486.246C935.77 507.335 954.884 533.26 976.736 559.246C992.073 577.487 1009.14 561.269 995.648 541.628C989.217 532.268 982.917 523.095 976.736 514.24C966.118 499.029 955.849 484.743 945.877 472.081C932.08 452.311 917.811 431.302 903.997 409.052C898.548 400.267 893.169 391.29 887.912 382.104C880.978 369.984 873.154 356.816 865.435 343.455C849.018 315.093 833.091 285.91 827.345 264.341C821.39 236.153 841.212 253.269 865.435 281.474C878.114 296.249 891.981 314.062 903.997 330.025C919.453 350.563 931.835 368.028 934.56 371.922C945.999 388.287 960.39 406.065 976.736 424.822C1014.16 467.785 1061.86 515.935 1107.98 564.276C1117.81 574.58 1127.58 584.884 1137.15 595.153C1146.88 605.58 1156.39 615.954 1165.61 626.24C1169.86 630.982 1176.79 626.065 1173.36 620.7C1170.83 616.733 1168.24 612.757 1165.61 608.776C1156.57 595.087 1147.02 581.328 1137.15 567.657C1137.15 567.652 1137.14 567.651 1137.14 567.656Z" fill="white"/>
</g>
</svg>
