<svg width="153" height="51" viewBox="0 0 153 51" fill="none" xmlns="http://www.w3.org/2000/svg">
<path d="M153 44.0827C153 47.8866 149.989 50.9715 146.275 50.9715H7.55116C3.83661 50.9718 0.824219 47.8869 0.824219 44.0827V6.88817C0.824219 3.08459 3.83661 0 7.55116 0H146.274C149.989 0 153 3.08459 153 6.88817L153 44.0827Z" fill="#232C55"/>
<g clip-path="url(#clip0_1364_5175)">
<path d="M16.3259 14.3265C15.4011 13.8154 14.3152 13.8272 13.3963 14.3339L24.1662 24.2691L27.7842 20.6511L16.3259 14.3265ZM12.3193 15.3503C12.0563 15.7803 11.9056 16.2722 11.9056 16.7937V34.7376C11.9056 35.2429 12.043 35.7245 12.2912 36.1455L23.1217 25.3151L12.3193 15.3503ZM32.5812 23.2985L29.1301 21.3942L25.252 25.2708L30.0047 29.6541L32.5827 28.2314C33.5104 27.7172 34.0659 26.7954 34.0659 25.7642C34.0644 24.733 33.5104 23.8111 32.5812 23.2985ZM24.2075 26.3167L13.3475 37.1767C13.8188 37.4456 14.3359 37.5874 14.8559 37.5874C15.3582 37.5874 15.8635 37.4604 16.3259 37.2048L28.6426 30.4075L24.2075 26.3167Z" fill="#E3F0FA"/>
</g>
<path d="M47.7179 15.3878H46.6962C46.6962 15.2454 46.5993 14.8423 46.4056 14.1782H44.9307C44.7307 14.8315 44.6306 15.2345 44.6306 15.3878H43.6698C43.6698 15.3038 43.9182 14.6138 44.4151 13.3182C44.912 12.0225 45.1604 11.3087 45.1604 11.1775H46.3673C46.3673 11.3003 46.5922 12.0036 47.0424 13.2875C47.4927 14.5714 47.7179 15.2713 47.7179 15.3878ZM46.243 13.5605C45.879 12.4482 45.6971 11.8467 45.6971 11.7561H45.646C45.646 11.8401 45.4576 12.4415 45.0811 13.5605H46.243ZM51.8344 15.3878H51.046C51.046 15.2993 50.7533 14.8327 50.1681 13.9877C49.5553 13.0972 49.2062 12.4885 49.1212 12.1607H49.0701C49.1233 12.6327 49.15 13.0596 49.15 13.4413C49.15 13.9739 49.1649 14.6229 49.1946 15.3881H48.4092C48.441 14.7198 48.457 13.9859 48.457 13.186C48.457 12.3992 48.441 11.7296 48.4092 11.1779H49.3571C49.3571 11.2922 49.6198 11.7483 50.1456 12.5457C50.7052 13.3929 51.0267 13.9675 51.1096 14.2695H51.1575C51.1064 13.7887 51.0808 13.3576 51.0808 12.9759C51.0808 12.3919 51.0659 11.7923 51.0362 11.1779H51.8344C51.8044 11.7125 51.7898 12.382 51.7898 13.186C51.7895 13.9961 51.8044 14.73 51.8344 15.3878ZM56.4611 13.137C56.4611 13.7493 56.2673 14.2839 55.8801 14.7409C55.4926 15.1982 54.9499 15.4263 54.2519 15.4263C53.9369 15.4263 53.5027 15.4134 52.9494 15.3875C52.977 14.7364 52.991 14.0021 52.991 13.1854C52.991 12.401 52.977 11.7315 52.9494 11.1772H53.5081C53.5996 11.1772 53.7357 11.1739 53.9167 11.1676C54.0974 11.1613 54.2156 11.158 54.2709 11.158C55.0391 11.158 55.596 11.3521 55.9422 11.7402C56.2881 12.1282 56.4611 12.5936 56.4611 13.137ZM55.5897 13.276C55.5897 12.8621 55.4706 12.5135 55.2322 12.2296C54.9939 11.9463 54.6299 11.8046 54.1404 11.8046C54.0489 11.8046 53.9235 11.8142 53.7636 11.8338C53.7847 12.2651 53.7954 12.7155 53.7954 13.1854C53.7954 13.7008 53.8061 14.2116 53.8272 14.7183C53.9637 14.7462 54.1027 14.7603 54.242 14.7604C54.6997 14.7604 55.0385 14.6163 55.2587 14.3284C55.4789 14.0407 55.5897 13.6899 55.5897 13.276ZM60.7276 15.3878H59.7826C59.5356 14.6247 59.3464 14.1535 59.2144 13.9747C59.0825 13.7956 58.8697 13.7062 58.5761 13.7062C58.4525 13.7062 58.3345 13.7074 58.2219 13.7095C58.2219 14.2637 58.2313 14.823 58.2507 15.3878H57.3633C57.3909 14.7366 57.4049 14.0024 57.4049 13.1857C57.4049 12.4013 57.391 11.7317 57.3633 11.1775H57.9154C57.9793 11.1775 58.1128 11.1742 58.3161 11.1679C58.5193 11.1616 58.7071 11.1582 58.8795 11.1582C59.8563 11.1582 60.3449 11.4966 60.3449 12.1736C60.3449 12.7104 60.0661 13.0843 59.5086 13.2959V13.3444C59.7235 13.4046 59.9119 13.5747 60.0736 13.8534C60.2349 14.1325 60.453 14.6439 60.7276 15.3878ZM59.5306 12.4126C59.5306 11.9837 59.2581 11.7691 58.7134 11.7691C58.5134 11.7691 58.3365 11.7841 58.1835 11.8142C58.207 12.1484 58.2186 12.584 58.2186 13.1207C58.3357 13.1252 58.4346 13.127 58.5154 13.127C59.1921 13.1273 59.5306 12.8892 59.5306 12.4126ZM65.3035 13.205C65.3035 13.8667 65.1035 14.4154 64.7032 14.851C64.3029 15.2863 63.8081 15.5043 63.2188 15.5043C62.6569 15.5043 62.1864 15.3044 61.8078 14.9043C61.4289 14.5045 61.2396 13.9961 61.2396 13.3799C61.2396 12.7182 61.4396 12.1694 61.8399 11.7338C62.2399 11.2985 62.7347 11.0806 63.3243 11.0806C63.8863 11.0806 64.3564 11.2799 64.7353 11.6787C65.1142 12.0776 65.3035 12.5861 65.3035 13.205ZM64.4227 13.2986C64.4227 12.848 64.3088 12.4825 64.0812 12.2022C63.8533 11.922 63.5725 11.782 63.2384 11.782C62.9276 11.782 62.6637 11.9232 62.4468 12.2056C62.2298 12.4879 62.1208 12.8447 62.1208 13.276C62.1208 13.7243 62.2352 14.0891 62.464 14.3706C62.6928 14.6521 62.9731 14.7927 63.3053 14.7927C63.6158 14.7927 63.88 14.6509 64.097 14.3673C64.3139 14.084 64.4227 13.7276 64.4227 13.2986ZM67.1085 15.3878H66.2051C66.2328 14.7195 66.2467 13.9856 66.2467 13.1857C66.2467 12.3988 66.2328 11.7293 66.2051 11.1775H67.1085C67.0809 11.7209 67.0669 12.3901 67.0669 13.1857C67.0669 13.9982 67.0809 14.7324 67.1085 15.3878ZM71.7355 13.137C71.7355 13.7493 71.5418 14.2839 71.1546 14.7409C70.7671 15.1982 70.2244 15.4263 69.5264 15.4263C69.2113 15.4263 68.7772 15.4134 68.2238 15.3875C68.2515 14.7364 68.2654 14.0021 68.2654 13.1854C68.2654 12.401 68.2515 11.7315 68.2238 11.1772H68.7825C68.8741 11.1772 69.0102 11.1739 69.1911 11.1676C69.3718 11.1613 69.4901 11.158 69.5454 11.158C70.3136 11.158 70.8705 11.3521 71.2167 11.7402C71.5626 12.1282 71.7355 12.5936 71.7355 13.137ZM70.8642 13.276C70.8642 12.8621 70.7451 12.5135 70.5067 12.2296C70.2684 11.9463 69.9044 11.8046 69.4149 11.8046C69.3234 11.8046 69.1979 11.8142 69.0381 11.8338C69.0592 12.2651 69.0698 12.7155 69.0698 13.1854C69.0698 13.7008 69.0806 14.2116 69.1016 14.7183C69.2382 14.7462 69.3772 14.7603 69.5165 14.7604C69.9741 14.7604 70.3129 14.6163 70.5331 14.3284C70.7534 14.0407 70.8642 13.6899 70.8642 13.276ZM77.874 15.3878H76.8523C76.8523 15.2454 76.7554 14.8423 76.5614 14.1782H75.0865C74.8865 14.8315 74.7863 15.2345 74.7863 15.3878H73.8259C73.8259 15.3038 74.0743 14.6138 74.5712 13.3182C75.0681 12.0225 75.3165 11.3087 75.3165 11.1775H76.5233C76.5233 11.3003 76.7486 12.0036 77.1985 13.2875C77.6484 14.5714 77.874 15.2713 77.874 15.3878ZM76.3991 13.5605C76.0351 12.4482 75.8529 11.8467 75.8529 11.7561H75.8018C75.8018 11.8401 75.6136 12.4415 75.2372 13.5605H76.3991ZM81.5976 12.2799C81.5976 12.7953 81.4086 13.1758 81.0308 13.4214C80.6531 13.6671 80.1898 13.7902 79.6406 13.7902C79.5405 13.7902 79.4695 13.7881 79.4267 13.7839C79.4267 14.1893 79.4383 14.7237 79.4618 15.3878H78.5646C78.5922 14.7649 78.6062 14.0307 78.6062 13.1857C78.6062 12.4097 78.5922 11.7402 78.5646 11.1775H79.12C79.1987 11.1775 79.3497 11.1742 79.5732 11.1679C79.7967 11.1616 79.9901 11.1582 80.1541 11.1582C80.5583 11.1582 80.9001 11.251 81.1788 11.4364C81.4576 11.6219 81.5976 11.9027 81.5976 12.2799ZM80.7741 12.4578C80.7741 11.9966 80.4719 11.7657 79.8674 11.7657C79.7162 11.7657 79.5566 11.782 79.3887 11.8142C79.4122 12.2218 79.4237 12.683 79.4237 13.1984C79.4769 13.2029 79.5387 13.2047 79.6089 13.2047C80.3857 13.205 80.7741 12.956 80.7741 12.4578ZM85.4264 12.2799C85.4264 12.7953 85.2374 13.1758 84.86 13.4214C84.4822 13.6671 84.0187 13.7902 83.4695 13.7902C83.3693 13.7902 83.2983 13.7881 83.2555 13.7839C83.2555 14.1893 83.2671 14.7237 83.2906 15.3878H82.3934C82.421 14.7649 82.435 14.0307 82.435 13.1857C82.435 12.4097 82.4211 11.7402 82.3934 11.1775H82.9488C83.0276 11.1775 83.1785 11.1742 83.402 11.1679C83.6255 11.1616 83.819 11.1582 83.983 11.1582C84.3871 11.1582 84.7289 11.251 85.0077 11.4364C85.2864 11.6219 85.4264 11.9027 85.4264 12.2799ZM84.6029 12.4578C84.6029 11.9966 84.3007 11.7657 83.6962 11.7657C83.545 11.7657 83.3854 11.782 83.2175 11.8142C83.2409 12.2218 83.2526 12.683 83.2526 13.1984C83.3057 13.2029 83.3676 13.2047 83.4377 13.2047C84.2145 13.205 84.6029 12.956 84.6029 12.4578ZM91.6864 13.205C91.6864 13.8667 91.4864 14.4154 91.0861 14.851C90.6858 15.2866 90.191 15.5043 89.6017 15.5043C89.0397 15.5043 88.5693 15.3044 88.1907 14.9043C87.8121 14.5045 87.6225 13.9961 87.6225 13.3799C87.6225 12.7182 87.8225 12.1694 88.2228 11.7338C88.6231 11.2982 89.1179 11.0806 89.7072 11.0806C90.2691 11.0806 90.7396 11.2799 91.1182 11.6787C91.4967 12.0776 91.6864 12.5861 91.6864 13.205ZM90.8052 13.2986C90.8052 12.848 90.6914 12.4825 90.4638 12.2022C90.2362 11.922 89.955 11.782 89.621 11.782C89.3101 11.782 89.0462 11.9232 88.8293 12.2056C88.6124 12.4879 88.5036 12.8447 88.5036 13.276C88.5036 13.7243 88.618 14.0891 88.8468 14.3706C89.0756 14.6521 89.3559 14.7927 89.6879 14.7927C89.9987 14.7927 90.2626 14.6509 90.4795 14.3673C90.6968 14.084 90.8052 13.7276 90.8052 13.2986ZM96.0132 15.3878H95.2248C95.2248 15.2993 94.9324 14.8327 94.347 13.9877C93.7342 13.0972 93.385 12.4885 93.3 12.1607H93.2489C93.3021 12.6327 93.3289 13.0596 93.3289 13.4413C93.3289 13.9739 93.3437 14.6229 93.3735 15.3881H92.588C92.6198 14.7198 92.6358 13.9859 92.6358 13.186C92.6358 12.3992 92.6199 11.7296 92.588 11.1779H93.536C93.536 11.2922 93.799 11.7483 94.3244 12.5457C94.8843 13.3929 95.2055 13.9675 95.2884 14.2695H95.3363C95.2852 13.7887 95.2596 13.3576 95.2596 12.9759C95.2596 12.3919 95.2448 11.7923 95.215 11.1779H96.0132C95.9832 11.7125 95.9687 12.382 95.9687 13.186C95.9686 13.9961 95.9835 14.73 96.0132 15.3878Z" fill="#E3F0FA"/>
<mask id="path-4-outside-1_1364_5175" maskUnits="userSpaceOnUse" x="42.6698" y="18.6621" width="101" height="22" fill="black">
<rect fill="white" x="42.6698" y="18.6621" width="101" height="22"/>
<path d="M115.837 34.5711C115.199 34.5711 114.617 34.4519 114.09 34.2138C113.563 33.9754 113.121 33.6087 112.763 33.1144H112.656C112.727 33.6936 112.763 34.2427 112.763 34.7614V38.8431H111.281V24.4708H112.487L112.692 25.8285H112.763C113.145 25.2851 113.589 24.8935 114.095 24.652C114.601 24.4106 115.182 24.2899 115.837 24.2899C117.135 24.2899 118.138 24.7396 118.843 25.6385C119.549 26.5374 119.902 27.7988 119.902 29.4213C119.902 31.0505 119.543 32.3158 118.826 33.2186C118.108 34.1204 117.112 34.5711 115.837 34.5711ZM115.622 25.566C114.622 25.566 113.898 25.8468 113.451 26.4077C113.005 26.9688 112.775 27.862 112.763 29.0869V29.4213C112.763 30.8154 112.993 31.8124 113.451 32.413C113.91 33.0136 114.646 33.3131 115.658 33.3131C116.504 33.3131 117.167 32.9666 117.647 32.2727C118.126 31.5792 118.365 30.6228 118.365 29.4033C118.365 28.1669 118.126 27.2175 117.647 26.557C117.167 25.8959 116.492 25.566 115.622 25.566ZM123.336 34.3899H121.853V20.3075H123.336V34.3899ZM131.863 34.3899L131.568 32.9781H131.496C131.008 33.6 130.521 34.0211 130.036 34.2406C129.55 34.4612 128.944 34.5711 128.218 34.5711C127.247 34.5711 126.486 34.3177 125.935 33.811C125.384 33.3044 125.108 32.5837 125.108 31.6481C125.108 29.6453 126.69 28.5953 129.852 28.4984L131.515 28.4439V27.8286C131.515 27.0501 131.349 26.4751 131.019 26.1045C130.688 25.733 130.159 25.5476 129.433 25.5476C128.616 25.5476 127.693 25.8011 126.663 26.3077L126.207 25.1584C126.69 24.8929 127.218 24.6849 127.794 24.534C128.368 24.3832 128.944 24.3077 129.522 24.3077C130.69 24.3077 131.555 24.5699 132.118 25.0949C132.68 25.6199 132.962 26.4616 132.962 27.6203V34.3896H131.863V34.3899H131.863ZM128.512 33.3315C129.435 33.3315 130.16 33.0749 130.688 32.5623C131.214 32.0496 131.479 31.3314 131.479 30.4078V29.5119L129.995 29.5749C128.816 29.6179 127.966 29.8027 127.444 30.1324C126.923 30.4611 126.663 30.9726 126.663 31.6664C126.663 32.2092 126.825 32.6228 127.15 32.9058C127.474 33.1897 127.928 33.3315 128.512 33.3315ZM133.823 24.4708H135.413L137.557 30.1275C138.027 31.419 138.32 32.351 138.433 32.9244H138.504C138.582 32.6162 138.745 32.0903 138.991 31.3443C139.238 30.599 140.047 28.3084 141.417 24.4708H143.008L138.799 35.7659C138.383 36.8821 137.896 37.6741 137.338 38.1426C136.781 38.6098 136.098 38.8431 135.288 38.8431C134.835 38.8431 134.389 38.7919 133.948 38.6896V37.486C134.275 37.5582 134.642 37.5947 135.047 37.5947C136.065 37.5947 136.791 37.0155 137.227 35.8568L137.772 34.4453L133.823 24.4708ZM88.3633 25.3926C88.8341 25.7872 89.8171 26.6163 89.8171 28.194C89.8171 29.7284 88.9568 30.456 88.0965 31.1396C87.8302 31.409 87.5229 31.7004 87.5229 32.1574C87.5229 32.6129 87.8299 32.8621 88.0561 33.0491L88.7937 33.6288C89.6947 34.3968 90.5131 35.1027 90.5131 36.5347C90.5131 38.4848 88.6492 40.4551 85.1271 40.4551C82.1569 40.4551 80.7239 39.024 80.7239 37.4878C80.7239 36.7412 81.0909 35.6837 82.301 34.9567C83.5699 34.1683 85.2915 34.0657 86.2127 34.0019C85.9251 33.6289 85.5982 33.2345 85.5982 32.5924C85.5982 32.2402 85.701 32.0325 85.8029 31.7823C85.5768 31.8034 85.3518 31.8242 85.1468 31.8242C82.9765 31.8242 81.7477 30.185 81.7477 28.5676C81.7477 27.613 82.1783 26.5543 83.0579 25.7875C84.2258 24.8125 85.6184 24.646 86.7254 24.646H90.9435L89.6326 25.3929H88.3633V25.3926H88.3633ZM86.9087 34.6048C86.7449 34.5832 86.6421 34.5832 86.4382 34.5832C86.254 34.5832 85.1464 34.6256 84.2873 34.9167C83.8368 35.0814 82.5256 35.5793 82.5256 37.0531C82.5256 38.5255 83.9396 39.5852 86.1313 39.5852C88.0962 39.5852 89.1419 38.6288 89.1419 37.3436C89.1419 36.2834 88.4659 35.7256 86.9087 34.6048ZM87.503 30.6622C87.9734 30.1844 88.0139 29.5213 88.0139 29.1474C88.0139 27.654 87.1336 25.3303 85.4341 25.3303C84.9009 25.3303 84.328 25.5997 84.0002 26.0151C83.6525 26.4507 83.5491 27.0103 83.5491 27.5504C83.5491 28.9403 84.3479 31.2435 86.1101 31.2435C86.6222 31.2435 87.1741 30.9945 87.503 30.6622ZM75.4692 34.2728C72.2185 34.2728 70.4803 31.7041 70.4803 29.3837C70.4803 26.6699 72.6678 24.351 75.7771 24.351C78.7816 24.351 80.663 26.7322 80.663 29.2392C80.6633 31.6824 78.8032 34.2728 75.4692 34.2728ZM78.025 32.5951C78.5165 31.9316 78.6392 31.1035 78.6392 30.295C78.6392 28.4716 77.7804 24.9922 75.2446 24.9922C74.57 24.9922 73.8954 25.262 73.4048 25.6979C72.6072 26.4218 72.4634 27.3337 72.4634 28.2253C72.4634 30.2745 73.4654 33.6499 75.9403 33.6499C76.7376 33.6499 77.5557 33.2571 78.025 32.5951ZM64.3861 34.2728C61.1347 34.2728 59.3963 31.7041 59.3963 29.3837C59.3963 26.6699 61.5846 24.351 64.6931 24.351C67.6984 24.351 69.5795 26.7322 69.5795 29.2392C69.5798 31.6824 67.7195 34.2728 64.3861 34.2728ZM66.9424 32.5951C67.4331 31.9316 67.5561 31.1035 67.5561 30.295C67.5561 28.4716 66.6966 24.9922 64.1608 24.9922C63.4866 24.9922 62.8114 25.262 62.321 25.6979C61.5234 26.4218 61.3805 27.3337 61.3805 28.2253C61.3805 30.2745 62.382 33.6499 64.8571 33.6499C65.6548 33.6499 66.4723 33.2571 66.9424 32.5951ZM57.8343 33.948L54.8941 34.6352C53.7012 34.8231 52.6326 34.9883 51.5024 34.9883C45.8276 34.9883 43.6698 30.7606 43.6698 27.4493C43.6698 23.4097 46.7325 19.6621 51.9755 19.6621C53.0861 19.6621 54.1541 19.8283 55.1202 20.0992C56.662 20.5366 57.3815 21.0776 57.834 21.3904L56.1271 23.0355L55.4079 23.2014L55.9217 22.3681C55.2231 21.6814 53.9473 20.4114 51.5223 20.4114C48.2739 20.4114 45.827 22.9115 45.827 26.5555C45.827 30.4695 48.6234 34.1557 53.1042 34.1557C54.4213 34.1557 55.0983 33.8854 55.7155 33.6349V30.2829L52.6118 30.4494L54.2557 29.5529H58.6144L58.0804 30.0734C57.9354 30.1989 57.9155 30.2411 57.8745 30.406C57.8531 30.5939 57.8338 31.1984 57.8338 31.4064V33.948H57.8343V33.948Z"/>
</mask>
<path d="M115.837 34.5711C115.199 34.5711 114.617 34.4519 114.09 34.2138C113.563 33.9754 113.121 33.6087 112.763 33.1144H112.656C112.727 33.6936 112.763 34.2427 112.763 34.7614V38.8431H111.281V24.4708H112.487L112.692 25.8285H112.763C113.145 25.2851 113.589 24.8935 114.095 24.652C114.601 24.4106 115.182 24.2899 115.837 24.2899C117.135 24.2899 118.138 24.7396 118.843 25.6385C119.549 26.5374 119.902 27.7988 119.902 29.4213C119.902 31.0505 119.543 32.3158 118.826 33.2186C118.108 34.1204 117.112 34.5711 115.837 34.5711ZM115.622 25.566C114.622 25.566 113.898 25.8468 113.451 26.4077C113.005 26.9688 112.775 27.862 112.763 29.0869V29.4213C112.763 30.8154 112.993 31.8124 113.451 32.413C113.91 33.0136 114.646 33.3131 115.658 33.3131C116.504 33.3131 117.167 32.9666 117.647 32.2727C118.126 31.5792 118.365 30.6228 118.365 29.4033C118.365 28.1669 118.126 27.2175 117.647 26.557C117.167 25.8959 116.492 25.566 115.622 25.566ZM123.336 34.3899H121.853V20.3075H123.336V34.3899ZM131.863 34.3899L131.568 32.9781H131.496C131.008 33.6 130.521 34.0211 130.036 34.2406C129.55 34.4612 128.944 34.5711 128.218 34.5711C127.247 34.5711 126.486 34.3177 125.935 33.811C125.384 33.3044 125.108 32.5837 125.108 31.6481C125.108 29.6453 126.69 28.5953 129.852 28.4984L131.515 28.4439V27.8286C131.515 27.0501 131.349 26.4751 131.019 26.1045C130.688 25.733 130.159 25.5476 129.433 25.5476C128.616 25.5476 127.693 25.8011 126.663 26.3077L126.207 25.1584C126.69 24.8929 127.218 24.6849 127.794 24.534C128.368 24.3832 128.944 24.3077 129.522 24.3077C130.69 24.3077 131.555 24.5699 132.118 25.0949C132.68 25.6199 132.962 26.4616 132.962 27.6203V34.3896H131.863V34.3899H131.863ZM128.512 33.3315C129.435 33.3315 130.16 33.0749 130.688 32.5623C131.214 32.0496 131.479 31.3314 131.479 30.4078V29.5119L129.995 29.5749C128.816 29.6179 127.966 29.8027 127.444 30.1324C126.923 30.4611 126.663 30.9726 126.663 31.6664C126.663 32.2092 126.825 32.6228 127.15 32.9058C127.474 33.1897 127.928 33.3315 128.512 33.3315ZM133.823 24.4708H135.413L137.557 30.1275C138.027 31.419 138.32 32.351 138.433 32.9244H138.504C138.582 32.6162 138.745 32.0903 138.991 31.3443C139.238 30.599 140.047 28.3084 141.417 24.4708H143.008L138.799 35.7659C138.383 36.8821 137.896 37.6741 137.338 38.1426C136.781 38.6098 136.098 38.8431 135.288 38.8431C134.835 38.8431 134.389 38.7919 133.948 38.6896V37.486C134.275 37.5582 134.642 37.5947 135.047 37.5947C136.065 37.5947 136.791 37.0155 137.227 35.8568L137.772 34.4453L133.823 24.4708ZM88.3633 25.3926C88.8341 25.7872 89.8171 26.6163 89.8171 28.194C89.8171 29.7284 88.9568 30.456 88.0965 31.1396C87.8302 31.409 87.5229 31.7004 87.5229 32.1574C87.5229 32.6129 87.8299 32.8621 88.0561 33.0491L88.7937 33.6288C89.6947 34.3968 90.5131 35.1027 90.5131 36.5347C90.5131 38.4848 88.6492 40.4551 85.1271 40.4551C82.1569 40.4551 80.7239 39.024 80.7239 37.4878C80.7239 36.7412 81.0909 35.6837 82.301 34.9567C83.5699 34.1683 85.2915 34.0657 86.2127 34.0019C85.9251 33.6289 85.5982 33.2345 85.5982 32.5924C85.5982 32.2402 85.701 32.0325 85.8029 31.7823C85.5768 31.8034 85.3518 31.8242 85.1468 31.8242C82.9765 31.8242 81.7477 30.185 81.7477 28.5676C81.7477 27.613 82.1783 26.5543 83.0579 25.7875C84.2258 24.8125 85.6184 24.646 86.7254 24.646H90.9435L89.6326 25.3929H88.3633V25.3926H88.3633ZM86.9087 34.6048C86.7449 34.5832 86.6421 34.5832 86.4382 34.5832C86.254 34.5832 85.1464 34.6256 84.2873 34.9167C83.8368 35.0814 82.5256 35.5793 82.5256 37.0531C82.5256 38.5255 83.9396 39.5852 86.1313 39.5852C88.0962 39.5852 89.1419 38.6288 89.1419 37.3436C89.1419 36.2834 88.4659 35.7256 86.9087 34.6048ZM87.503 30.6622C87.9734 30.1844 88.0139 29.5213 88.0139 29.1474C88.0139 27.654 87.1336 25.3303 85.4341 25.3303C84.9009 25.3303 84.328 25.5997 84.0002 26.0151C83.6525 26.4507 83.5491 27.0103 83.5491 27.5504C83.5491 28.9403 84.3479 31.2435 86.1101 31.2435C86.6222 31.2435 87.1741 30.9945 87.503 30.6622ZM75.4692 34.2728C72.2185 34.2728 70.4803 31.7041 70.4803 29.3837C70.4803 26.6699 72.6678 24.351 75.7771 24.351C78.7816 24.351 80.663 26.7322 80.663 29.2392C80.6633 31.6824 78.8032 34.2728 75.4692 34.2728ZM78.025 32.5951C78.5165 31.9316 78.6392 31.1035 78.6392 30.295C78.6392 28.4716 77.7804 24.9922 75.2446 24.9922C74.57 24.9922 73.8954 25.262 73.4048 25.6979C72.6072 26.4218 72.4634 27.3337 72.4634 28.2253C72.4634 30.2745 73.4654 33.6499 75.9403 33.6499C76.7376 33.6499 77.5557 33.2571 78.025 32.5951ZM64.3861 34.2728C61.1347 34.2728 59.3963 31.7041 59.3963 29.3837C59.3963 26.6699 61.5846 24.351 64.6931 24.351C67.6984 24.351 69.5795 26.7322 69.5795 29.2392C69.5798 31.6824 67.7195 34.2728 64.3861 34.2728ZM66.9424 32.5951C67.4331 31.9316 67.5561 31.1035 67.5561 30.295C67.5561 28.4716 66.6966 24.9922 64.1608 24.9922C63.4866 24.9922 62.8114 25.262 62.321 25.6979C61.5234 26.4218 61.3805 27.3337 61.3805 28.2253C61.3805 30.2745 62.382 33.6499 64.8571 33.6499C65.6548 33.6499 66.4723 33.2571 66.9424 32.5951ZM57.8343 33.948L54.8941 34.6352C53.7012 34.8231 52.6326 34.9883 51.5024 34.9883C45.8276 34.9883 43.6698 30.7606 43.6698 27.4493C43.6698 23.4097 46.7325 19.6621 51.9755 19.6621C53.0861 19.6621 54.1541 19.8283 55.1202 20.0992C56.662 20.5366 57.3815 21.0776 57.834 21.3904L56.1271 23.0355L55.4079 23.2014L55.9217 22.3681C55.2231 21.6814 53.9473 20.4114 51.5223 20.4114C48.2739 20.4114 45.827 22.9115 45.827 26.5555C45.827 30.4695 48.6234 34.1557 53.1042 34.1557C54.4213 34.1557 55.0983 33.8854 55.7155 33.6349V30.2829L52.6118 30.4494L54.2557 29.5529H58.6144L58.0804 30.0734C57.9354 30.1989 57.9155 30.2411 57.8745 30.406C57.8531 30.5939 57.8338 31.1984 57.8338 31.4064V33.948H57.8343V33.948Z" fill="#E3F0FA"/>
<path d="M115.837 34.5711C115.199 34.5711 114.617 34.4519 114.09 34.2138C113.563 33.9754 113.121 33.6087 112.763 33.1144H112.656C112.727 33.6936 112.763 34.2427 112.763 34.7614V38.8431H111.281V24.4708H112.487L112.692 25.8285H112.763C113.145 25.2851 113.589 24.8935 114.095 24.652C114.601 24.4106 115.182 24.2899 115.837 24.2899C117.135 24.2899 118.138 24.7396 118.843 25.6385C119.549 26.5374 119.902 27.7988 119.902 29.4213C119.902 31.0505 119.543 32.3158 118.826 33.2186C118.108 34.1204 117.112 34.5711 115.837 34.5711ZM115.622 25.566C114.622 25.566 113.898 25.8468 113.451 26.4077C113.005 26.9688 112.775 27.862 112.763 29.0869V29.4213C112.763 30.8154 112.993 31.8124 113.451 32.413C113.91 33.0136 114.646 33.3131 115.658 33.3131C116.504 33.3131 117.167 32.9666 117.647 32.2727C118.126 31.5792 118.365 30.6228 118.365 29.4033C118.365 28.1669 118.126 27.2175 117.647 26.557C117.167 25.8959 116.492 25.566 115.622 25.566ZM123.336 34.3899H121.853V20.3075H123.336V34.3899ZM131.863 34.3899L131.568 32.9781H131.496C131.008 33.6 130.521 34.0211 130.036 34.2406C129.55 34.4612 128.944 34.5711 128.218 34.5711C127.247 34.5711 126.486 34.3177 125.935 33.811C125.384 33.3044 125.108 32.5837 125.108 31.6481C125.108 29.6453 126.69 28.5953 129.852 28.4984L131.515 28.4439V27.8286C131.515 27.0501 131.349 26.4751 131.019 26.1045C130.688 25.733 130.159 25.5476 129.433 25.5476C128.616 25.5476 127.693 25.8011 126.663 26.3077L126.207 25.1584C126.69 24.8929 127.218 24.6849 127.794 24.534C128.368 24.3832 128.944 24.3077 129.522 24.3077C130.69 24.3077 131.555 24.5699 132.118 25.0949C132.68 25.6199 132.962 26.4616 132.962 27.6203V34.3896H131.863V34.3899H131.863ZM128.512 33.3315C129.435 33.3315 130.16 33.0749 130.688 32.5623C131.214 32.0496 131.479 31.3314 131.479 30.4078V29.5119L129.995 29.5749C128.816 29.6179 127.966 29.8027 127.444 30.1324C126.923 30.4611 126.663 30.9726 126.663 31.6664C126.663 32.2092 126.825 32.6228 127.15 32.9058C127.474 33.1897 127.928 33.3315 128.512 33.3315ZM133.823 24.4708H135.413L137.557 30.1275C138.027 31.419 138.32 32.351 138.433 32.9244H138.504C138.582 32.6162 138.745 32.0903 138.991 31.3443C139.238 30.599 140.047 28.3084 141.417 24.4708H143.008L138.799 35.7659C138.383 36.8821 137.896 37.6741 137.338 38.1426C136.781 38.6098 136.098 38.8431 135.288 38.8431C134.835 38.8431 134.389 38.7919 133.948 38.6896V37.486C134.275 37.5582 134.642 37.5947 135.047 37.5947C136.065 37.5947 136.791 37.0155 137.227 35.8568L137.772 34.4453L133.823 24.4708ZM88.3633 25.3926C88.8341 25.7872 89.8171 26.6163 89.8171 28.194C89.8171 29.7284 88.9568 30.456 88.0965 31.1396C87.8302 31.409 87.5229 31.7004 87.5229 32.1574C87.5229 32.6129 87.8299 32.8621 88.0561 33.0491L88.7937 33.6288C89.6947 34.3968 90.5131 35.1027 90.5131 36.5347C90.5131 38.4848 88.6492 40.4551 85.1271 40.4551C82.1569 40.4551 80.7239 39.024 80.7239 37.4878C80.7239 36.7412 81.0909 35.6837 82.301 34.9567C83.5699 34.1683 85.2915 34.0657 86.2127 34.0019C85.9251 33.6289 85.5982 33.2345 85.5982 32.5924C85.5982 32.2402 85.701 32.0325 85.8029 31.7823C85.5768 31.8034 85.3518 31.8242 85.1468 31.8242C82.9765 31.8242 81.7477 30.185 81.7477 28.5676C81.7477 27.613 82.1783 26.5543 83.0579 25.7875C84.2258 24.8125 85.6184 24.646 86.7254 24.646H90.9435L89.6326 25.3929H88.3633V25.3926H88.3633ZM86.9087 34.6048C86.7449 34.5832 86.6421 34.5832 86.4382 34.5832C86.254 34.5832 85.1464 34.6256 84.2873 34.9167C83.8368 35.0814 82.5256 35.5793 82.5256 37.0531C82.5256 38.5255 83.9396 39.5852 86.1313 39.5852C88.0962 39.5852 89.1419 38.6288 89.1419 37.3436C89.1419 36.2834 88.4659 35.7256 86.9087 34.6048ZM87.503 30.6622C87.9734 30.1844 88.0139 29.5213 88.0139 29.1474C88.0139 27.654 87.1336 25.3303 85.4341 25.3303C84.9009 25.3303 84.328 25.5997 84.0002 26.0151C83.6525 26.4507 83.5491 27.0103 83.5491 27.5504C83.5491 28.9403 84.3479 31.2435 86.1101 31.2435C86.6222 31.2435 87.1741 30.9945 87.503 30.6622ZM75.4692 34.2728C72.2185 34.2728 70.4803 31.7041 70.4803 29.3837C70.4803 26.6699 72.6678 24.351 75.7771 24.351C78.7816 24.351 80.663 26.7322 80.663 29.2392C80.6633 31.6824 78.8032 34.2728 75.4692 34.2728ZM78.025 32.5951C78.5165 31.9316 78.6392 31.1035 78.6392 30.295C78.6392 28.4716 77.7804 24.9922 75.2446 24.9922C74.57 24.9922 73.8954 25.262 73.4048 25.6979C72.6072 26.4218 72.4634 27.3337 72.4634 28.2253C72.4634 30.2745 73.4654 33.6499 75.9403 33.6499C76.7376 33.6499 77.5557 33.2571 78.025 32.5951ZM64.3861 34.2728C61.1347 34.2728 59.3963 31.7041 59.3963 29.3837C59.3963 26.6699 61.5846 24.351 64.6931 24.351C67.6984 24.351 69.5795 26.7322 69.5795 29.2392C69.5798 31.6824 67.7195 34.2728 64.3861 34.2728ZM66.9424 32.5951C67.4331 31.9316 67.5561 31.1035 67.5561 30.295C67.5561 28.4716 66.6966 24.9922 64.1608 24.9922C63.4866 24.9922 62.8114 25.262 62.321 25.6979C61.5234 26.4218 61.3805 27.3337 61.3805 28.2253C61.3805 30.2745 62.382 33.6499 64.8571 33.6499C65.6548 33.6499 66.4723 33.2571 66.9424 32.5951ZM57.8343 33.948L54.8941 34.6352C53.7012 34.8231 52.6326 34.9883 51.5024 34.9883C45.8276 34.9883 43.6698 30.7606 43.6698 27.4493C43.6698 23.4097 46.7325 19.6621 51.9755 19.6621C53.0861 19.6621 54.1541 19.8283 55.1202 20.0992C56.662 20.5366 57.3815 21.0776 57.834 21.3904L56.1271 23.0355L55.4079 23.2014L55.9217 22.3681C55.2231 21.6814 53.9473 20.4114 51.5223 20.4114C48.2739 20.4114 45.827 22.9115 45.827 26.5555C45.827 30.4695 48.6234 34.1557 53.1042 34.1557C54.4213 34.1557 55.0983 33.8854 55.7155 33.6349V30.2829L52.6118 30.4494L54.2557 29.5529H58.6144L58.0804 30.0734C57.9354 30.1989 57.9155 30.2411 57.8745 30.406C57.8531 30.5939 57.8338 31.1984 57.8338 31.4064V33.948H57.8343V33.948Z" stroke="#E3F0FA" stroke-width="0.295487" mask="url(#path-4-outside-1_1364_5175)"/>
<path d="M94.8716 33.2739L94.8716 33.2739L94.8697 33.2737C94.5261 33.242 94.3522 33.1953 94.254 33.0807C94.2052 33.0236 94.17 32.9436 94.1475 32.8241C94.1248 32.704 94.1159 32.5493 94.1159 32.3473V20.564C94.1179 20.5426 94.1195 20.5212 94.1211 20.5005L94.1212 20.4985C94.1229 20.4761 94.1245 20.4546 94.1265 20.434C94.1673 20.0757 94.237 19.8796 94.3647 19.7269C94.4962 19.5696 94.6939 19.4511 95.0168 19.2612L95.2506 19.1236H94.9793H92.0385H92.0215L92.0062 19.1311L90.4639 19.881L90.4962 20.0213H91.9929V32.806C91.9929 33.0071 91.9735 33.1131 91.9022 33.2441C91.8406 33.3571 91.7414 33.4869 91.5782 33.7006C91.5402 33.7503 91.4987 33.8047 91.4534 33.8644L91.3635 33.9829H91.5122H95.1515H95.1719L95.1895 33.9724L95.9502 33.5154L96.134 33.405L95.9212 33.3787C95.7452 33.3571 95.5692 33.3411 95.3944 33.3255L95.3759 33.3239C95.207 33.3088 95.0392 33.2938 94.8716 33.2739ZM103.264 33.6033L103.272 33.5987L103.279 33.5922L104.361 32.5584L104.277 32.4391C103.584 32.7898 102.842 33.1536 101.82 33.1536C99.9435 33.1536 98.2276 31.6899 97.7029 29.1388L99.1923 29.0214L99.2038 29.0205L99.2145 29.0161L104.011 27.0506L104.073 27.0252L104.054 26.9611L104.054 26.9602C103.911 26.4807 103.639 25.5703 102.597 24.8744L102.597 24.8744L102.596 24.8737C101.969 24.471 101.199 24.2825 100.452 24.2825C98.3177 24.2825 95.7028 25.8783 95.7028 29.1331C95.7028 30.7006 96.3422 32.5046 97.8148 33.5571C98.8761 34.3353 99.9173 34.3782 100.574 34.3782C101.194 34.3782 101.899 34.2943 102.587 33.9783C102.741 33.9077 102.897 33.8159 103.05 33.7265C103.123 33.6841 103.194 33.6422 103.264 33.6033ZM101.28 27.3072L97.6612 28.8997C97.6551 28.8072 97.6483 28.7156 97.6415 28.6249C97.6234 28.3809 97.6056 28.1435 97.6056 27.9128C97.6056 26.8147 97.9811 26.1168 98.4487 25.6928C98.9186 25.2667 99.4873 25.112 99.8795 25.112C100.41 25.112 100.898 25.341 101.254 25.6716C101.611 26.0031 101.827 26.4294 101.827 26.8167C101.827 26.9396 101.786 27.0227 101.703 27.0941C101.614 27.17 101.478 27.2335 101.284 27.3056L101.284 27.3054L101.28 27.3072ZM105.199 25.9363H105.273V25.8624V24.5717H105.644H105.718V24.4978V24.3563V24.2824H105.644H104.589H104.516V24.3563V24.4978V24.5717H104.589H104.961V25.8624V25.9363H105.035H105.199ZM106.962 25.8624V25.9363H107.035H107.183H107.256V25.8624V24.3563V24.2825H107.183H106.924H106.87L106.854 24.3347L106.548 25.3319L106.238 24.3344L106.222 24.2825H106.167H105.913H105.839V24.3563V25.8624V25.9363H105.913H106.061H106.135V25.8624V24.9648L106.414 25.8839L106.43 25.9363H106.485H106.613H106.668L106.684 25.8837L106.962 24.9618V25.8624Z" fill="#E3F0FA" stroke="#E3F0FA" stroke-width="0.147744"/>
<defs>
<clipPath id="clip0_1364_5175">
<rect width="23.639" height="23.639" fill="white" transform="translate(11.1663 13.9485)"/>
</clipPath>
</defs>
</svg>
