<svg width="29" height="40" viewBox="0 0 29 40" fill="none" xmlns="http://www.w3.org/2000/svg">
<g clip-path="url(#clip0_441_20550)">
<path d="M14.1442 22.9135C13.8276 22.9135 13.5742 22.6601 13.5742 22.3434V15.9043C13.5742 15.5876 13.8276 15.3343 14.1442 15.3343C14.4609 15.3343 14.7143 15.5876 14.7143 15.9043V22.3434C14.7143 22.6601 14.4609 22.9135 14.1442 22.9135Z" fill="#C8A45D"/>
<path d="M10.0832 9.01478C8.10568 9.01478 6.49414 7.40323 6.49414 5.42575C6.49414 3.44827 8.10568 1.83673 10.0832 1.83673C12.0606 1.83673 13.6722 3.44827 13.6722 5.42575C13.6722 7.40323 12.0606 9.01478 10.0832 9.01478ZM10.0832 2.97677C8.732 2.97677 7.63418 4.07459 7.63418 5.42575C7.63418 6.77691 8.732 7.87473 10.0832 7.87473C11.4343 7.87473 12.5321 6.77691 12.5321 5.42575C12.5321 4.07459 11.4343 2.97677 10.0832 2.97677Z" fill="#C8A45D"/>
<path d="M6.02315 22.9135C5.70647 22.9135 5.45312 22.6601 5.45312 22.3434V15.9043C5.45312 15.5876 5.70647 15.3343 6.02315 15.3343C6.33982 15.3343 6.59317 15.5876 6.59317 15.9043V22.3434C6.59317 22.6601 6.33982 22.9135 6.02315 22.9135Z" fill="#C8A45D"/>
<path d="M14.1455 40H11.0913C10.7746 40 10.5212 39.7466 10.5212 39.43V26.9036C10.5212 26.7769 10.465 26.6573 10.3664 26.5728C10.3101 26.5236 10.1835 26.4461 10.0075 26.4743C9.81048 26.5095 9.64862 26.7206 9.64862 26.9599V39.43C9.64862 39.7466 9.39528 40 9.0786 40H6.02442C5.70774 40 5.4544 39.7466 5.4544 39.43V24.1449C5.07438 24.3209 4.64511 24.3772 4.21583 24.2998C3.28691 24.1238 2.61133 23.2794 2.61133 22.2941V14.5179C2.61133 12.1041 4.41991 10.0774 6.81963 9.80293C7.12927 9.76775 7.4178 9.99294 7.45299 10.3026C7.48817 10.6193 7.26298 10.9007 6.95334 10.9359C5.13068 11.1471 3.75841 12.6812 3.75841 14.5179V22.2941C3.75841 22.7234 4.04694 23.1034 4.43399 23.1808C4.69437 23.2301 4.94771 23.1668 5.14476 23.0049C5.3418 22.843 5.4544 22.6038 5.4544 22.3504C5.4544 22.0338 5.70774 21.7804 6.02442 21.7804C6.3411 21.7804 6.59444 22.0338 6.59444 22.3504V38.867H8.50858V26.9669C8.50858 26.1717 9.07157 25.482 9.82456 25.3554C10.289 25.2779 10.7535 25.4117 11.1053 25.7072C11.4572 26.0098 11.6613 26.4461 11.6613 26.9106V38.867H13.5754V22.3434C13.5754 22.0267 13.8288 21.7734 14.1455 21.7734C14.4621 21.7734 14.7155 22.0267 14.7155 22.3434C14.7155 22.5967 14.8281 22.836 15.0251 22.9979C15.2222 23.1597 15.4755 23.2231 15.7359 23.1738C16.1229 23.1034 16.4115 22.7234 16.4115 22.2871V14.5109C16.4115 12.6812 15.0392 11.14 13.2165 10.9289C12.8999 10.8937 12.6747 10.6122 12.7169 10.2955C12.7521 9.97886 13.0406 9.76071 13.3502 9.79589C15.75 10.0703 17.5585 12.0971 17.5585 14.5109V22.2871C17.5585 23.2723 16.883 24.1168 15.954 24.2927C15.5248 24.3772 15.0955 24.3209 14.7155 24.1379V39.4229C14.7155 39.7396 14.4621 39.9929 14.1455 39.9929V40Z" fill="#C8A45D"/>
<path d="M23.8903 19.8522C23.5737 19.8522 23.3203 19.5989 23.3203 19.2822V13.2371C23.3203 12.9205 23.5737 12.6671 23.8903 12.6671C24.207 12.6671 24.4604 12.9205 24.4604 13.2371V19.2822C24.4604 19.5989 24.207 19.8522 23.8903 19.8522Z" fill="#C8A45D"/>
<path d="M20.0838 6.80507C18.2048 6.80507 16.6777 5.27797 16.6777 3.39901C16.6777 1.52006 18.2048 0 20.0838 0C21.9627 0 23.4898 1.52709 23.4898 3.40605C23.4898 5.28501 21.9627 6.8121 20.0838 6.8121V6.80507ZM20.0838 1.14004C18.8382 1.14004 17.8248 2.15341 17.8248 3.39901C17.8248 4.64462 18.8382 5.65799 20.0838 5.65799C21.3294 5.65799 22.3428 4.64462 22.3428 3.39901C22.3428 2.15341 21.3294 1.14004 20.0838 1.14004Z" fill="#C8A45D"/>
<path d="M23.8914 35.8832H21.0272C20.7105 35.8832 20.4572 35.6298 20.4572 35.3131V23.5609C20.4572 23.4483 20.4079 23.3497 20.3235 23.2794C20.2742 23.2371 20.1687 23.1738 20.0139 23.1949C19.845 23.2231 19.7113 23.406 19.7113 23.6101V35.3131C19.7113 35.6298 19.4579 35.8832 19.1412 35.8832H16.2771C15.9604 35.8832 15.707 35.6298 15.707 35.3131V23.5679C15.707 23.2512 15.9604 22.9979 16.2771 22.9979C16.5937 22.9979 16.8471 23.2512 16.8471 23.5679V34.7431H18.5712V23.6172C18.5712 22.8501 19.1131 22.1886 19.8379 22.069C20.2813 21.9986 20.7317 22.1182 21.0695 22.4067C21.4072 22.6953 21.6043 23.1175 21.6043 23.5609V34.7431H23.3284V19.2751C23.3284 18.9585 23.5818 18.7051 23.8984 18.7051C24.2151 18.7051 24.4685 18.9585 24.4685 19.2751C24.4685 19.5003 24.567 19.7185 24.7429 19.8592C24.9189 20.007 25.1511 20.0633 25.3833 20.0211C25.7281 19.9578 25.9885 19.6129 25.9885 19.2259V11.9282C25.9885 10.2252 24.7148 8.79661 23.0258 8.6066C22.7091 8.57141 22.4839 8.28992 22.5262 7.97324C22.5614 7.65657 22.8429 7.43137 23.1595 7.4736C25.4255 7.73398 27.1356 9.64812 27.1356 11.9352V19.2329C27.1356 20.1759 26.4882 20.9782 25.6015 21.1471C25.2144 21.2245 24.8203 21.1752 24.4685 21.0274V35.3131C24.4685 35.6298 24.2151 35.8832 23.8984 35.8832H23.8914Z" fill="#C8A45D"/>
<path d="M13.8907 11.0486C13.8203 11.0486 13.75 11.0345 13.6796 11.0063C13.384 10.8867 13.2433 10.5559 13.3629 10.2604C13.9752 8.72625 15.3756 7.64954 17.0223 7.46657C17.332 7.43139 17.6205 7.65658 17.6557 7.96622C17.6909 8.2829 17.4657 8.56439 17.156 8.59958C15.9315 8.74033 14.883 9.53554 14.4255 10.6826C14.3341 10.9078 14.1229 11.0415 13.8978 11.0415L13.8907 11.0486Z" fill="#C8A45D"/>
<path d="M19.0354 40H1.13252C0.815843 40 0.5625 39.7467 0.5625 39.43C0.5625 39.1133 0.815843 38.86 1.13252 38.86H19.0354C19.3521 38.86 19.6054 39.1133 19.6054 39.43C19.6054 39.7467 19.3521 40 19.0354 40Z" fill="#C8A45D"/>
<path d="M27.867 35.8832H14.1442C13.8276 35.8832 13.5742 35.6299 13.5742 35.3132C13.5742 34.9965 13.8276 34.7432 14.1442 34.7432H27.867C28.1836 34.7432 28.437 34.9965 28.437 35.3132C28.437 35.6299 28.1836 35.8832 27.867 35.8832Z" fill="#C8A45D"/>
</g>
<defs>
<clipPath id="clip0_441_20550">
<rect width="27.8747" height="40" fill="white" transform="translate(0.5625)"/>
</clipPath>
</defs>
</svg>
