<svg width="13" height="13" viewBox="0 0 13 13" fill="none" xmlns="http://www.w3.org/2000/svg">
<path d="M8.88538 0.683076C8.63938 0.437076 8.21338 0.605076 8.21338 0.947076V3.04108C8.21338 3.91708 8.95738 4.64308 9.86338 4.64308C10.4334 4.64908 11.2254 4.64908 11.9034 4.64908C12.2454 4.64908 12.4254 4.24708 12.1854 4.00708C11.3214 3.13708 9.77338 1.57108 8.88538 0.683076Z" fill="#B1B8C0"/>
<path d="M11.7055 5.47113H9.97152C8.54952 5.47113 7.39152 4.31313 7.39152 2.89113V1.15713C7.39152 0.827129 7.12152 0.557129 6.79152 0.557129H4.24752C2.39952 0.557129 0.905518 1.75713 0.905518 3.89913V9.21513C0.905518 11.3571 2.39952 12.5571 4.24752 12.5571H8.96352C10.8115 12.5571 12.3055 11.3571 12.3055 9.21513V6.07113C12.3055 5.74113 12.0355 5.47113 11.7055 5.47113ZM6.30552 10.0071H3.90552C3.65952 10.0071 3.45552 9.80313 3.45552 9.55713C3.45552 9.31113 3.65952 9.10713 3.90552 9.10713H6.30552C6.55152 9.10713 6.75552 9.31113 6.75552 9.55713C6.75552 9.80313 6.55152 10.0071 6.30552 10.0071ZM7.50552 7.60713H3.90552C3.65952 7.60713 3.45552 7.40313 3.45552 7.15713C3.45552 6.91113 3.65952 6.70713 3.90552 6.70713H7.50552C7.75152 6.70713 7.95552 6.91113 7.95552 7.15713C7.95552 7.40313 7.75152 7.60713 7.50552 7.60713Z" fill="#B1B8C0"/>
</svg>
