<svg width="16" height="16" viewBox="0 0 16 16" fill="none" xmlns="http://www.w3.org/2000/svg">
<g clip-path="url(#clip0_441_20542)">
<path d="M7.53041 7.53046V4.68168H4.5704C4.41043 5.52217 4.31148 6.47259 4.28991 7.53046H7.53041ZM7.53041 3.74253V0.0270996C6.43131 0.301271 5.38083 1.55727 4.78616 3.74253H7.53041ZM3.3516 8.46961H0C0.0570694 9.45372 0.292954 10.4053 0.692409 11.2871H3.617C3.46314 10.4196 3.37367 9.47605 3.3516 8.46961ZM0 7.53046H3.35063C3.37048 6.5121 3.45938 5.55776 3.61478 4.68168H0.706809C0.298714 5.57225 0.0577268 6.5347 0 7.53046ZM8.46956 0.0310128V3.74253H11.2057C10.9806 2.92427 10.7111 2.30862 10.4624 1.85908C9.90635 0.854089 9.21181 0.221912 8.46956 0.0310128ZM7.53041 8.46961H4.29094C4.31558 9.56498 4.42039 10.4977 4.5704 11.2871H7.53044L7.53041 8.46961ZM11.2842 1.4044C11.655 2.07455 11.9532 2.86 12.1757 3.74253H14.7842C14.4668 3.24092 14.0912 2.77044 13.6604 2.33968C12.7876 1.4668 11.7517 0.819998 10.6236 0.427462C10.8613 0.713279 11.0821 1.03929 11.2842 1.4044ZM11.7091 7.53046C11.6841 6.4205 11.5768 5.47778 11.4236 4.68168H8.46956V7.53046H11.7091ZM12.1933 12.2262C11.9703 13.1277 11.6685 13.9287 11.2909 14.6098C11.0935 14.9659 10.878 15.2845 10.6462 15.5648C11.7655 15.1715 12.7933 14.5274 13.6604 13.6604C14.1 13.2207 14.4821 12.7395 14.8035 12.2262H12.1933ZM3.8146 3.74253C4.03681 2.8539 4.33599 2.0636 4.70912 1.39041C4.90656 1.03422 5.1221 0.715564 5.35391 0.435226C4.23456 0.828513 3.20666 1.47259 2.3396 2.33965C1.90884 2.77041 1.53317 3.24089 1.21577 3.7425L3.8146 3.74253ZM12.3772 4.68168C12.5346 5.55779 12.6261 6.51182 12.6485 7.53046H16C15.9423 6.5347 15.7013 5.57225 15.2932 4.68168H12.3772ZM4.71588 14.5958C4.34069 13.9177 4.03988 13.1215 3.81654 12.2262H1.19645C1.51796 12.7395 1.89998 13.2207 2.33963 13.6604C3.21248 14.5332 4.24834 15.18 5.37642 15.5726C5.13869 15.2868 4.91786 14.9608 4.71588 14.5958ZM8.46956 8.46961V11.2871H11.4356C11.5921 10.4543 11.6889 9.51439 11.7102 8.46961H8.46956ZM16 8.46961H12.6495C12.6299 9.47589 12.5428 10.4196 12.3908 11.2871H15.3076C15.707 10.4053 15.9429 9.45372 16 8.46961ZM8.46956 12.2262V15.973C9.57401 15.6975 10.6295 14.431 11.2226 12.2262H8.46956ZM7.53041 15.9691V12.2262H4.78578C5.01256 13.0602 5.28576 13.6859 5.53764 14.1411C6.09368 15.146 6.78819 15.7782 7.53041 15.9691Z" fill="#C8A45D"/>
</g>
<defs>
<clipPath id="clip0_441_20542">
<rect width="16" height="16" fill="white"/>
</clipPath>
</defs>
</svg>
