<svg width="14" height="15" viewBox="0 0 14 15" fill="none" xmlns="http://www.w3.org/2000/svg">
<path d="M5.05787 4.5874C4.67662 4.5874 4.37708 4.89376 4.37708 5.2682C4.37708 5.64263 4.68343 5.94899 5.05787 5.94899C5.4323 5.94899 5.73863 5.64263 5.73863 5.2682C5.73863 4.89376 5.4323 4.5874 5.05787 4.5874Z" fill="#C8A45D"/>
<path d="M13.4398 2.92069C12.8679 1.59314 11.6084 0.851074 9.85198 0.851074H4.14694C1.96159 0.851074 0.191528 2.62114 0.191528 4.80648V10.5115C0.191528 12.268 0.933593 13.5274 2.26114 14.0993C2.39049 14.1538 2.54027 14.1197 2.63558 14.0244L13.3649 3.29512C13.467 3.193 13.501 3.04323 13.4398 2.92069ZM5.99869 7.8224C5.73318 8.0811 5.38598 8.20364 5.03878 8.20364C4.69157 8.20364 4.34437 8.07429 4.07886 7.8224C3.38445 7.16883 2.62196 6.12722 2.9147 4.88818C3.1734 3.76487 4.16736 3.26108 5.03878 3.26108C5.91019 3.26108 6.90415 3.76487 7.16285 4.89499C7.44878 6.12722 6.6863 7.16883 5.99869 7.8224Z" fill="#C8A45D"/>
<path d="M12.0843 13.4657C12.234 13.6155 12.2136 13.8606 12.0298 13.9627C11.4307 14.2963 10.7022 14.4665 9.85126 14.4665H4.14622C3.94879 14.4665 3.8671 14.235 4.00326 14.0989L8.11523 9.98688C8.25139 9.85073 8.46244 9.85073 8.5986 9.98688L12.0843 13.4657Z" fill="#C8A45D"/>
<path d="M13.8086 4.80553V10.5106C13.8086 11.3615 13.6384 12.0968 13.3049 12.6891C13.2027 12.8729 12.9576 12.8865 12.8079 12.7436L9.32221 9.2579C9.18605 9.12174 9.18605 8.91069 9.32221 8.77454L13.4342 4.66256C13.5772 4.5264 13.8086 4.6081 13.8086 4.80553Z" fill="#C8A45D"/>
</svg>
