<svg width="14" height="15" viewBox="0 0 14 15" fill="none" xmlns="http://www.w3.org/2000/svg">
<path d="M6.36261 9.68152L5.10112 10.943C4.83518 11.2089 4.41241 11.2089 4.13966 10.9498C4.06465 10.8748 3.98964 10.8066 3.91463 10.7316C3.21229 10.0225 2.57813 9.2792 2.01217 8.50185C1.45302 7.7245 1.00297 6.94715 0.675668 6.17662C0.355181 5.39926 0.191528 4.65601 0.191528 3.94684C0.191528 3.48316 0.273355 3.03993 0.437008 2.6308C0.600661 2.21485 0.859778 1.83299 1.22118 1.49205C1.65759 1.06246 2.13491 0.851074 2.6395 0.851074C2.83043 0.851074 3.02136 0.891988 3.19183 0.973814C3.36912 1.05564 3.52596 1.17838 3.6487 1.35567L5.23068 3.58544C5.35342 3.75592 5.44206 3.91275 5.50343 4.06276C5.5648 4.20596 5.5989 4.34916 5.5989 4.47872C5.5989 4.64237 5.55116 4.80602 5.4557 4.96286C5.36705 5.11969 5.2375 5.28334 5.07384 5.447L4.55561 5.98569C4.4806 6.06069 4.44651 6.14934 4.44651 6.25844C4.44651 6.31299 4.45333 6.36073 4.46696 6.41528C4.48742 6.46983 4.50788 6.51074 4.52151 6.55165C4.64425 6.77668 4.85564 7.06989 5.15567 7.42447C5.46252 7.77905 5.78982 8.14045 6.14441 8.50185C6.21259 8.57004 6.2876 8.63823 6.35579 8.70642C6.62855 8.97235 6.63537 9.40876 6.36261 9.68152Z" fill="#C8A45D"/>
<path d="M13.8081 11.9856C13.8081 12.1765 13.774 12.3743 13.7058 12.5652C13.6854 12.6198 13.6649 12.6743 13.6376 12.7289C13.5217 12.9743 13.3717 13.2062 13.174 13.4244C12.8398 13.7926 12.4716 14.0585 12.0557 14.229C12.0488 14.229 12.042 14.2358 12.0352 14.2358C11.6329 14.3995 11.1965 14.4881 10.726 14.4881C10.0305 14.4881 9.2872 14.3245 8.50303 13.9903C7.71885 13.6562 6.93468 13.2062 6.15733 12.6402C5.8914 12.4425 5.62547 12.2447 5.37317 12.0333L7.60293 9.80356C7.79386 9.94676 7.96433 10.0559 8.10753 10.1309C8.14162 10.1445 8.18254 10.165 8.23027 10.1854C8.28482 10.2059 8.33937 10.2127 8.40074 10.2127C8.51666 10.2127 8.60531 10.1718 8.68032 10.0968L9.19855 9.58536C9.36902 9.41488 9.53268 9.28533 9.68951 9.2035C9.84634 9.10803 10.0032 9.0603 10.1737 9.0603C10.3032 9.0603 10.4396 9.08758 10.5896 9.14895C10.7396 9.21032 10.8965 9.29896 11.0669 9.41488L13.324 11.0173C13.5013 11.1401 13.624 11.2833 13.699 11.4537C13.7672 11.6242 13.8081 11.7947 13.8081 11.9856Z" fill="#C8A45D"/>
</svg>
