<svg width="79" height="79" viewBox="0 0 79 79" fill="none" xmlns="http://www.w3.org/2000/svg">
<path d="M39.444 78.1112C60.799 78.1112 78.1107 60.7995 78.1107 39.4445C78.1107 18.0895 60.799 0.777832 39.444 0.777832C18.089 0.777832 0.777344 18.0895 0.777344 39.4445C0.777344 60.7995 18.089 78.1112 39.444 78.1112Z" fill="#29CA8C"/>
<path d="M28.9384 54.2559L20.9919 43.9624C20.8198 43.7407 20.694 43.4868 20.6218 43.2156C20.5497 42.9444 20.5326 42.6615 20.5717 42.3836C20.6107 42.1057 20.7051 41.8385 20.8492 41.5977C20.9934 41.3569 21.1843 41.1475 21.4108 40.9818L24.8843 38.4304C25.3497 38.091 25.9289 37.946 26.4992 38.0262C27.0696 38.1063 27.5864 38.4053 27.9402 38.8599L32.6701 44.9917L51.3353 23.7683C51.719 23.341 52.2537 23.0796 52.8264 23.0395C53.3992 22.9993 53.9651 23.1835 54.4045 23.553L57.7192 26.3483C57.9362 26.5277 58.1149 26.7489 58.2447 26.9987C58.3746 27.2485 58.453 27.5218 58.4753 27.8025C58.4975 28.0832 58.4632 28.3655 58.3743 28.6326C58.2855 28.8998 58.1439 29.1464 57.9579 29.3578L35.8554 54.4971C35.4143 54.988 34.871 55.3762 34.2637 55.6344C33.6564 55.8926 32.9999 56.0145 32.3405 55.9915C31.681 55.9685 31.0346 55.8011 30.4468 55.5013C29.859 55.2014 29.3441 54.7763 28.9384 54.2559Z" fill="white"/>
</svg>
